<?xml version="1.0" encoding="utf-8"?>
<!-- Generator: Adobe Illustrator 22.0.1, SVG Export Plug-In . SVG Version: 6.00 Build 0)  -->
<svg version="1.1" id="Capa_1" xmlns="http://www.w3.org/2000/svg" xmlns:xlink="http://www.w3.org/1999/xlink" x="0px" y="0px"
	 viewBox="0 0 400 400" style="enable-background:new 0 0 400 400;" xml:space="preserve">
<style type="text/css">
	.st0{fill:#363636;}
	.st1{fill:#DD427E;}
</style>
<g>
	<g>
		<path class="st0" d="M91.7,188.7c1.7-6.6,3.8-14.8,9.5-26.2c9.2-18.3,40.9-35.4,41.2-35.6l5.8-3.3c-1.1,0.6-30.6,8.7-43.9,23.5
			c-1.7-6.6-5.7-16-14.1-26.8c-4-5.1-13.8-16.5-25.5-28.4c5.5,3.4,10.3,6.5,13.2,9c11.5,9.7,35.1,25.1,38.9,26.7l-10.8-9.3
			c0,0-13.1-11.8-24.7-21.4C75,91.6,60.9,83.4,49.1,76.8C36.8,65.6,24.5,56.3,16,54.5c-5.2-1.1-8.4,0.7-10.3,2.4
			c-9.4,9-1,46.7,4.4,78.8c4.2,25,19.4,41.3,30.6,53.2c4.9,5.2,9.1,9.7,11.1,13.6c7.2,14,35.9,26.3,37.1,26.8c0.3,0.1,0.7,0.2,1,0.2
			c0.7,0,1.4-0.3,1.9-0.8c0.8-0.8,1-1.9,0.5-2.9c-4-8.8-7.2-20.1-4.5-25.6C89.6,196.8,90.6,193,91.7,188.7z M85,221.7
			c-8.6-4.3-25.9-11-30.4-19.8c-2.3-4.5-6.7-9.8-11.8-15.3c-10.7-11.4-25.3-27.1-29.2-50.5c-3.4-20.3-8-59.5,0.2-67.3
			c0.6-0.6,1.7-1.3,3.5-1.3c0.6,0,1.2,0.1,2,0.2c2.4,0.5,5.1,1.7,8.2,3.3l0,0c0,0,0.2,0.1,0.4,0.2c19,10.4,48,39.3,58.2,52.3
			c10,12.7,12.7,24.3,13.4,28.2c-1.4,1.9-2.6,3.8-3.5,5.8c-6,11.9-10.3,21.1-12.1,28c-1.1,4.3-2,7.6-3.4,10.6
			C77.2,202.6,82.2,214.1,85,221.7z"/>
		<path class="st0" d="M129.4,292c-13.9-4.6-19.8-19.8-19.8-20l-3.2-6.7c0.2,1.1,0.4,25.7,17.3,31.4c13.4,4.5,20.2,11.2,21.9,15.4
			l0.4,0.9C145.8,312.9,145.1,297.2,129.4,292z"/>
		<path class="st0" d="M173.2,229.6l3.4-3.5c0.1-0.9,2.2-17-7.7-32.6l-3.9-3.8C174.6,201.6,173.3,229.4,173.2,229.6z"/>
		<path class="st0" d="M140.9,201.1l-3.2-1.1c-0.3,0-22.5-9.5-28.1,17.8l-0.2,3.4C114,198.5,139.8,201,140.9,201.1z"/>
		<path class="st0" d="M124.3,267.7l-7.4-3.3c0,0,9.8,8.9,17.8,8.9c11.7,0,20.5-10.2,24.2-17l3-7
			C161.4,250.2,140.5,275.9,124.3,267.7z"/>
		<path class="st0" d="M132.4,224c-0.3,0-0.5,0-0.8,0c-14.4,0.8-19.6,8.8-22.3,8.8c0,0,2.6,8.1,6.9,13.2c3.3,3.9,9.8,7.5,16.7,7.5
			c3.3,0,6.6-0.8,9.6-2.7c7.7-4.9,9.7-5.7,10.8-5.7c0.2,0,0.4,0,0.6,0.1l0,0C154.1,245.2,146.3,224,132.4,224z M126.6,231.7
			c1.9,0,3.5,1.6,3.5,3.5c0,1.9-1.6,3.5-3.5,3.5c-1.9,0-3.5-1.6-3.5-3.5C123.1,233.2,124.7,231.7,126.6,231.7z M118.2,244.4
			c-2.5-3-3.8-6.6-4.5-8.7c0.5-0.4,1.1-0.8,1.6-1.3c1.1-1,2.6-2.2,4.4-3.3c-1.3,2.1-2,4.5-2,7.1c0,3.2,1.2,6.2,3,8.5
			C119.7,246,118.9,245.2,118.2,244.4z M141.1,248.6c-0.4,0.2-0.8,0.4-1.2,0.6c3.3-2.5,5.5-6.5,5.5-11c0-1.4-0.2-2.8-0.6-4.1
			c3.2,3.3,5.7,7.1,6.9,9.6C149.8,244.6,145.7,245.7,141.1,248.6z"/>
		<path class="st0" d="M199.5,254.6c14.6-1.1,27.7,5.3,27.7,5.3c-12.9-10-27-9.6-27.7-9.6c-0.6-0.1-14.8-0.4-27.7,9.6
			C171.8,259.8,184.8,253.5,199.5,254.6z"/>
		<path class="st0" d="M393.2,56.9c-1.8-1.7-5.1-3.6-10.3-2.4c-8.4,1.9-20.8,11.1-33,22.3c-11.8,6.6-25.9,14.9-32.2,20.1
			c-11.5,9.7-24.7,21.4-24.7,21.4l-10.8,9.3c3.7-1.7,27.3-17.1,38.8-26.7c2.9-2.4,7.7-5.6,13.2-9c-11.6,11.9-21.4,23.2-25.5,28.3
			c-8.4,10.7-12.4,20.2-14.1,26.8c-13.3-14.8-42.8-22.9-43.9-23.5l5.8,3.3c0.3,0.2,32,17.3,41.2,35.6c5.7,11.4,7.8,19.6,9.5,26.2
			c1.1,4.4,2.1,8.2,3.8,11.6c2.8,5.5-0.5,16.8-4.5,25.6c-0.4,1-0.2,2.1,0.5,2.9c0.5,0.5,1.2,0.8,1.9,0.8c0.3,0,0.7-0.1,1-0.2
			c1.2-0.5,29.9-12.8,37.1-26.8c2-3.9,6.2-8.4,11.1-13.6c11.1-11.9,26.3-28.2,30.6-53.2C394.2,103.6,402.6,65.9,393.2,56.9z
			 M385.5,136.1c-3.9,23.4-18.5,39.1-29.2,50.5c-5.1,5.5-9.5,10.8-11.8,15.3c-4.5,8.8-21.8,15.6-30.4,19.8
			c2.8-7.6,7.8-19.2,4.5-25.6c-1.5-3-2.3-6.3-3.4-10.6c-1.8-6.8-6.1-16-12.1-28c-1-2-2.2-3.9-3.5-5.8c0.8-3.9,3.5-15.5,13.4-28.2
			c10.2-13,39.3-41.9,58.2-52.3c0.2-0.1,0.4-0.2,0.4-0.2l0,0c3-1.6,5.8-2.8,8.2-3.3c0.7-0.2,1.4-0.2,2-0.2c1.9,0,2.9,0.7,3.5,1.3
			C393.5,76.6,388.9,115.8,385.5,136.1z"/>
		<path class="st0" d="M269.6,292c-15.7,5.2-16.4,20.9-16.4,20.9l0.4-0.9c1.7-4.2,8.4-10.9,21.9-15.4c16.9-5.6,17.1-30.3,17.3-31.4
			l-3.3,6.7C289.4,272.2,283.5,287.4,269.6,292z"/>
		<path class="st0" d="M227.1,242.6l-1.7-8.1c0.2,0.9,3.1,24,9.8,33.3c5.2,7.3,15.7,33.3,9.7,46.7c-3.5,7.8-14.9,14.5-24.2,15.3
			c-8.4,0.7-15.3-1.3-18.6-5.5l-2.6-9.8l-2.6,9.8c-3.3,4.2-10.2,6.3-18.6,5.5c-9.3-0.8-20.6-7.5-24.2-15.3
			c-6.1-13.4,4.4-39.4,9.6-46.7c6.8-9.4,9.6-32.4,9.8-33.3l-1.7,8.1c-1.2,5.9-6.3,17.6-11.5,24.3c-7.1,9-18.9,36.5-12,51.6
			c4.5,10,18.5,15.5,29.5,16.5c1.3,0.1,2.5,0.2,3.8,0.2c4.5,0,7.6-0.4,10.1-1.5c1.5,0.8,4.3,1.9,7.3,2.2v0.1c0.2,0,0.4,0,0.6,0
			c0.2,0,0.4,0,0.5,0v-0.1c3-0.3,5.7-1.4,7.3-2.2c2.5,1.1,5.6,1.5,10.1,1.5c1.2,0,2.5-0.1,3.8-0.2c11-1,25-6.5,29.5-16.5
			c6.9-15.2-5-42.7-12-51.6C233.4,260.2,228.3,248.5,227.1,242.6z M199.5,332.8c-1.8,0-3.8-0.3-5.2-0.7c1.3-1,2.5-2.4,3.7-4.1
			c0.3-0.4,1.4-1,1.4-1.5c0,0.5,1.1,1.1,1.4,1.5c1.2,1.8,2.4,3.1,3.7,4.1C203.3,332.5,201.3,332.7,199.5,332.8z"/>
		<path class="st0" d="M206,300.3c-1.4-3.8,0.2-9.2,3.7-8.8c3.5,0.4,2.5,6.5,1.2,9.1c-1.3,2.6,0.2,8,6.2,6.7c6-1.3,8.1-11.1,7-14
			c-1-3-8.8-14-12.3-14.6c-3.5-0.5-12.4,2-12.4,2s-8.9-2.5-12.4-2c-3.5,0.5-11.3,11.6-12.3,14.6c-1,3,1,12.7,7.1,14
			c6,1.3,7.6-4,6.2-6.7c-1.3-2.6-2.3-8.6,1.2-9.1c3.5-0.4,5.1,4.9,3.7,8.8c-1.4,3.8-6,9-2.8,11.2c3.2,2.2,6.5,3.1,9.3,3.1
			c2.8,0,6.1-0.9,9.3-3.1C212,309.3,207.4,304.1,206,300.3z"/>
		<path class="st0" d="M224.4,340.9c-0.1,0.1-7.9,2.8-24.9,2.8c-17-0.1-24.8-2.7-24.9-2.8l-6.3-2.3c0.5,0.4,11.9,10,30.7,10.3v0
			c0.2,0,0.4,0,0.6,0c0.2,0,0.4,0,0.5,0v0c18.8-0.4,30.2-9.9,30.7-10.3L224.4,340.9z"/>
		<path class="st0" d="M225.8,229.6c0-0.2-1.4-28,8.1-39.9l-3.9,3.8c-10,15.5-7.8,31.6-7.7,32.6L225.8,229.6z"/>
		<path class="st0" d="M289.7,221.2l-0.2-3.4c-5.7-27.3-27.8-17.9-28.1-17.8l-3.2,1.1C259.2,201,285,198.5,289.7,221.2z"/>
		<path class="st0" d="M264.3,273.3c7.9,0,17.8-8.9,17.8-8.9l-7.4,3.3c-16.2,8.3-37.1-17.5-37.5-18.3l3,7
			C243.8,263.1,252.7,273.3,264.3,273.3z"/>
		<path class="st0" d="M245.1,245.2L245.1,245.2c0.2,0,0.4-0.1,0.6-0.1c1,0,3.1,0.8,10.8,5.7c3,1.9,6.4,2.7,9.6,2.7
			c6.8,0,13.4-3.5,16.7-7.5c4.3-5.2,6.9-13.2,6.9-13.2c-2.6,0-7.8-8.1-22.3-8.8c-0.3,0-0.5,0-0.8,0
			C252.7,224,244.8,245.2,245.1,245.2z M272.4,238.6c-1.9,0-3.5-1.6-3.5-3.5c0-1.9,1.6-3.5,3.5-3.5s3.5,1.6,3.5,3.5
			C275.9,237.1,274.3,238.6,272.4,238.6z M247.3,243.8c1.2-2.5,3.7-6.3,6.9-9.6c-0.4,1.3-0.6,2.6-0.6,4.1c0,4.5,2.2,8.5,5.5,11
			c-0.4-0.2-0.8-0.4-1.2-0.6C253.3,245.7,249.2,244.6,247.3,243.8z M285.3,235.7c-0.7,2.2-2,5.8-4.5,8.7c-0.7,0.8-1.5,1.6-2.5,2.3
			c1.9-2.4,3-5.3,3-8.5c0-2.6-0.7-5.1-2-7.1c1.8,1.1,3.2,2.3,4.4,3.3C284.2,234.9,284.7,235.3,285.3,235.7z"/>
	</g>
	<g>
		<path class="st1" d="M314.9,199.7c-1.7-0.3-3.5-1-5.3-1.8c-15.1-11.7-51.1-17.5-107.1-17.1c-1.2,0-2.2,0-3,0c-0.8,0-1.8,0-3,0
			c-56-0.4-92,5.4-107.1,17.1c-1.9,0.8-3.6,1.5-5.3,1.8c-5.3,1-12.8,3.2-12.8,3.2v12.4c0,0,6.8-0.4,8.5,3.9
			c1.8,4.4,3.2,22.4,8.1,33.1c6.7,14.3,17.5,26,36.7,28.4c21.1,2.6,36.6-2.5,48.6-13.8c14.6-13.7,15.5-33.4,13.7-50.3
			c0,0,4.7-2.3,12.6-2.3c7.9,0,12.6,2.3,12.6,2.3c-1.8,16.9-0.9,36.6,13.7,50.3c12,11.3,27.5,16.4,48.6,13.8
			c19.2-2.4,30-14,36.7-28.4c4.9-10.7,6.4-28.7,8.2-33.1c1.8-4.4,8.6-3.9,8.6-3.9v-12.4C327.8,202.9,320.1,200.7,314.9,199.7z
			 M174.8,255.5c-6.3,10.2-20.8,20.5-42.2,20.1c-21.3-0.5-31.6-9.6-38-21.8c-6.8-12.9-9.6-32.9-4.7-43.2
			c4.9-10.3,20.9-17.8,44.1-17.7c23.2,0.1,36.6,10.9,41.3,18.3C184.9,226.2,181.5,244.5,174.8,255.5z M199.4,207.5
			c-6.1,0-13.4,1.1-15,1.8c0,0-5.7-13.3-27.4-18.7c-10.6-2.7-20.1-3.5-28.5-3.3c17.6-2.7,40.3-4,67.9-3.9c1.2,0,2.2,0,3,0
			c0.8,0,1.8,0,3,0c27.6-0.2,50.3,1.1,67.9,3.9c-8.4-0.3-17.9,0.6-28.5,3.3c-21.7,5.4-27.4,18.7-27.4,18.7
			C212.8,208.6,205.6,207.5,199.4,207.5z M304.3,253.7c-6.5,12.2-16.7,21.3-38,21.8c-21.3,0.5-35.9-9.8-42.2-20.1
			c-6.7-11-10-29.3-0.4-44.4c4.7-7.4,18.1-18.1,41.3-18.3c23.2-0.1,39.2,7.4,44.1,17.7C313.9,220.8,311.1,240.8,304.3,253.7z"/>
	</g>
</g>
</svg>
