<?xml version="1.0" encoding="utf-8"?>
<!-- Generator: Adobe Illustrator 22.1.0, SVG Export Plug-In . SVG Version: 6.00 Build 0)  -->
<svg version="1.1" id="Capa_1" xmlns="http://www.w3.org/2000/svg" xmlns:xlink="http://www.w3.org/1999/xlink" x="0px" y="0px"
	 viewBox="0 0 120 110" style="enable-background:new 0 0 120 110;" xml:space="preserve">
<style type="text/css">
	.st0{opacity:0.9;fill:#171923;}
	.st1{opacity:0.4;}
	.st2{fill:#DD427E;}
</style>
<g>
	<path id="XMLID_76_" class="st0" d="M118.6,23.8c-0.2-1.1-1.4-1.2-2.3-1.3c-2.4-0.3-4.7-0.4-7.1-0.5c-3.1-0.1-6.5-0.1-9.8,0.3
		c-0.1,0-0.1,0-0.2,0c4.5-1,9-1.9,13.6-2.6c0.8-0.1,1-1.1,0.3-1.4c-4.9-2.4-10.8-2-16.2-1.6C89.5,17.2,82.2,18.3,75,20
		c-2,0.5-4,0.9-5.9,1.5c-0.2-0.8-0.4-1.7-0.5-2.5c-0.1-1.2-0.2-2.3-0.2-3.5c0.6-1.5,0.7-3.4-0.8-3.5c-1.1-0.1-1.2,1-1.3,1.8
		c-0.2,0.8-0.5,1.6-0.5,2.4c-0.3,0.8-0.4,1.7-0.6,2.6c-0.4,1.6-1.1,3.1-2,4.4c-0.2,0.3-1.7,0.6-2.1,0.7c-2.8,1-6,1.6-8.5,3
		c-0.1-1.3-0.2-2.7-0.3-3.9c-0.3-3.5-0.3-7.1-0.5-10.6c0-0.2,0-0.5,0-0.7c0-0.8-1.2-0.8-1.2,0c-0.1,5,0.9,10.3,0.1,15.3
		c-0.4,0.1-0.8,0.4-1.2,0.7c0,0,0,0-0.1,0c0.4-0.4,0.8-0.8,1-1.1c0-0.1,0-0.2-0.1-0.1c-0.5,0.1-1,0.4-1.4,0.7
		c0.2-0.2,0.4-0.4,0.6-0.5c0.1-0.1,0.1-0.3-0.1-0.3c-0.4,0.2-0.8,0.4-1.2,0.7c0.4-0.4,0.7-0.7,1.1-1.1c0.1-0.1,0-0.2-0.1-0.2
		c-0.6,0.1-1.3,0.5-1.8,1.1c-0.6,0.5-1.1,1-1.7,1.5c-0.1,0-0.2,0-0.3,0.1c0.3-0.4,0.7-0.7,1.1-1c0.1-0.1,0-0.3-0.1-0.3
		c-0.1,0.1-0.3,0.2-0.4,0.3c0.5-0.5,1-0.9,1.6-1.3c0.2-0.1,0-0.3-0.1-0.3c-0.7,0.3-1.3,0.7-1.8,1.2c0-0.1,0-0.2-0.1-0.2
		c-0.5,0.1-0.8,0.3-1.1,0.6c0.4-0.6,0.8-1.2,1.3-1.5c0.1,0,0-0.2-0.1-0.1c-1.2,0.5-1.8,1.5-2.3,2.6c-1.2,1.1-2.3,2.5-3.4,3.7
		c0,0.1-0.1,0.1-0.1,0.2c-1.8-1.8-3.7-3.6-5.4-5.6c-1.3-1.4-3.1-4.6-4.8-4.9c-1.2-0.2-1.9,0.9-1.7,2.4c-0.5,6.5-0.9,12.9-1.8,19.4
		c-0.6,5-1.5,9.9-2.2,14.8c0,0-0.1,0-0.1,0.1c0,0-0.1,0.1-0.1,0.1c0,0,0,0,0,0c-0.4,0.6-0.9,1.1-1.3,1.7c-0.8-0.4-1.5-1.1-2.5-1.9
		c-0.1-0.1-0.4,0.1-0.2,0.2c0.5,0.5,1.4,1.7,2.2,2.3c-1.9,2.4-3.9,4.6-6,6.7c-1.8,1.7-3.7,3.1-5.5,4.7c-0.2,0.1-0.2,0.4-0.1,0.6
		c0,0,0,0,0,0.1c-1.1,0.6-2.1,1.6-3.2,2.3c-1.5,0.9-3,1.3-4.6,1.9c-0.1,0.1-0.1,0.2-0.2,0.4C2.1,77.7,2,78,1.9,78.2
		c-0.4,0.9-0.4,1.9-0.3,2.9c0,0.1,0.1,0.1,0.1,0c0.1-0.9,0.2-1.8,0.9-2.3c0,0,0.1,0.1,0.1,0.1c1.5-0.3,3-1.2,4.3-2.1
		c1.1-0.8,2.6-1.7,3.5-3.1c0,0.1,0.1,0.2,0.1,0.3c0.1,0.2,0.3,0.3,0.4,0.2c1.9-1.5,3.8-3.4,5.4-5.2c2.1-2.3,4.1-4.9,5.9-7.7
		c0,0,0,0,0,0c1.2,0.2,3.2-0.5,4.3-0.8c2.9-0.7,5.6-2.3,8.4-3.2c0,0.4,0,0.7,0.1,1.1c0,0,0,0.1,0,0.1c0,0,0,0,0,0
		c0.1,0.3,0.2,0.6,0.3,0.9c0,0,0,0.1,0,0.1c0,0,0,0.1,0,0.1c0.1,0.2,0.1,0.4,0.2,0.6c-1.4,1-2.7,2.1-4.1,3.1
		c-1.1,0.8-2.2,1.8-3.5,2.2c-1.5,0.5-3.8-0.1-5.5-0.3c-0.1,0-0.2,0.2,0,0.2c1.5,0.3,3.3,0.9,4.8,0.9c1,0,1.6-0.5,2.5-1
		c2.1-1.3,4.2-2.8,6.2-4.3c0.3,0.5,0.6,1.1,1.1,1.4c0,0,0,0,0,0c0,0,0,0,0,0c-0.1,0.1,0.1,0.2,0.1,0.1c0,0,0,0,0,0c0,0,0,0,0,0
		c-1.5,1.8-3,3.7-4.2,5.8c-2.6,3.3-4.3,7.6-5.9,11.1c-0.2,0.3,0.3,0.6,0.5,0.3c3.4-5.2,6.5-13.2,13.3-14.4c0.1,0,0.1,0,0.2-0.1
		c0.2,0,0.5,0,0.8,0c0.9,0.1,1.8,0.1,2.6-0.4c0.8-0.5,1.3-1.3,1.5-2.2c0.1-0.1,0.2-0.3,0.3-0.4c1.4-1.7,0.9-4.4-0.2-6.4
		c0,0,0-0.1,0-0.2c0.1-0.9,0.8-2.4,0.7-3.5c0.5-0.3,1-0.6,1.5-0.9c0,0,0.1,0.1,0.1,0.1c0,3,0,5.9,0,8.9c0,3.4,0,6.8,0,10.3
		c0,1.6-0.1,3.2-0.1,4.8c0.1,0.1,0.3,0.2,0.5,0.2c0,4.1-1.4,8.3-0.5,12.3c0.1,0,0.2,0.1,0.3,0.1c-0.2,0.8-0.4,1.6-0.7,2.4
		c-0.5,1.5-0.8,3.3-1.8,4.6c-0.3,0.4-0.2,0.8,0.1,1c-0.3,0.5-0.5,1.1-0.8,1.5c-0.5,0.8-1.4,1.5-1.7,2.4c0,0.1,0,0.1,0,0.2
		c-0.1,0.1-0.3,0.3-0.4,0.4c-0.3,0.3-0.7,0.5-0.9,0.9c-0.5,0.9-0.1,1.5,0.5,2.3c0.1,0.1,0.3,0.1,0.3-0.1c0-0.3-0.2-0.6-0.3-0.9
		c-0.1-0.4-0.2-0.7,0.2-0.9c0.2-0.1,0.4-0.2,0.6-0.3c0.4-0.2,0.9-0.6,1.3-1c0.8-0.5,1.4-1.5,1.8-2.4c0.3-0.7,0.7-1.4,0.8-2.2
		c0,0,0,0,0,0c1.1-1.2,1.2-3.1,1.5-4.6c0.2-1.2,0.3-2.4,0.4-3.5c0.2,0,0.3-0.1,0.5-0.2c0.8-2.8,0.5-6,0.4-8.9c0-1.2,0-2.4-0.2-3.5
		c0.2-0.1,0.3-0.2,0.5-0.3c-0.1-1.5-0.2-3-0.3-4.4c-0.2-3.8-0.5-7.6-0.7-11.4c-0.1-2.4-0.1-4.8-0.1-7.2c1.1,0.5,2.4,0.7,3.8,0.8
		c0.4,0,0.7,0,1,0c0.2,1.2,0.4,2.4,0.6,3.6c0.1,1.2,0,2.6,0.4,3.8c0,2,0.1,4.1,0.2,6.1c0.1,1.3,0.3,2.7,0.4,4c0,0.7-0.1,1.1,0.5,1.5
		c0.4,0.3,0.7-0.3,0.3-0.6c-0.6-0.5-0.5-2.8-0.6-3.6c-0.1-1.1-0.2-2.2-0.3-3.2c-0.1-1.2-0.2-2.4-0.3-3.7c0.1,0.1,0.4,0,0.3-0.2
		c-0.5-1.6-0.4-3.4-0.7-5.1c-0.1-0.9-0.3-1.8-0.5-2.7c0.2,0,0.4,0,0.6,0c0,1.7,2.1,3.2,3.6,3.5c0.1,0,0.2,0,0.2,0
		c0.5,0.8,1.9,0.9,2.2-0.3c0.1-0.6,0.3-1.1,0.5-1.7c0.2,0.1,0.5,0.1,0.8-0.1c1-0.4,1.9-0.9,2.7-1.4c-0.1,1.4-0.1,2.8-0.2,4.2
		c-0.2,6.7-0.1,13.9,1.1,20.6c-0.4,0.2-0.6,0.7-0.3,1.3c2.9,5.4,5.4,10.6,8.9,15.7c2.7,3.9,5.3,8.8,9.8,10.8c0,0,0,0,0,0.1
		c0.7,0.6,1.4,1,1.7,1.9c0.3,0.8,0.1,1.6,0.4,2.4c0,0.1,0.2,0.1,0.2,0c-0.2-1.1,0.3-2.2,0.2-3.3c-0.1-0.6-0.3-1.2-0.7-1.7
		c0.1-0.5,0-1-0.6-1.2c-4.9-2.3-7.8-6.4-10.8-10.7c-2.8-4-6-8.5-7-13.4c-0.1-7.2-0.5-14.5-0.8-21.7c-0.1-1.5-0.1-2.9-0.1-4.4
		c0.7,0.4,1.5,0.8,2.2,1c0.7,0.2,1.2,0.1,1.6-0.2c1.8,2.2,4.4,3.9,7.4,4.2c0,0,0.1,0,0.1,0c0.4,5.5,1.1,10.9,1.9,16.3
		c-0.6,0-1.2,0.5-0.9,1.1c1.2,3.1,4.3,4.6,7.3,5.7c3.2,1.2,6.6,2,10.1,2.6c1.8,0.6,3.7,1.1,5.5,1.6c0.2,0.1,0.4,0,0.6,0
		c0.4,0.5,1.3,0.5,1.9,0.5c0.8,0.1,1.3,0.2,1.6,1c0.3,0.7,0.5,1.5,0.7,2.3c0,0,0.1,0,0,0c-0.1-0.9-0.1-1.8-0.3-2.8
		c-0.1-0.5-0.2-1-0.6-1.3c-0.4-0.3-1-0.5-1.5-0.5c-0.4-0.1-0.8-0.2-1.3-0.2c-0.1-0.4-0.3-0.7-0.9-0.7c-2.7-0.1-5.3-0.6-7.8-1.2
		c-1.7-0.5-3.5-1-5.2-1.7c-3.5-1.3-5.8-3.2-8.3-5.8c-0.5-5.7-0.9-11.4-1.1-17.1c0.9,0.5,1.8,0.8,2.7,1.1c1.4,0.4,3.8,1.2,5.3,0.6
		c0.4-0.2,0.8-0.5,1.1-0.9c0,0,0.1,0,0.1,0c0.8,0.2,1.6,0.4,2.5,0.5c1.2,0.1,2.8,0.4,4-0.1c0.4-0.2,0.7-0.4,0.9-0.7
		c1.2,0.3,2.6,0.3,3.6-0.2c0.5-0.3,1-0.8,1.4-1.3c0,0,0.1,0,0.1,0c1.1-0.1,2.1-0.4,3-1.2c0.1-0.1,0.3-0.2,0.4-0.4
		c1.3-0.8,2.6-1.9,3.9-3.1c0.8-0.8,0.1-1.9-0.8-2c-2.2-0.3-4.4-0.9-6.6-1.7c-0.1-0.4-0.3-0.7-0.5-1c-0.8-0.9-2.5-1.3-3.6-1.6
		c-0.5-0.1-1.1-0.3-1.6-0.4c-0.2-0.5-0.4-1-0.7-1.4c-0.9-1.1-2.4-2.2-4-2.8c-0.7-2.4-3.2-4-5.9-4.8c-0.9,0.1-1.8,0.2-2.7,0.3
		c-0.9,0.1-1.7,0.2-2.6,0.2c0-0.1,0-0.2,0-0.2c0-0.2,0-0.4,0-0.7c6.9-0.9,13.9-1.8,20.7-3.4c3.6-0.8,7.3-2.1,10.7-3.8
		C112.6,28.6,118.9,25.9,118.6,23.8z M42.6,59.7c0.3,0.2,0.6,0.4,0.8,0.7c-0.3-0.2-0.6-0.3-0.9-0.5C42.5,59.8,42.6,59.7,42.6,59.7z
		 M43.3,60.6c-0.1,0.1-0.3,0.2-0.4,0.3c-0.3-0.2-0.7-0.4-1-0.5c0.1-0.1,0.2-0.2,0.4-0.4C42.7,60.2,43,60.4,43.3,60.6z M41.9,61.5
		c-0.3-0.1-0.6-0.3-0.9-0.4c0.2-0.1,0.3-0.3,0.5-0.4c0.3,0.2,0.6,0.4,0.9,0.5C42.3,61.3,42.1,61.4,41.9,61.5z M42.2,62.4
		c-0.1,0.1-0.2,0.1-0.3,0.2c-0.2-0.1-0.3-0.2-0.5-0.2c0.1-0.1,0.2-0.1,0.3-0.2C41.9,62.2,42.1,62.3,42.2,62.4z M38.5,60.1
		c0.2,0.1,0.4,0.3,0.6,0.4c-0.1,0.2-0.3,0.3-0.4,0.5c-0.2-0.1-0.5-0.3-0.7-0.4C38.1,60.4,38.3,60.2,38.5,60.1z M37.6,60.4
		c0,0-0.1-0.1-0.1-0.1c0.2-0.2,0.4-0.3,0.6-0.5c0,0,0,0,0,0C38,60,37.8,60.2,37.6,60.4z M40.2,61.2c-0.1,0.1-0.2,0.2-0.3,0.3
		c-0.3-0.1-0.6-0.3-0.9-0.4c0.1-0.1,0.3-0.3,0.4-0.4C39.6,60.8,39.9,61,40.2,61.2z M39.6,60.4c0,0,0.1-0.1,0.1-0.1
		c0.1-0.1,0.3-0.3,0.4-0.4c0.3,0.2,0.6,0.4,0.9,0.6c-0.2,0.1-0.3,0.3-0.5,0.4C40.3,60.7,39.9,60.6,39.6,60.4z M38.8,61.2
		c0.2,0.1,0.4,0.2,0.6,0.3c0.1,0.1,0.2,0.1,0.3,0.2c-0.2,0.1-0.3,0.3-0.5,0.4c-0.3-0.2-0.5-0.3-0.8-0.5
		C38.6,61.5,38.7,61.4,38.8,61.2z M40.1,61.9c0.2,0.1,0.4,0.3,0.7,0.4c-0.2,0.1-0.4,0.2-0.6,0.4c-0.2-0.1-0.4-0.2-0.6-0.3
		C39.8,62.2,40,62.1,40.1,61.9z M40.5,61.8c-0.1,0-0.1-0.1-0.2-0.1c0.1-0.1,0.2-0.2,0.3-0.3c0.2,0.2,0.5,0.3,0.8,0.4
		c-0.1,0.1-0.2,0.1-0.3,0.2C40.9,62,40.7,61.9,40.5,61.8z M42.3,59.5c0,0-0.1,0.1-0.1,0.1c-0.2-0.1-0.3-0.2-0.5-0.3
		C41.9,59.4,42.1,59.5,42.3,59.5z M40.9,59.3c0.1,0,0.3,0,0.4,0c0.2,0.2,0.5,0.3,0.7,0.4c-0.1,0.1-0.3,0.2-0.4,0.3
		c-0.3-0.2-0.7-0.3-1-0.5C40.6,59.5,40.7,59.4,40.9,59.3z M40.3,59.3c0,0-0.1,0.1-0.1,0.1c-0.1,0-0.2-0.1-0.3-0.1
		C40,59.3,40.2,59.3,40.3,59.3z M39.8,59.7c-0.2,0.2-0.4,0.4-0.5,0.5c-0.2-0.1-0.4-0.2-0.6-0.3c0.1-0.1,0.1-0.1,0.2-0.2
		c0.1-0.1,0.3-0.2,0.4-0.3C39.5,59.5,39.7,59.6,39.8,59.7z M35.5,58.2c0-0.2-0.1-0.4-0.1-0.6c0.1,0.1,0.2,0.3,0.3,0.4c0,0,0,0,0,0
		C35.7,58.1,35.6,58.2,35.5,58.2z M35.6,58.6c0-0.1,0-0.2-0.1-0.2c0.1-0.1,0.2-0.1,0.3-0.2c0,0,0,0,0,0c0.1,0.1,0.1,0.2,0.2,0.3
		c-0.1,0.1-0.1,0.2-0.2,0.3c0,0,0,0,0,0C35.8,58.7,35.7,58.7,35.6,58.6z M36.1,58.6c0,0.1,0.1,0.2,0.1,0.2c0,0,0,0.1,0,0.1
		c-0.1,0-0.2-0.1-0.3-0.1C36,58.8,36.1,58.7,36.1,58.6z M36.2,60.1C36.2,60.1,36.2,60.1,36.2,60.1c-0.1-0.2-0.1-0.3-0.2-0.4
		c0.1,0.1,0.3,0.2,0.4,0.3C36.3,60,36.3,60.1,36.2,60.1z M36.5,59.7c-0.2-0.1-0.4-0.2-0.5-0.3c0,0,0.1-0.1,0.1-0.1
		c0-0.1,0-0.1-0.1-0.1c-0.1,0-0.1,0.1-0.2,0.1c-0.1-0.1-0.1-0.3-0.1-0.4c0.2,0.1,0.5,0.3,0.7,0.4C36.4,59.4,36.5,59.6,36.5,59.7
		C36.5,59.7,36.5,59.7,36.5,59.7z M35.3,56.5c-1.9,0.6-3.7,1.7-5.6,2.4c-1.7,0.7-3.4,1.2-5.2,1.6c-0.6,0.1-1.2,0.1-1.6,0
		c0.2-0.4,0.5-0.7,0.7-1.1c0,0.2,0,0.3-0.1,0.5c0.3,0.1,0.7,0,1-0.3c0.2-0.2,0.3-0.4,0.5-0.6c1.3-4.9,1.6-10.6,2.2-15.5
		c0.7-6.1,1.4-12.5,1-18.7c0.2,0,0.4,0,0.5-0.2c0.9-1.1,7.9,7.7,8.9,8.8c0.2,0.2,0.4,0.4,0.5,0.6c0,0-0.1,0.1-0.1,0.1
		c-0.5,0.7-1.3,1.6-1.2,2.6c-0.3,0.4-0.6,0.7-0.9,1.1c-0.4,0.6-0.7,1.6-0.5,2.3c-0.8,1-1.5,2.4-1.4,3.6c-0.9,1.7-1,4.2,0.5,5.2
		c0,0,0,0,0.1,0c0,0,0,0,0,0c0.4,1.2,1,2.5,2.2,3c0.3,0.1,0.6,0,0.7-0.3c0.4,0.5,1,1,1.7,1c0.1,0.1,0.3,0.1,0.5,0.2
		c-0.3,0-0.5,0.1-0.8,0.1c-0.1,0-0.2,0.1-0.3,0.2c-0.1,0-0.2,0-0.3,0C37.4,53.9,35.6,55.1,35.3,56.5z M37.3,60.7
		c0-0.1,0-0.2-0.1-0.3c0,0,0.1,0,0.1-0.1c0,0,0.1,0.1,0.1,0.1C37.4,60.6,37.4,60.6,37.3,60.7z M37.8,60.7c0.2,0.1,0.5,0.3,0.7,0.4
		c-0.1,0.1-0.2,0.2-0.3,0.4c-0.2-0.2-0.5-0.3-0.7-0.4C37.6,60.9,37.7,60.8,37.8,60.7z M38.8,62.6c-0.2-0.2-0.5-0.4-0.7-0.6
		c0,0,0,0,0.1-0.1c0.3,0.2,0.5,0.3,0.8,0.5C38.9,62.4,38.8,62.5,38.8,62.6z M39.6,63c-0.2-0.1-0.3-0.1-0.5-0.2
		c0.1-0.1,0.2-0.1,0.2-0.2c0.2,0.1,0.3,0.2,0.5,0.3C39.8,62.9,39.7,63,39.6,63z M40,63.2c0.1,0,0.1-0.1,0.2-0.1
		c0.2,0.1,0.3,0.2,0.5,0.3C40.5,63.3,40.2,63.3,40,63.2z M41.1,63.2c-0.2-0.1-0.4-0.2-0.5-0.3c0.2-0.1,0.4-0.2,0.6-0.4
		c0.2,0.1,0.3,0.2,0.5,0.3C41.5,62.9,41.3,63,41.1,63.2z M41.5,63.4c0.2-0.1,0.4-0.2,0.6-0.4c0.1,0,0.2,0.1,0.3,0.1
		C42,63.3,41.8,63.3,41.5,63.4z M42.6,63c-0.1-0.1-0.2-0.1-0.3-0.2c0.1-0.1,0.2-0.2,0.3-0.2c0.1,0,0.2,0.1,0.3,0.1
		C42.8,62.8,42.7,62.9,42.6,63z M42.8,61.9c-0.2-0.1-0.3-0.1-0.5-0.2c0.1-0.1,0.3-0.2,0.4-0.3c0.2,0.1,0.3,0.2,0.5,0.3
		C43.1,61.7,42.9,61.8,42.8,61.9z M43.6,61.2c-0.1-0.1-0.3-0.2-0.4-0.2c0.1-0.1,0.2-0.2,0.3-0.3c0,0,0,0,0-0.1c0,0,0.1,0,0.1,0.1
		C43.6,60.9,43.6,61,43.6,61.2z M44.4,28.1c0-0.1,0.1-0.2,0.1-0.2c0,0,0-0.1,0-0.1c0.2-0.3,0.5-0.6,0.9-0.7
		C45.1,27.4,44.7,27.8,44.4,28.1z M51.7,27.4c-0.3,0.2-0.5,0.3-0.8,0.5c0.1-0.1,0.2-0.2,0.2-0.3c0.1-0.1,0-0.3-0.2-0.2
		c-0.1,0-0.1,0.1-0.2,0.1c0,0,0,0,0-0.1c0.1-0.1,0.2-0.2,0.3-0.4c0.1-0.1,0-0.3-0.1-0.2c0,0,0,0,0,0c0.2-1.2,0.3-2.4,0.4-3.6
		c0,0.5,0.1,1,0.1,1.5C51.6,25.6,51.7,26.5,51.7,27.4C51.7,27.3,51.7,27.4,51.7,27.4z M60.1,51.9c-0.2-0.3-0.5-0.7-0.8-1
		c0.2-0.2,0.4-0.5,0.7-0.8c0.5-0.7,1-1.5,1.3-2.3c0,0,0,0,0,0C60.9,49.1,60.5,50.5,60.1,51.9z M63.5,38.7c0.1,0,0.2,0,0.3,0
		c0,0.1-0.1,0.2-0.1,0.3c0,0-0.1,0-0.1,0C63.4,38.9,63.3,38.7,63.5,38.7z M62.5,52c0.2-0.7,0.4-1.4,0.6-2c0.3,0.4,0.7,0.7,1,1.1
		C63.7,51.4,63.1,51.7,62.5,52z M64.5,22.7c0.7-0.7,1.3-1.5,1.8-2.5c0.3-0.7,0.7-1.5,1-2.3c0.1,0.4,0.2,0.8,0.3,1.2
		c0.2,0.8,0.4,1.7,0.7,2.6C67,22,65.7,22.4,64.5,22.7z M69.9,38.2c-1,0.1-2,0.2-2.9,0.3c0-0.1,0-0.2,0-0.4c1.1-0.2,2.1-0.3,3.2-0.4
		C70.1,37.9,70,38.1,69.9,38.2z M73.7,37.9c0.1-0.2,0.3-0.5,0.4-0.7c0.7-0.1,1.5-0.2,2.2-0.3c0,0.2,0.1,0.5,0.1,0.7
		C75.5,37.8,74.6,37.8,73.7,37.9z"/>
	<g class="st1">
		<path class="st2" d="M62.5,1.1c-26,0-47.2,21.2-47.2,47.2c0,26,21.2,47.2,47.2,47.2c26,0,47.2-21.2,47.2-47.2
			C109.8,22.3,88.6,1.1,62.5,1.1z M100.6,48.4c0,7.7-2.3,14.8-6.2,20.8L36.8,20.3c6.8-6.2,15.8-10.1,25.7-10.1
			C83.5,10.3,100.6,27.4,100.6,48.4z M24.5,48.4c0-7.8,2.4-15.1,6.5-21.2l57.6,48.9c-6.8,6.4-16,10.4-26.1,10.4
			C41.6,86.4,24.5,69.3,24.5,48.4z"/>
		<rect x="57.6" y="1" class="st2" width="4.9" height="0.1"/>
	</g>
</g>
</svg>
