<?xml version="1.0" standalone="no"?>
<!DOCTYPE svg PUBLIC "-//W3C//DTD SVG 20010904//EN"
 "http://www.w3.org/TR/2001/REC-SVG-20010904/DTD/svg10.dtd">
<svg version="1.0" xmlns="http://www.w3.org/2000/svg"
 width="16.000000pt" height="16.000000pt" viewBox="0 0 16.000000 16.000000"
 preserveAspectRatio="xMidYMid meet">
<metadata>
Created by potrace 1.11, written by Peter Selinger 2001-2013
</metadata>
<g transform="translate(0.000000,16.000000) scale(0.005333,-0.005333)"
fill="#000000" stroke="none">
<path d="M1325 2983 c-233 -31 -465 -117 -651 -242 -98 -65 -204 -154 -217
-181 -6 -12 0 -48 18 -106 15 -49 31 -102 35 -119 5 -16 20 -69 34 -117 14
-49 37 -125 50 -170 14 -46 61 -207 106 -358 45 -151 82 -281 82 -287 1 -7 4
-13 8 -13 3 0 6 -8 7 -17 2 -22 4 -31 28 -108 10 -33 19 -64 21 -70 4 -21 66
-232 79 -270 8 -26 15 -35 19 -25 3 8 15 42 26 75 12 33 25 69 30 80 5 11 35
90 66 175 31 85 84 232 119 325 35 94 98 265 140 380 42 116 80 219 86 230 19
43 37 103 32 109 -4 3 -2 6 4 6 8 0 18 24 38 90 1 3 5 14 10 25 24 58 47 121
49 132 1 7 5 15 8 18 7 7 237 9 244 2 4 -4 -17 -69 -43 -137 -4 -8 -7 -17 -8
-20 -1 -3 -5 -14 -10 -25 -4 -11 -21 -56 -37 -100 -26 -72 -40 -108 -64 -170
-4 -11 -8 -24 -9 -30 0 -5 -3 -14 -7 -20 -3 -5 -54 -140 -113 -300 -58 -159
-111 -299 -115 -310 -20 -44 -112 -301 -113 -312 0 -7 -4 -13 -9 -13 -4 0 -8
-5 -8 -11 0 -10 -166 -468 -190 -524 -5 -11 -16 -41 -26 -68 -9 -26 -19 -48
-23 -48 -3 -1 -51 -2 -106 -4 l-101 -2 -28 96 c-15 53 -42 141 -59 196 -17 55
-31 105 -32 110 -1 6 -3 12 -4 15 -1 3 -4 16 -7 29 -2 14 -9 30 -14 36 -5 7
-7 15 -3 18 3 4 0 13 -7 22 -7 8 -10 15 -7 15 3 0 -3 26 -14 57 -11 32 -21 66
-24 78 -8 35 -22 83 -100 345 -72 238 -100 334 -109 370 -3 8 -5 15 -6 15 -1
0 -3 7 -5 15 -3 19 -43 157 -55 190 -4 14 -11 34 -15 45 -4 11 -9 27 -10 35
-1 8 -12 49 -24 90 -13 41 -25 81 -27 89 -9 27 -110 -157 -157 -284 -75 -202
-96 -333 -92 -560 1 -93 6 -183 9 -200 4 -16 11 -52 16 -80 34 -172 135 -401
246 -556 74 -105 235 -266 342 -342 155 -111 394 -218 554 -247 29 -6 64 -12
77 -15 115 -22 407 -22 474 0 7 2 30 7 52 10 218 32 480 158 687 332 66 56 76
68 69 87 -5 11 -9 26 -10 31 -2 14 -38 135 -73 250 -17 55 -33 107 -34 115 -5
32 -47 166 -55 176 -5 6 -6 13 -3 17 3 3 1 14 -5 25 -5 10 -12 30 -15 43 -8
37 -13 56 -47 169 -17 58 -32 110 -34 115 -2 12 -8 28 -24 75 -7 19 -14 42
-15 50 -1 8 -8 35 -15 60 -7 25 -14 50 -16 55 -1 6 -5 17 -8 25 -5 12 -16 50
-32 110 -7 25 -28 98 -33 110 -3 8 -6 20 -7 25 -2 6 -12 44 -24 85 -12 41 -25
84 -28 94 -6 23 -17 1 -64 -134 -16 -47 -33 -94 -38 -105 -5 -11 -21 -54 -36
-95 -15 -41 -33 -89 -41 -107 -8 -17 -14 -35 -14 -40 0 -5 -14 -44 -31 -88
-17 -44 -32 -84 -33 -90 -2 -5 -7 -21 -13 -35 -6 -14 -25 -65 -43 -115 -18
-49 -37 -101 -43 -115 -6 -14 -11 -29 -13 -35 -3 -14 -173 -475 -184 -500 -5
-11 -23 -58 -40 -105 l-32 -85 -120 2 c-67 2 -123 4 -125 6 -2 2 4 20 12 40 8
21 12 37 8 37 -5 0 -2 4 5 8 7 5 14 17 17 28 5 22 51 149 65 179 5 11 32 85
61 165 28 80 57 156 62 170 6 14 12 30 12 35 1 6 7 24 14 40 17 40 112 287
115 300 2 6 6 19 10 30 26 69 47 124 57 150 7 17 13 35 15 42 1 6 16 46 32 90
17 43 50 130 73 193 23 63 47 126 52 140 6 14 11 27 12 30 1 3 4 12 8 20 20
52 59 167 60 178 0 6 3 12 7 12 8 0 36 92 31 99 -1 2 1 7 6 10 5 3 17 26 26
52 l17 45 100 -1 c56 -1 104 -6 109 -11 7 -8 31 -81 37 -112 2 -13 29 -106 44
-152 4 -14 17 -56 28 -95 34 -118 73 -248 85 -285 6 -19 11 -37 12 -40 3 -24
30 -108 38 -117 5 -7 7 -13 4 -13 -3 0 -2 -12 3 -27 4 -16 20 -66 33 -113 14
-47 58 -193 97 -325 39 -132 73 -247 75 -255 2 -8 18 -62 35 -120 18 -58 35
-118 40 -135 24 -84 20 -83 57 -24 80 128 160 326 188 466 8 43 17 92 21 108
10 51 12 316 3 383 -28 199 -68 333 -149 494 -179 355 -483 616 -865 744 -96
31 -117 37 -194 50 -18 3 -43 8 -55 11 -26 7 -350 12 -391 6z"/>
</g>
</svg>
