<svg xmlns="http://www.w3.org/2000/svg" viewBox="0 0 800 800"><path d="M303.9 345c8.9 0 16.2 7.2 16.2 16.2 0 2.9-.8 5.6-2.2 8h146.9c.1-.4.3-.8.4-1.2-6 2.4-8.9-3.1-9.7-10.9-.8-8-.6-15.3-4.3-22.7-4.3-8.7-13.5-13.7-21.7-18.1-22.8-12.4-47.7-20.1-73.7-21.7-14.6-.8-30 .1-44 4.8.2 3.6.1 7.2-.8 10.8-1.3 5.4-4.4 11-7.2 15.7-.7 1.2-2.9 1.1-3.1-.4-.1-.7-.2-1.3-.4-2-6.5 8-7.2 19.5-10.1 29.2 2.8-4.6 7.9-7.7 13.7-7.7zm-53.3 245.4c-.3.6-.7 1.2-1 1.8h2.6c-.6-.6-1.1-1.2-1.6-1.8zm-43-8.2c-1.4.2-2.9.3-4.4.2-2.5-.2-4.9-.8-7-1.9-1 2.9-2.8 5.5-5.1 7.4.9 1.3 1.6 2.7 2.1 4.2h17.6c-1.7-2.9-2.9-6.2-3.2-9.9z" fill="none"/><path d="M165.1 600.2c-2.9 1.1-6.1 1.6-9.4 1.4-1.1-.1-2.2-.3-3.3-.5v9.6h22.8c-5-1.5-8.8-5.5-10.1-10.5zm102-6.5c-5.1 3.3-10.9 2.3-14.9-1.5h-2.6c-4.3 7.1-12.2 11.6-21 11-7.6-.6-14-4.9-17.7-11h-17.6c.6 1.7.8 3.6.7 5.5-.5 6.3-4.9 11.3-10.6 13h52.3L173.6 788H193l84.5-168.1h221L582.9 788h19.4l-62.1-177.4h68.6v-18.5h-340c-.5.6-1.1 1.1-1.7 1.6zm422.8-224.6H517.8c-.1-6.5.4-13 .8-19.4.7-10 .7-21.8 5.6-31 1.8 3.2 3.6 6.1 6.6 8.4 1.1.9 2.5-.3 2.6-1.5.5-6.3-.7-13.5 1.8-19.4 1.9 3 3.5 6.1 6.2 8.6 1.2 1.1 2.8.2 2.9-1.2 1.3-14.2 1.4-33.5 13.2-43.9 1.2 4.3 3.3 8 7.3 10.4 1.1.7 2.6-.2 2.6-1.5.3-16.1 12.8-28.6 12.6-44.8 0-1.1-.8-1.6-1.6-1.6-22.9-15-15.9-46.7-5.9-67.5 3.3-6.9 14.2-36.8 24.6-27 2.2 2.1 5 5.3 7.6 4.1 2.5 3.7 4 8.6 8.3 10.4 2.8 1.2 5.1-2.9 6.8-5.9 1.6 3.8 3.9 6.6 7.9 9 .8.5 1.8.2 2.3-.6.6-.9 1.1-1.8 1.7-2.8 0 10.7 1.6 22.4 9.8 29.3.9.8 2 .6 2.7-.3 1.3-1.8 2.3-3.8 3.5-5.7.7 2.5 1.3 5.1 2.2 7.6.3 1 1.6 1.7 2.5 1 3-2.1 4.5-4.8 6.4-7.6.8 5.3 1.1 10.6 4 15.5.7 1.2 2.3 1.1 3 0 6.6-9.9 8.3-22 13.4-32.6.5 1.1.8 2.2 1 3.4.4 1.3 2.5 1.8 3.1.4 2.2-4.9 3.6-9.9 4.5-15.2.7-4.6 0-9.1 5.2-10.5 1.1-.3 1.5-1.5 1-2.5-4.5-9.1-5.5-17.8-6.5-27.8-.1-1-.2-2-.4-3 4.7-4 5.9-9.3-.9-15-3.9-3.3-8.2-5.2-13.1-6.4-4.6-1.1-15.9-2.5-17.2-8.1 1.1.4 2.3-.4 2.3-1.6-.1-2.8-.3-4.1-.6-6.4 1.7.7 3.5 1.5 5 2 1 .4 2.2-.6 2.2-1.7-.4-8.2-4.3-14.2-11.7-17.8-8.1-3.8-16.1-.4-24.3 1-5.9 1-9.7-.2-13.5-4.8-.9-1.1-1.9-2.4-3.1-3.2-3.8-2.4-7.9-3.3-12.3-3.4-8.2-.1-20.8-.1-22.3-11-.7-5.1.2-10.2.4-15.3.1-1.1-.8-1.6-1.6-1.6-.6-.7-1.6-1-2.4-.1-7.4 7.9-13.6 16.8-17.7 26.9-4.2 10.3-9.2 20.7-12.6 31.3-2.3 3.8-4.4 7.6-6.3 11-4.8 8.3-9.5 17-17 23.1-8.4 6.8-17 13.2-25.5 19.9-9.2 7.3-18.2 14.7-27.4 22-9.7 7.7-17.5 12.5-29.9 14.2-22.3 3.1-44.5 6.4-67.1 6.3-12 0-23.9-.6-35.8-2.2-10.3-1.4-20.5-3.7-30.9-4.2-16.7-.9-34.1 3-47.4 13.7-2.3 1.9-4.4 4-6.4 6.1-4.2-4.4-7.2-9.8-8.4-16.1-1.6-8.6 2.3-17 .4-25.3-3.9-16.8-20.9 6.6-23.9 11.7-9 15.2-10.6 33.6-4.6 50.3 3.1 8.6 9.2 14.3 16.4 18.6-2 2.3-4.1 4.4-6.3 6.4-4.8 4.3-10.5 8.9-12.3 15.4-2.4 8.8-1.5 17.7-1.6 26.7-.1 13.5-1.6 25.6-7.1 38-4.2 9.4-8.1 19-12.4 28.4-1.8 4-4 8.4-6.4 12.5 1.4.6 2.7 1.2 3.9 2 3.2-2.6 7.4-4 11.8-3.6 1.6.1 3.1.5 4.6 1 2.1-9.1 10.5-15.5 20.1-14.8 8.6.6 15.5 6.8 17.3 14.8 2.7-.9 5.6-1.2 8.6-1 8.7.6 16 6.2 19.2 13.7-1.3-3.1 7.4-3.6 8.7-3.5 4.1.3 7.6 1.8 10 4.2.4-2 1.1-3.8 2.1-5.4 3-9.7 3.6-21.3 10.1-29.2.1.7.3 1.3.4 2 .3 1.5 2.4 1.6 3.1.4 2.8-4.8 5.9-10.3 7.2-15.7.9-3.7.9-7.2.8-10.8 14-4.6 29.4-5.6 44-4.8 26 1.5 50.9 9.2 73.7 21.7 8.1 4.4 17.4 9.4 21.7 18.1 3.7 7.5 3.5 14.7 4.3 22.7.7 7.8 3.6 13.3 9.7 10.9-.1.4-.2.8-.4 1.2H317.9c-2.8 4.9-8 8.2-14 8.2-5.2 0-9.8-2.5-12.8-6.4-.8 3.5-2.8 6.6-5.8 8.6-5.8 3.8-12.5 2-16.5-3.3-3.9 8.1-12.5 13.4-22 12.7-11.3-.8-20.1-9.9-20.9-20.9-1.4.2-2.9.3-4.4.2-2.5-.2-4.9-.8-7-1.9-1 2.9-2.8 5.5-5.1 7.4 2 2.7 3 6.1 2.8 9.7-.6 8.1-7.6 14.1-15.7 13.6-6.5-.5-11.6-5.1-13.1-11-2.9 1.1-6.1 1.6-9.4 1.4-9.4-.7-17-7.3-19.5-15.9-4.9 4.6-11.7 7.2-18.9 6.7-7.1-.5-13.3-4-17.5-9H90.2c-23.9 0-43.5 19.6-43.5 43.5H76l15.3 103.1c2 12.4 6.1 23.3 12 32.4 4.8-3.9 11.1-6.1 17.8-5.6 4.3-7.6 12.6-12.4 21.9-11.8 12.8.9 22.4 12 21.4 24.8-.1 1.2-.3 2.4-.5 3.5 2 .6 3.9 1.6 5.6 2.7 3.2-2.6 7.4-4 11.8-3.6 1.6.1 3.1.5 4.6 1 2.1-9.1 10.5-15.5 20.1-14.8 8.6.6 15.5 6.8 17.3 14.8 2.7-.9 5.6-1.2 8.6-1 8.7.6 16 6.2 19.2 13.7-1.3-3.1 7.4-3.6 8.7-3.5 6.1.4 10.9 3.6 12.8 8.6h349.1c36.9 0 60.4-24 67.2-61.1l15.3-103.1h29.3c-.1-24.1-19.7-43.7-43.6-43.7zm-487.3 72.1c-.7 3.7-3.7 6.8-7.5 7.5-6.7 1.3-12.5-4.5-11.2-11.2.7-3.7 3.7-6.8 7.5-7.5 6.7-1.2 12.5 4.5 11.2 11.2zm26.8-25.3c-1 5.4-5.4 9.8-10.8 10.8-9.7 1.8-18.1-6.5-16.2-16.2 1-5.4 5.4-9.8 10.8-10.8 9.7-1.9 18.1 6.5 16.2 16.2z" fill="#fff"/></svg>