<svg xmlns="http://www.w3.org/2000/svg" viewBox="0 0 800 800"><path d="M535 367.5c6.2-6.5 6-16.8-.5-23-6.5-6.2-16.8-6-23 .5l-.6.6c-19.2-13.4-42.5-21.4-67.7-21.4H189.7v-7.9L81.9 282.4v-19.1c0-3.6-2.9-6.5-6.5-6.5H61.2c-3.6 0-6.5 2.9-6.5 6.5v26.2H16.5c-4.9 0-8.9 4-8.9 8.9s4 8.9 8.9 8.9h38.2v22.3H16.5c-4.9 0-8.9 4-8.9 8.9s4 8.9 8.9 8.9h38.2v22.3H16.5c-4.9 0-8.9 4-8.9 8.9s4 8.9 8.9 8.9h38.2v22.3H16.5c-4.9 0-8.9 4-8.9 8.9s4 8.9 8.9 8.9h38.2v22.3H16.5c-4.9 0-8.9 4-8.9 8.9s4 8.9 8.9 8.9h38.2v26.2c0 3.6 2.9 6.5 6.5 6.5h14.2c3.6 0 6.5-2.9 6.5-6.5v-19L189.8 441v-6.6c26.5 3.5 76.6 10.2 135.9 17.9 3.6 44.6 32.1 82.2 71.5 99v32.2c0 18.7-7.6 20.5-7.6 33.1 0 12.6 7.6 10.8 7.6 30.7s-8.1 16.3-7.5 33.7c.6 17.5 7.5 16.9 7.5 33.7v40.4H427v20.8c0 9 7.3 16.3 16.3 16.3s16.3-7.3 16.3-16.3V755h29.8V551.1c42.3-18 72-59.9 72-108.7 0-28.3-10-54.2-26.6-74.6l.2-.3zm-19.7 63.1l-23.5 4.1-.3-2 23.5-4.1.3 2zm-3.8-14.2l.7 1.9-22.4 8.1-.7-1.9 22.4-8.1zm-4.5-9.7l-20.6 11.9-1-1.8 20.6-11.9 1 1.8zm-7.2-10.5l-18.3 15.3-1.3-1.6 18.3-15.3 1.3 1.6zM491 387l-15.3 18.2-1.6-1.3 15.3-18.3 1.6 1.4zm-10.4-7.4l-11.9 20.6-1.8-1 11.9-20.6 1.8 1zm-38.4-10.3h2v23.8h-2v-23.8zm-10.6.9l4.1 23.5-2 .4-4.1-23.5 2-.4zm-24 8.4l11.9 20.6-1.8 1-11.9-20.6 1.8-1zm-10.5 7.1l15.3 18.3-1.6 1.3-15.3-18.3 1.6-1.3zm-9.1 8.9l18.3 15.3-1.3 1.6-18.3-15.3 1.3-1.6zm-7.5 10.3l20.6 11.9-1 1.8-20.6-11.9 1-1.8zm-5.5 11.5l22.4 8.2-.7 1.9-22.4-8.1.7-2zm-3.5 12.2l23.5 4.1-.3 2-23.5-4.1.3-2zm-1.3 12.7H394v2h-23.8v-2zm1 12.7l23.5-4.1.4 2-23.5 4.1-.4-2zm3.1 12.4l22.4-8.2.7 1.9-22.4 8.1-.7-1.8zm5.2 11.6l20.6-11.9 1 1.8-20.6 11.9-1-1.8zm7.2 10.5l18.3-15.3 1.3 1.6L388 490l-1.3-1.5zm10.4 10.4l-1.6-1.3 15.3-18.3 1.6 1.3-15.3 18.3zm8.8 6.2l11.9-20.6 1.8 1-11.9 20.6-1.8-1zm13.3 6.2l-1.9-.7 8.2-22.4 1.9.7-8.2 22.4zm6.3-114.8l-8.2-22.4 1.9-.7 8.2 22.4-1.9.7zm6.1 117.9l-2-.4 4.1-23.5 2 .3-4.1 23.6zm12.7 1h-2v-23.8h2v23.8zm10.6-1l-4.1-23.5 2-.4 4.1 23.5-2 .4zm-2.1-120.3l-2-.3 4.1-23.5 2 .4-4.1 23.4zm14.5-20.7l1.9.7-8.2 22.4-1.9-.7 8.2-22.4zm0 137.9l-8.1-22.4 1.9-.7 8.1 22.4-1.9.7zm11.6-5.2L467 485.4l1.8-1 11.9 20.6-1.8 1.1zm10.5-7.2l-15.3-18.3 1.6-1.3 15.3 18.3-1.6 1.3zm9.1-8.9l-18.3-15.3 1.3-1.6 18.3 15.3-1.3 1.6zm7.5-10.3l-20.6-11.9 1-1.8 20.6 12-1 1.7zm5.5-11.4l-22.4-8.2.7-1.9 22.4 8.2-.7 1.9zM515 456l-23.5-4.1.3-2 23.5 4.1-.3 2zm1.3-12.7h-23.8v-2h23.8v2zm107.8 33.5h163.8v312.9H624.1zm149-51.2v-15.8H640.8v15.8h-16.7v35.7h163.7v-35.7zm-1-94.1c0-12.4-8.6-22.5-19.1-22.5h-9.5c.1-.5.2-1 .2-1.5V247c0-3.3-2.8-6-6.3-6h-64c-3.5 0-6.3 2.7-6.3 6v2h-13.6c-3.5 0-6.3 3-6.3-1.2v15.8c0 11.7 2.8 14.7 6.3 14.7h13.6v29.1c0 .5.1 1 .2 1.5h-6.6c-10.5 0-19.1 10.1-19.1 22.5V394h130.5v-62.5z" fill="#fff"/></svg>