<svg id="Capa_1" xmlns="http://www.w3.org/2000/svg" viewBox="0 0 800 800"><style>.st0{fill-rule:evenodd;clip-rule:evenodd;fill:#fff}</style><path class="st0" d="M653.4 602.3c-8.5-9.8-24.8-22.5-34.4-29.7-2.5-2-5.1-3.9-7.8-5.6-.1-.1-.2-.1-.2-.1-18.7-12.5-41.1-19.8-65.2-19.8-32.5 0-61.9 13.2-83.2 34.6-10.3 9.6-19.2 20.2-28.4 30.5-11.6 13.1-18.5 6.7-30.1 6.7-11.6 0-18.5 6.4-30.1-6.7-9.2-10.3-18.1-20.9-28.4-30.5-21.3-21.3-50.6-34.6-83.1-34.6-24.1 0-47.6 7.3-65.1 19.8 0 0-.2.1-.3.1-2.6 1.8-5.2 3.7-7.7 5.6-9.6 7.2-25.8 19.9-34.3 29.7-12.6 14.5-39.8 15.5-39.8 15.5v30s16-1 21.4 5.3c3.1 3.7 6.3 21.6 11.9 40.3 1.7 6.7 4 13.1 6.8 19.3 2.6 6.1 5.6 11.8 9 16.5 21 31.8 57.1 52.8 98.1 52.8 47.6 0 88.5-28.3 107-69l.1-.1c.1-.1.2-.3.3-.5 8.4-14.3 16.9-53.5 20.8-59.7 3.9-6.3 13.6-6.8 13.6-6.8s9.7.5 13.6 6.8c3.8 6.2 12.3 45.4 20.8 59.7.1.2.2.3.3.5l.1.1c18.5 40.7 59.4 69 107 69 41 0 77.1-21 98.1-52.8 3.5-4.7 6.4-10.3 9-16.4 2.8-6.2 5.1-12.6 6.8-19.3 5.5-18.7 9.1-36.6 12.2-40.3 5.3-6.3 21.7-5.3 21.7-5.3v-30c-.4-.1-28-1.1-40.5-15.6zM262.3 766c-56 0-101.5-45.4-101.5-101.5 0-56 45.4-101.5 101.5-101.5 56 0 101.5 45.4 101.5 101.5S318.4 766 262.3 766zm283.4 0c-56 0-101.5-45.4-101.5-101.5 0-56 45.4-101.5 101.5-101.5 56 0 101.5 45.4 101.5 101.5-.1 56.1-45.5 101.5-101.5 101.5z"/><path class="st0" d="M736.2 523.3c0-12.4-8.5-23.1-20.3-26.1V395.6l75.1-28.7-391.9-149.7L7.7 366.9 202 441.4v46.3c35-18.6 98.3-27.7 151.9-31.1 14.1-.6 29.4-1.7 45.2-1.7 16.4 0 31.6 1.1 45.2 1.7C498 460 561.8 469 596.8 487.7v-46.6l105.6-40.4v96.4c-11.8 3-20.3 13.8-20.3 26.1 0 5.1 1.4 9.9 3.8 14l-11.2 44.2H743L732 538c2.7-4.2 4.2-9.3 4.2-14.7zM419.1 421.9c-.8.8-2.4 2-5 3.6-2.6 1.7-7 3.6-13.4 5.9-6.3 2.3-12.7 3.4-19 3.4-16.5 0-27.7-6-33.7-17.9-5.3-11.2-4.3-23.8 2.9-37.8l11.8-23.6c4.2-8.3 4.5-13.8.7-16.5-.8-.8-2.4-1.1-5-1.1-1.7 0-3.5.2-5.4.7-2 .5-3.6.8-5 1.1l-1.6.5c-2.9 1.1-5.2.2-7-2.5-1.8-2.7-1.5-5.1.9-7.2 1.1-1.1 2.7-2.3 5-3.8s6.6-3.5 13.1-5.9c6.5-2.4 12.8-3.6 19-3.6 16.8 0 28.1 6 34 17.9 5.3 11 4.4 23.6-2.7 37.8l-12 23.6c-4.1 8.5-4.2 14-.5 16.8.5.5 2 .7 4.8.7 1.7 0 3.5-.2 5.4-.5 2-.3 3.6-.7 5-1.1l1.8-.7c2.7-.9 5 0 6.8 2.7 1.8 2.5 1.5 5.1-.9 7.5zM403.2 305c-19.6 0-29.4-9.8-29.4-29.4 0-19.6 9.8-29.4 29.4-29.4 19.6 0 29.4 9.8 29.4 29.4.1 19.6-9.7 29.4-29.4 29.4z"/></svg>