<svg id="Capa_1" xmlns="http://www.w3.org/2000/svg" xmlns:xlink="http://www.w3.org/1999/xlink" viewBox="0 0 532 468"><style>.st0{fill:#5d9cb9}.st1{fill:#f0cf59}.st3{fill:#59595b}.st5{fill:#fff}.st6{fill:#e7ad47}.st7{fill:#4070b7}.st8{fill:none;stroke:#59595b;stroke-width:.5;stroke-miterlimit:10}.st11{fill:#604935;stroke-width:1.5}.st11,.st12,.st15{stroke:#363430;stroke-linecap:round;stroke-miterlimit:10}.st12{stroke-width:1.5;fill:#e4d0b6}.st15{fill:#604935}.st16{fill:#fff}.st16,.st17,.st19,.st24{stroke:#363430;stroke-linecap:round;stroke-miterlimit:10}.st17{fill:#363430}.st19,.st24{fill:none;stroke-width:1.5}.st24{stroke-linejoin:round}</style><path class="st0" d="M137 69.5c-3 27.8-21.5 54-40.6 51.9-19.1-2-31.5-31.6-28.6-59.4s19.9-39.4 39-37.4C126 26.7 140 41.7 137 69.5z"/><path class="st1" d="M73.6 60.5c5.2 27.5-4.8 57.9-23.7 61.5-18.9 3.6-39.4-21-44.6-48.4s7.5-43.5 26.4-47.2 36.7 6.7 41.9 34.1z"/><path d="M102.1 44.1c.5 27.9-14.6 56.2-33.9 56.6-19.1.3-35.2-27.5-35.7-55.4-.4-28 14.9-41.7 34.1-42 19.2-.3 35.1 12.9 35.5 40.8z" fill="#ca4a62"/><path class="st3" d="M68.2 100c-1.1-1.2-4.7-1.4-6.2-1.1-1.5.3-2 1.9-1.8 3.5.2 1.5 1.8 1.9 3.2 1.8 2.5-.1 3.7-2.4 5.7-3.7.2-.2 0-.5-.2-.4-2 1.3-3.3 3.7-6 3.6-1.1 0-2.6-1-2.2-2.3.6-.7 1.2-1.3 1.8-2h1.2c1.2.1 3.3-.1 4.3.9.1.4.4-.1.2-.3z"/><path class="st3" d="M68.6 100.6c1.7-1.3 6.3-3.6 7.6-.6 1.3 3-2.7 2-3.8 1.7-1.3-.5-2.5-1.1-3.8-1.8-.2-.1-.5.2-.2.4 1.2.7 8.8 4.6 8.6.9 0-1.4-1.3-2.8-2.7-2.9-2.1-.2-4.3.8-6 2.1-.1-.1.1.3.3.2z"/><path class="st3" d="M68.7 100c.2 1.8-1.7 4-2.5 5.5-.6 1.1-1.2 2.3-1.6 3.6-1 2.6-1.3 5.4-1.4 8.1 0 .3.4.3.5 0 0-3.8.9-7.5 2.6-10.9 1-1.9 3.2-3.9 2.8-6.2 0-.4-.4-.4-.4-.1zm.6 0c2.5 4.3 4 8.8 4.4 13.7 0 .3.5.3.4 0-.4-5-1.8-9.7-4.4-14.1-.2-.1-.6.2-.4.4zm29.3 21.4c-1.1-1.3-3.6-1.3-5.2-1.4-1.2-.1-3.2.1-3.4 1.8-.1 1 .6 1.5 1.5 1.6 1 .1 2 .1 3-.2 1.4-.4 2.6-1.9 4.1-1.2.3.1.5-.3.2-.4-1.9-.9-3.6 1.2-5.5 1.3-.4 0-1.4.1-1.8 0-.6-1.8-.2-2.6 1.3-2.4h.6c1.3.1 3.8.2 4.9 1.2.2.2.5-.1.3-.3z"/><path class="st3" d="M98.9 121.6c.8-.8 1.7-1.5 2.7-2.1.6-.3 3.1-1.3 3.7-.7-.1.6-.1 1.3-.2 1.9-.3.1-.6.2-.8.3-.6.2-1.3.3-2 .3-1.4.1-2.7 0-4-.3-.3-.1-.4.4-.1.4 1.4.3 9.4 1 8.4-2.2-.4-1.3-2.2-1.1-3.2-1-1.9.3-3.5 1.4-4.8 2.8-.2.5.1.9.3.6z"/><path class="st3" d="M98.5 121.1c-.6 2.4-2 4.2-3.1 6.4-.8 1.6-1.1 3.3-.9 5.1 0 .3.5.3.4 0-.3-4.5 3.1-7.2 4-11.4.1-.2-.3-.4-.4-.1zm.9 0c.1 1.5.7 2.8 1.4 4.1 1.5 2.3 2.5 5.2 1.6 7.9-.1.3.3.4.4.1.5-1.7.3-3.7-.2-5.4-.7-2.5-2.6-4.1-2.9-6.8.1-.2-.3-.2-.3.1zm-53.5.9c-1.4-1.6-6.9-2.2-7.1.8-.3 2.9 7 .3 8.1-.1.3-.1.2-.5-.1-.4-1.9.8-4 1.4-6.1 1.4-1.1 0-1.2-1.2-.5-1.9.5-.5 1.3-.6 2-.6 1.2 0 2.7.3 3.7 1.1-.1.3.2-.1 0-.3z"/><path class="st3" d="M46.5 122.6c1-.4 2-.9 3.1-1.2.6-.1 1.4-.2 2.1 0 .7.1.8.5.3 1.2.1 1-.4 1.3-1.4 1-.8-.1-1.5-.6-2.3-.9-.7-.2-1.3-.3-2-.3-.3 0-.3.5 0 .4 1.2 0 2.1.4 3.2.8.6.3 1.3.5 1.9.4.9-.1 1.8-.7 1.8-1.7-.2-3-5.7-.6-6.9-.1-.4.2 0 .5.2.4z"/><path class="st3" d="M46.3 122.5c.5 1.8-1.9 4.6-2.3 6.4-.5 1.9-.3 3.9-.2 6 0 .3.5.3.5 0-.1-2.9-.2-6 1.3-8.7.8-1.3 1.7-2.2 1.2-3.9-.2-.2-.6 0-.5.2z"/><path class="st3" d="M47.5 123.1c0 .5-.1.8 0 1.4.1.4.2.8.3 1.3.3 1 .3 2.1.6 3.1.2 1.2.8 2 1.6 2.9.2.2.5-.1.3-.3-.9-1.1-1.3-1.9-1.6-3.3-.1-.6-.1-1.1-.2-1.6-.2-1.1-.4-2.7-1.1-3.6 0-.1-.2-.1-.3-.1H47c-.1 0-.2.1-.2.2v.1c.2.2.7.2.7-.1z"/><path d="M98.4 29.7s-.9 37-27.4 43.4-35.9-15.7-35.9-15.7S42.9 88 57.9 95.6c13.4 6.6 22.2-.4 28-7.8 5.8-7.5 18.8-31.5 12.5-58.1z" fill="#b41b59"/><circle class="st5" cx="54.3" cy="22.7" r="8.8"/><path class="st5" d="M53.8 40c0 2.5-2 4.7-4.6 4.7s-4.7-2-4.7-4.6c0-2.5 2-4.7 4.6-4.7s4.7 2 4.7 4.6z"/><circle class="st5" cx="111.5" cy="39" r="6.6"/><path class="st6" d="M42.2 84.2s-7.5 16.3-22.9 16.6c0 0 11.2 20.3 27.4 19.3S68 102.9 68 102.9s-16.3-.8-25.8-18.7z"/><path class="st7" d="M92.3 87s23 2.3 42-15.9c0 0-4.7 39.4-33 48.2 0 0-14.8 2.9-24.3-18.2-.1 0 11-4.9 15.3-14.1z"/><path class="st8" d="M98.7 121.5s-4.3 27-23.3 43.3m-29.3-42.2s6.3 31.6 26.4 42.1m-4.4-64.5s2 43.1 5.7 65.5"/><path class="st1" d="M524.5 71.8C521 99.5 502.1 125.4 483 123c-19.1-2.4-31-32.2-27.5-59.9 3.4-27.7 20.6-39 39.6-36.7 19.1 2.4 32.9 17.6 29.4 45.4z"/><path class="st0" d="M490.1 45.7c0 27.9-15.5 56-34.8 56-19.2 0-34.8-28-34.8-56S436 4.4 455.3 4.4c19.2 0 34.8 13.4 34.8 41.3z"/><path class="st3" d="M455.3 101.1c-1.1-1.2-4.6-1.5-6.2-1.2-1.5.3-2 1.9-1.8 3.4s1.8 1.9 3.1 1.8c2.5-.1 3.7-2.3 5.7-3.6.2-.2 0-.5-.2-.4-2 1.3-3.3 3.6-6.1 3.5-1.1 0-2.6-1-2.1-2.3.6-.7 1.2-1.3 1.8-2h1.2c1.2.1 3.3 0 4.2 1 .2.3.5 0 .4-.2z"/><path class="st3" d="M455.7 101.7c1.7-1.3 6.4-3.5 7.6-.5 1.2 3-2.7 1.9-3.8 1.6-1.3-.5-2.5-1.1-3.7-1.8-.2-.1-.5.2-.2.4 1.2.7 8.7 4.7 8.6 1 0-1.4-1.2-2.8-2.6-2.9-2.1-.2-4.3.7-6.1 2-.3-.1-.1.3.2.2z"/><path class="st3" d="M455.7 101.1c.2 1.8-1.8 3.9-2.6 5.4-.6 1.1-1.2 2.3-1.6 3.5-1 2.6-1.4 5.3-1.5 8.1 0 .3.4.3.4 0 .1-3.8 1-7.5 2.8-10.9 1-1.9 3.2-3.8 2.9-6.2 0-.2-.4-.2-.4.1zm.6 0c2.4 4.3 3.8 8.9 4.1 13.8 0 .3.5.3.4 0-.3-5-1.6-9.7-4.1-14.1-.2-.2-.5.1-.4.3zm29 21.8c-1.1-1.3-3.5-1.3-5.1-1.5-1.2-.1-3.2 0-3.4 1.7-.1 1 .6 1.5 1.5 1.6 1 .1 2 .1 3-.1 1.4-.4 2.6-1.8 4.1-1.1.3.1.5-.3.2-.4-1.9-.9-3.6 1.1-5.5 1.2-.4 0-1.4.1-1.8 0-.6-1.8-.2-2.6 1.3-2.4h.6c1.3.1 3.8.3 4.8 1.3.2.3.5 0 .3-.3z"/><path class="st3" d="M485.5 123.2c.8-.8 1.7-1.5 2.7-2 .6-.3 3.1-1.2 3.7-.6-.1.6-.1 1.3-.2 1.9-.3.1-.6.2-.8.3-.6.2-1.3.3-2 .3-1.4.1-2.7 0-4-.4-.3-.1-.4.4-.1.4 1.4.3 9.4 1.1 8.5-2-.4-1.3-2.2-1.1-3.2-1-1.9.3-3.5 1.3-4.8 2.7-.3.3 0 .6.2.4z"/><path class="st3" d="M485.1 122.7c-.6 2.4-2.1 4.1-3.2 6.4-.8 1.6-1.1 3.3-1 5 0 .3.5.3.5 0-.2-4.5 3.2-7.2 4.2-11.3 0-.2-.4-.4-.5-.1zm.9 0c.1 1.5.6 2.8 1.3 4.1 1.4 2.3 2.4 5.2 1.5 8-.1.3.3.4.4.1.5-1.7.4-3.7-.1-5.4-.7-2.5-2.5-4.1-2.8-6.9.2-.2-.3-.2-.3.1z"/><path class="st7" d="M486.3 31.9s-1.5 37-28.1 43-35.5-16.3-35.5-16.3 7.3 30.8 22.2 38.5c13.3 6.9 22.2 0 28.1-7.4 6-7.4 19.3-31.1 13.3-57.8z"/><circle class="st5" cx="442.4" cy="24.2" r="8.8"/><path class="st5" d="M441.7 41.4c0 2.5-2.1 4.6-4.6 4.6s-4.6-2.1-4.6-4.6 2.1-4.6 4.6-4.6 4.6 2.1 4.6 4.6zm64.2 0c0 3.6-2.9 6.6-6.6 6.6-3.6 0-6.6-2.9-6.6-6.6s2.9-6.6 6.6-6.6c3.7.1 6.6 3.1 6.6 6.6z"/><path class="st6" d="M479.3 89.1s23 2.7 42.3-15.2c0 0-5.3 39.3-33.8 47.6 0 0-14.8 2.6-24-18.6-.2 0 11-4.6 15.5-13.8z"/><path class="st8" d="M457.2 100s-4 24.8-31.1 42.8m57.7-19.4s-18 17.4-50.5 15.6"/><path d="M168.4 186c.5 2.5-.3 3.8-3 3.3-4.1-.8-9.1-1.1-15-.8-11.5 21.3-22.4 42.7-29.3 60.2-1.1 2.7-3.3 3-4.7 1.1-4.1-6-7.4-13.5-1.6-30.1 2.7-7.4 7.1-17.7 12.6-29.3-14 1.9-29 4.4-40.3 7.1-4.1.8-6.9.8-9.3-2.2-3.6-4.7-7.4-11.5-9.6-15.8-1.6-3-1.1-6.3 1.1-8.8 23-27.1 76.3-69.8 111.6-92.5 3.3-2.2 8-3.6 10.7.8 2.7 4.4 4.7 7.7 7.7 12.9 3.3 6 3.3 7.4-2.2 16.1-9.6 15-24.3 39.7-38.9 66 5.8 3.2 8.8 7.6 10.2 12zm-86.8-6.3c16.9-4.4 37.8-8 55.5-8.8 12.1-23.5 26.8-49.2 40-68.4-32 21.9-71.1 51.2-95.5 77.2zm208.1 28c-36 27.2-79.3 41.9-105.5 15.7-15.8-15.8-15.7-37.2-6.2-56.2 25.1-50.7 90.8-75.3 122-73 16.2 1.1 26.5 9.3 29.5 19.2 23.3 25.5-6.4 69.2-39.8 94.3zm32.7-91.4c-9.3-9.8-47.4-6.3-86.7 18.8-39.9 25.6-59.9 65.1-47.1 79.6 12 13.6 49.9 7 86.9-20.9 41-30.7 57.4-66.5 46.9-77.5zm81 108.3c.5 2.5-.3 3.8-3 3.3-4.1-.8-9.1-1.1-15-.8-11.5 21.3-22.4 42.7-29.3 60.2-1.1 2.7-3.3 3-4.7 1.1-4.1-6-7.4-13.5-1.6-30.1 2.7-7.4 7.1-17.7 12.6-29.3-14 1.9-29 4.4-40.3 7.1-4.1.8-6.9.8-9.3-2.2-3.6-4.7-7.4-11.5-9.6-15.8-1.6-3-1.1-6.3 1.1-8.8 23-27.1 76.3-69.8 111.6-92.5 3.3-2.2 8-3.6 10.7.8 2.7 4.4 4.7 7.7 7.7 12.9 3.3 6 3.3 7.4-2.2 16.1-9.6 15-24.3 39.7-38.9 66 5.8 3.2 8.8 7.6 10.2 12zm-86.7-6.3c16.9-4.4 37.8-8 55.5-8.8 12.1-23.5 26.8-49.2 40-68.4-32.1 22-71.2 51.2-95.5 77.2z" fill="#453b4f"/><ellipse cx="296.2" cy="453.5" rx="119" ry="11.8" fill="#cacaca"/><path class="st11" d="M219 283.8c-9.2 10.8-27.2 18.1-37.2 9.6-10-8.5-2.7-35.4 21-49.3 12.2-7.2 5.7 1.6 15.7 10.1 10.1 8.3 9.7 18.7.5 29.6z"/><path class="st12" d="M250.5 447.4c0 3.1-2.5 5.6-5.6 5.6h-14.3c-3.1 0-5.6-2.5-5.6-5.6 0-1.6.5-2.4.8-2.9 2-3.3 2-7.5.4-11.1-3.5-7.7-8.8-17.6-8.8-51.2v-27.9h33.2v93.1z"/><path d="M349.9 444.5h26c6.1 0 11.8-2.4 16-6.7 6.8-6.8 7.4-17.4 1.5-24.9-5-6.5-15.2-7.4-21.3-2h7.1c1.6.1 3 1.2 3.4 2.9.3 1.4-.2 2.9-1.4 3.7-1.9 1.4-4.2 2.2-6.7 2.2h-6.4l-18.2 24.8z" fill="#e4d0b6" stroke="#363430" stroke-width="1.5" stroke-linecap="round" stroke-linejoin="round" stroke-miterlimit="10"/><path class="st12" d="M182.9 314.4c0-21.9-3.4-55.4 28.5-77.1 32.7-22.2 90.9-17.2 111.3 35.8 17.6 45.8 64.7 91 49.5 170.5-1.5 7.9-8.7 13.3-16.6 13.3H318c-23.9 0-41.5-2.6-55-5.3-44.8-8.9-46.3-55-46.3-94.1l-33.8-43.1z"/><defs><path id="SVGID_1_" d="M322.7 273.1c-20.3-53.1-78.7-57.9-111.3-35.8-32 21.7-28.5 55.2-28.5 77.1 0 0 8.3 39.1 38.1 39.1s55.9-4.9 75.5-27.1c.1 0 36.1-27.5 26.2-53.3z"/></defs><clipPath id="SVGID_2_"><use xlink:href="#SVGID_1_" overflow="visible"/></clipPath><g clip-path="url(#SVGID_2_)"><ellipse class="st15" cx="235.2" cy="293.1" rx="18" ry="18.2"/><ellipse class="st16" cx="235.2" cy="293.1" rx="15" ry="15.3"/><ellipse class="st17" cx="236.7" cy="293.1" rx="13.5" ry="13.7"/><ellipse class="st5" cx="242.2" cy="286.4" rx="2.6" ry="2.3"/><path class="st5" d="M240.4 289.6c0 .9-.8 1.6-1.8 1.6s-1.8-.7-1.8-1.6c0-.9.8-1.6 1.8-1.6s1.8.7 1.8 1.6z"/><ellipse class="st15" cx="189.6" cy="293.1" rx="8.5" ry="15.2"/><path class="st16" d="M195.9 293.1c0 6.9-3 12.5-6.8 12.5s-6.8-5.5-6.8-12.5c0-6.9 3-12.5 6.8-12.5 3.8.1 6.8 5.7 6.8 12.5z"/><ellipse class="st17" cx="189.9" cy="293.1" rx="6.1" ry="11.2"/><ellipse class="st5" cx="192.3" cy="287.7" rx="1.2" ry="1.9"/><path class="st5" d="M191.5 290.3c0 .7-.4 1.3-.8 1.3-.5 0-.8-.6-.8-1.3 0-.7.4-1.3.8-1.3s.8.6.8 1.3z"/><path d="M193.2 272.3h-4c-2.4 0-4.4-2-4.4-4.4s2-4.4 4.4-4.4h4c2.4 0 4.4 2 4.4 4.4s-2 4.4-4.4 4.4zm46.7-1.3H230c-2.4 0-4.4-2-4.4-4.4 0-2.4 2-4.4 4.4-4.4h9.9c2.4 0 4.4 2 4.4 4.4 0 2.4-2 4.4-4.4 4.4z" fill="#363430"/></g><path class="st19" d="M211.4 237.3c-32 21.7-28.5 55.2-28.5 77.1m38.1 39.1c29.9 0 55.9-4.9 75.5-27.1"/><path class="st12" d="M324.9 410.1c-13.4 0-24.2 10.9-24.2 24.2 0 4.1 1 8 2.8 11.3-2.6.5-4.6 2.7-4.6 5.5 0 3.1 2.5 5.6 5.6 5.6h29.6m-96-54.6c.4 14.9 4.7 27.3 8.2 35.1 1.6 3.5 1.6 7.8-.4 11.1-.3.5-.8 1.3-.8 2.9 0 3.1 2.5 5.6 5.6 5.6H265c3.1 0 5.6-2.5 5.6-5.6v-49"/><circle cx="262.6" cy="305.8" r="1.5" fill="#363430" stroke="#363430" stroke-width="1.5" stroke-linecap="round" stroke-miterlimit="10"/><path class="st19" d="M283.2 338.3s12.8-9.7 17.6-10.9"/><path d="M243.1 352.3c41.7-9.1 22-70.7 8.1-90.1-16.8-23.5-50.8-19.9-57.8-6.8 0 0-7-3.3 12.8-20s108.7-40.4 127.4 60.7c0 0-1.3.8 5.4 2.8 6.8 2 7.6 18.9 13.2 27.2 5.2 7.7 33.6 61.3 21.6 115.9-1.9 8.6-9.6 14.6-18.4 14.6h-27.8c-12 0-12.4-11.5-21-11.5-11.6 0-9.4 11.5-2.3 11.5 0 0-29.5.2-33.8-3.7 0 0 0 3.4-4.2 3.5-3.4.1-16.5-9.7-20.5-8.4 0 0-1.3 2.2-.4 4.7 0 0-3-.9-6.4-3.6-3.3-2.7-11.4-7.2-13.4-4.8 0 0-2.1-2.4-.9-4.4 1.2-2 2.9-3.1 1-7.4-1.9-4.2-11.1-8.8-11.1-71.3 0 0-7.6-1.8-9.1-4.7-1.4-2.8 37.6-4.2 37.6-4.2z" fill="#fff" stroke="#363430" stroke-width="1.5" stroke-linecap="round" stroke-miterlimit="10"/><path class="st19" d="M270.6 453.1v-51m-24.8 46.2c-2.9 0-2.7-2.6-.5-5 2.2-2.3-1.5-12-1.5-12-3.7-9.3-5.7-24-5.7-29m7.2 40.9c2.4-2.5 11.3 2.3 15.1 5m-45.7-86.8c15.9 2.9 40.8 1 59.5-16.6 13.5-12.7 24.6-11.9 24.6-11.9m-30.5 16.8c11.4-8.8 24.9-15.1 41.8-11.7m27-39.5c-11-4.2-13.2-12.2-13.2-12.2m-99.1 153.9c1.3-3 6.7-2 11.1.9m8.5 3.3c-25.4-15.8-27.5-50.9-27.6-82.6m-20.5-116.6c6.6-6.7 17.9-9.3 32.7-6.7 16.4 2.8 24.9 14.8 24.9 14.8m20.3 66.8s-1.9 24.1-17.4 31.7m13.8 44.9v-2.1m34-61.7l4.3.2M274.2 316v-2.9"/><path d="M315.6 243.6l6.8-6.5c.9-.9 1.2-2.2.8-3.3-2.1-6.2-4.6-12.2-7.8-17.8-1.1-2-4-2.2-5.3-.4l-9.1 12.1 9-17.2c.6-1.1.5-2.4-.3-3.4-4.3-5.6-10.4-10.5-14.2-13.2-1.7-1.3-4.2-.5-4.9 1.5l-7.6 21.9 4.3-25.4c.3-1.5-.6-2.9-1.9-3.5-7.9-3.1-15.2-4.5-22-4.8-1.7-.1-3.2 1.3-3.3 3l-1.4 27.6-3.1-27.8c-.2-1.5-1.5-2.5-3-2.3-12.2 1.6-21.1 6.5-24.6 8.6-1 .6-1.4 1.7-1.2 2.8l5.6 26.1 2.3 3.6s37.1-12 69.9 16.2c25.9 22.4 28.9 54.9 28.9 54.9s-.1-27.1-7.9-54.4c-.6-2.1-3.1-3-4.9-1.8l-5.1 3.5z" fill="#dc427d" stroke="#363430" stroke-width="1.5" stroke-linecap="round" stroke-linejoin="round" stroke-miterlimit="10"/><path d="M225.1 233.6c11.3-6.4 8.7-8.9 8.7-8.9l-36.6-41.2 15.9 52.8c-.1-.1.7 3.6 12-2.7z" fill="#e4cc71" stroke="#363430" stroke-width="1.5" stroke-linecap="round" stroke-linejoin="round" stroke-miterlimit="10"/><path class="st24" d="M213 236.2c-1.6-5.3 13.3-20 6.9-27.2m1.2 26.5c8.2-5.2 10.7-13 7.5-16.6m-19.4 5.1c-2.7-8.9 8.7-17.1 3-23.5m-7.6 7.9c-1.9-6.5 5-10.8-.3-16.8m128.4 218.5h4.4m5.3 43.9h2.8m-82.7-4.5l1.2.8"/><path class="st19" d="M301.5 446.4c3.7-3-5.7-4.3-.5-8.3 0 0-4.7-24.7 23.9-27.9"/><path class="st19" d="M301 438.2c2.9-1.5 9.6-2.4 16.5 4.8 6.6 6.9 8.4 11.1 13.1 11.1h6.5"/><path class="st24" d="M349.2 320.1c5.1 11.5-11.2 20-33.8 12.9"/><path class="st17" d="M253.6 334.6c-2.2 9.3-13.1 17.3-29.3 17.3s-29.3-7.8-29.3-17.3 13.1-17.3 29.3-17.3c16.2-.1 32.2 4.7 29.3 17.3z"/><path class="st11" d="M199.7 305.2c-12.4-.9-21.8 9.2-17.7 22.7 3.6 11.8 18.8 7.5 19.7-1.6.7-6.6-2-21.1-2-21.1z"/><path class="st11" d="M199.2 305.2c4.5 0 11.9-1.1 21 6 11.5 9 19.6 7.5 28.8 2.4 4.3-2.3 7.6-1 9.1 4.2 2.4 8.5-.4 45.8-48.5 39.6-6.7-.8-18.1-4.9-17.1-12.5.8-6.9 9.8-8.8 22.5-2 12.4 6.7 23 7.1 29.6 1.5 6.3-5.1 6.8-15.1 6.7-17.7 0-.6-.7-.8-1.1-.5-3.3 2.9-19.6 14.3-36.2 10.3-8-1.9-14.7-6.4-14.7-18.8l-.1-12.5z"/><path class="st17" d="M210.2 309.1c.3 5.3-6.7 9.4-11.9 8.5-5.2-.9-8.4-6-8.1-8.5.2-2 1.8-4.2 7.3-4.5 12.3-.8 12.6 2.5 12.7 4.5z"/><ellipse class="st16" cx="199" cy="307.6" rx="5.4" ry="1.7"/><path d="M234.9 348.1c-9.5.2-22.9-16.4-37.3-15-14.4 1.4-19.9 14.3-13 18.2 10.1 5.6 27.4-9.2 32.7-7.2 7.5 3.4 11.9 4.4 17.6 4z" fill="#dc427d" stroke="#363430" stroke-width="1.5" stroke-linecap="round" stroke-miterlimit="10"/><path class="st11" d="M301.3 264.1c3 14.9-.5 34.6-14.2 37.4-13.7 2.8-25.9-16.3-28.9-31.3-3-14.9 4.2-22.7 18-25.4 13.5-2.8 22 4.3 25.1 19.3z"/></svg>