<svg id="Capa_1" xmlns="http://www.w3.org/2000/svg" xmlns:xlink="http://www.w3.org/1999/xlink" viewBox="0 0 400 496"><style>.st0{fill:#5e9ebb}.st1{fill:#f2d159}.st3{fill:#59595b}.st4{fill:#fff}.st5,.st7{stroke-miterlimit:10}.st5{stroke-width:.5;fill:none;stroke:#59595b}.st7{fill:#363430;stroke:#363430;stroke-linecap:round}.st8{fill:#604935;stroke-width:1.5}.st12,.st13,.st8,.st9{stroke:#363430;stroke-linecap:round;stroke-miterlimit:10}.st9{stroke-width:1.5;fill:#e6d2b8}.st12{fill:#604935}.st13{fill:#fff}.st15{fill:none}.st15,.st17,.st19,.st20{stroke:#363430;stroke-width:1.5;stroke-linecap:round;stroke-miterlimit:10}.st17{fill:#fff}.st19,.st20{fill:#e6ce71;stroke-linejoin:round}.st20{fill:none}</style><path class="st0" d="M135.5 83.3c-3.4 27.5-22.2 53.2-41.1 50.8-18.9-2.4-30.7-31.9-27.3-59.4 3.4-27.5 20.4-38.7 39.3-36.4 18.9 2.4 32.6 17.5 29.1 45z"/><path class="st1" d="M72.8 73.3c4.7 27.3-5.7 57.3-24.5 60.6-18.8 3.2-38.7-21.5-43.4-48.8-4.7-27.3 8.2-43 27-46.3S68.1 46 72.8 73.3z"/><path d="M101.4 57.5c0 27.7-15.4 55.5-34.5 55.5-19 0-34.5-27.8-34.5-55.5s15.4-41 34.5-41c19 0 34.5 13.3 34.5 41z" fill="#cc4a62"/><path class="st3" d="M66.8 112.4c-1.1-1.2-4.6-1.5-6.1-1.2-1.5.3-2 1.9-1.8 3.4.2 1.5 1.8 1.9 3.1 1.8 2.5-.1 3.7-2.3 5.7-3.6.2-.2 0-.5-.2-.4-2 1.3-3.3 3.6-6 3.5-1.1 0-2.6-1-2.1-2.3.6-.7 1.2-1.3 1.8-2h1.2c1.2.1 3.3 0 4.2 1 .1.4.4 0 .2-.2z"/><path class="st3" d="M67.2 113c1.7-1.3 6.3-3.5 7.5-.5 1.2 3-2.7 1.9-3.8 1.6-1.3-.5-2.5-1.1-3.7-1.8-.2-.1-.5.2-.2.4 1.2.7 8.6 4.7 8.5 1 0-1.4-1.2-2.8-2.6-2.9-2.1-.2-4.3.7-6 2-.1-.1.1.3.3.2z"/><path class="st3" d="M67.3 112.4c.2 1.8-1.8 3.9-2.6 5.4-.6 1.1-1.2 2.3-1.6 3.5-1 2.6-1.4 5.3-1.5 8 0 .3.4.3.5 0 .1-3.8 1-7.4 2.8-10.8 1-1.9 3.2-3.8 2.9-6.1-.1-.3-.5-.3-.5 0zm.6 0c2.4 4.3 3.8 8.8 4.1 13.7 0 .3.5.3.4 0-.3-5-1.6-9.6-4.1-14-.2-.2-.6.1-.4.3zm28.7 21.7c-1.1-1.3-3.5-1.3-5.1-1.5-1.2-.1-3.2 0-3.4 1.7-.1 1 .6 1.5 1.5 1.6 1 .1 2 .1 3-.1 1.4-.4 2.6-1.8 4.1-1.1.3.1.5-.3.2-.4-1.9-.9-3.6 1.1-5.5 1.2-.4 0-1.4.1-1.8 0-.6-1.8-.2-2.6 1.3-2.4h.6c1.3.1 3.8.3 4.8 1.3.2.2.5-.1.3-.3z"/><path class="st3" d="M96.9 134.3c.8-.8 1.7-1.5 2.7-2 .6-.3 3.1-1.2 3.7-.6-.1.6-.1 1.3-.2 1.9-.3.1-.6.2-.8.3-.6.2-1.3.3-2 .3-1.4.1-2.7 0-4-.4-.3-.1-.4.4-.1.4 1.4.3 9.3 1.1 8.4-2-.4-1.3-2.2-1.1-3.2-1-1.9.3-3.5 1.3-4.8 2.7-.2.3.1.7.3.4z"/><path class="st3" d="M96.5 133.8c-.6 2.4-2.1 4.1-3.2 6.3-.8 1.6-1.1 3.3-1 5 0 .3.5.3.4 0-.2-4.5 3.2-7.1 4.2-11.2.1-.2-.3-.4-.4-.1zm.9 0c.1 1.5.6 2.8 1.3 4.1 1.4 2.3 2.4 5.2 1.5 7.9-.1.3.3.4.4.1.5-1.7.4-3.7-.1-5.4-.7-2.5-2.5-4.1-2.8-6.8.1-.2-.3-.2-.3.1zm-53 0c-1.4-1.6-6.8-2.3-7.1.7-.3 2.9 6.9.4 8 0 .3-.1.2-.5-.1-.4-1.9.8-4 1.3-6.1 1.3-1.1 0-1.2-1.2-.5-1.9.5-.5 1.3-.6 2-.6 1.2 0 2.7.3 3.6 1.2.1.3.4-.1.2-.3z"/><path class="st3" d="M44.9 134.4c1-.4 2-.9 3.1-1.1.6-.1 1.4-.2 2.1 0 .7.1.8.5.3 1.2.1 1-.4 1.3-1.4 1-.8-.1-1.5-.6-2.3-.9-.7-.2-1.3-.3-2-.3-.3 0-.3.5 0 .4 1.2 0 2.1.4 3.2.8.6.3 1.3.5 1.9.4.9-.1 1.8-.7 1.8-1.7-.1-3-5.6-.7-6.8-.2-.4.2-.1.5.1.4z"/><path class="st3" d="M44.8 134.3c.5 1.8-2 4.5-2.4 6.3-.5 1.9-.4 3.9-.3 5.9 0 .3.5.3.5 0-.1-2.9-.1-6 1.4-8.6.8-1.3 1.7-2.2 1.3-3.8-.2-.2-.6 0-.5.2z"/><path class="st3" d="M45.9 134.9c0 .5-.1.8 0 1.4.1.4.2.8.3 1.3.3 1 .3 2.1.5 3.1.2 1.2.8 2 1.5 2.9.2.2.5-.1.3-.3-.9-1.1-1.3-1.9-1.5-3.3-.1-.6-.1-1.1-.2-1.6-.2-1.1-.4-2.7-1-3.6 0-.1-.2-.1-.3-.1h-.1c-.1 0-.2.1-.2.2v.1c.2.2.7.2.7-.1z"/><path d="M97.9 43.2S96.4 79.9 70 85.8 34.7 69.6 34.7 69.6s7.2 30.5 22 38.2c13.2 6.8 22 0 27.9-7.3s19.1-30.9 13.3-57.3z"/><path d="M50.3 86.1s35.4 15.8 47.5-33c0 0 .1 1.6 0 8.3-.1 0-10.3 41.4-47.5 24.7z"/><circle class="st4" cx="54.3" cy="35.5" r="8.7"/><path class="st4" d="M53.6 52.6c0 2.5-2.1 4.6-4.6 4.6-2.5 0-4.6-2.1-4.6-4.6 0-2.5 2.1-4.6 4.6-4.6 2.5 0 4.6 2.1 4.6 4.6z"/><circle class="st4" cx="110.8" cy="52.6" r="6.5"/><path d="M41.3 96.3s-7.7 16-23 16.1c0 0 10.8 20.3 26.8 19.6 16-.7 21.5-16.8 21.5-16.8s-16.2-1-25.3-18.9z"/><path d="M41.3 99.9s5.9 13.6 22.8 16.2l-1.9 3.1c.1 0-16.2-2.1-20.9-19.3zm49.6 0s22.8 2.7 41.9-15.1c0 0-5.3 39-33.5 47.2 0 0-14.7 2.6-23.8-18.4-.1 0 11-4.7 15.4-13.7z"/><path d="M91.6 101.8s-6.5 9.2-14.5 12.3c0 0 1.2 2.8 2 3.4 0 0 11.6-7.1 14.6-15.8"/><path class="st5" d="M96.7 134.2s-4.7 26.7-23.8 42.5m-28.3-42.3s5.7 31.4 25.5 42.2m-3.4-64s1.3 42.8 4.6 65"/><path class="st1" d="M395.1 71.4c-3.4 27.5-22.2 53.2-41.1 50.8-18.9-2.4-30.7-31.9-27.3-59.4 3.4-27.5 20.4-38.7 39.3-36.4 18.9 2.4 32.6 17.5 29.1 45z"/><path class="st0" d="M361 45.6c0 27.7-15.4 55.5-34.5 55.5-19 0-34.5-27.8-34.5-55.5s15.4-41 34.5-41 34.5 13.3 34.5 41z"/><path class="st3" d="M326.5 100.5c-1.1-1.2-4.6-1.5-6.1-1.2-1.5.3-2 1.9-1.8 3.4.2 1.5 1.8 1.9 3.1 1.8 2.5-.1 3.7-2.3 5.7-3.6.2-.2 0-.5-.2-.4-2 1.3-3.3 3.6-6 3.5-1.1 0-2.6-1-2.1-2.3.6-.7 1.2-1.3 1.8-2h1.2c1.2.1 3.3 0 4.2 1 0 .3.3 0 .2-.2z"/><path class="st3" d="M326.9 101.1c1.7-1.3 6.3-3.5 7.5-.5 1.2 3-2.7 1.9-3.8 1.6-1.3-.5-2.5-1.1-3.7-1.8-.2-.1-.5.2-.2.4 1.2.7 8.6 4.7 8.5 1 0-1.4-1.2-2.8-2.6-2.9-2.1-.2-4.3.7-6 2-.2-.1 0 .3.3.2z"/><path class="st3" d="M326.9 100.5c.2 1.8-1.8 3.9-2.6 5.4-.6 1.1-1.2 2.3-1.6 3.5-1 2.6-1.4 5.3-1.5 8 0 .3.4.3.4 0 .1-3.8 1-7.4 2.8-10.8 1-1.9 3.2-3.8 2.9-6.1 0-.3-.4-.3-.4 0zm.6 0c2.4 4.3 3.8 8.8 4.1 13.7 0 .3.5.3.4 0-.3-5-1.6-9.6-4.1-14-.2-.2-.5.1-.4.3zm28.8 21.6c-1.1-1.3-3.5-1.3-5.1-1.5-1.2-.1-3.2 0-3.4 1.7-.1 1 .6 1.5 1.5 1.6 1 .1 2 .1 3-.1 1.4-.4 2.6-1.8 4.1-1.1.3.1.5-.3.2-.4-1.9-.9-3.6 1.1-5.5 1.2-.4 0-1.4.1-1.8 0-.6-1.8-.2-2.6 1.3-2.4h.6c1.3.1 3.8.3 4.8 1.3.2.3.5 0 .3-.3z"/><path class="st3" d="M356.5 122.4c.8-.8 1.7-1.5 2.7-2 .6-.3 3.1-1.2 3.7-.6-.1.6-.1 1.3-.2 1.9-.3.1-.6.2-.8.3-.6.2-1.3.3-2 .3-1.4.1-2.7 0-4-.4-.3-.1-.4.4-.1.4 1.4.3 9.3 1.1 8.4-2-.4-1.3-2.2-1.1-3.2-1-1.9.3-3.5 1.3-4.8 2.7-.2.3.1.6.3.4z"/><path class="st3" d="M356.1 121.9c-.6 2.4-2.1 4.1-3.2 6.3-.8 1.6-1.1 3.3-1 5 0 .3.5.3.5 0-.2-4.5 3.2-7.1 4.2-11.2 0-.2-.4-.4-.5-.1zm.9 0c.1 1.5.6 2.8 1.3 4.1 1.4 2.3 2.4 5.2 1.5 7.9-.1.3.3.4.4.1.5-1.7.4-3.7-.1-5.4-.7-2.5-2.5-4.1-2.8-6.8.2-.2-.3-.2-.3.1z"/><path d="M357.3 31.9s-1.5 36.7-27.9 42.6c-26.4 5.9-35.2-16.2-35.2-16.2s7.2 30.5 22 38.2c13.2 6.8 22 0 27.9-7.3 5.9-7.4 19.1-30.9 13.2-57.3z"/><path d="M309.7 74.8s35.4 15.8 47.5-33c0 0 .1 1.6 0 8.3 0 0-10.3 41.4-47.5 24.7z"/><circle class="st4" cx="313.7" cy="24.2" r="8.7"/><path class="st4" d="M313 41.3c0 2.5-2.1 4.6-4.6 4.6-2.5 0-4.6-2.1-4.6-4.6 0-2.5 2.1-4.6 4.6-4.6 2.5 0 4.6 2.1 4.6 4.6zm63.7 0c0 3.6-2.9 6.5-6.5 6.5s-6.5-2.9-6.5-6.5 2.9-6.5 6.5-6.5c3.6.1 6.5 3 6.5 6.5z"/><path d="M350.3 88.6s22.8 2.7 41.9-15.1c0 0-5.3 39-33.5 47.2 0 0-14.7 2.6-23.8-18.4-.1 0 11-4.6 15.4-13.7z"/><path d="M351.1 90.5s-6.5 9.2-14.5 12.3c0 0 1.2 2.8 2 3.4 0 0 11.6-7.1 14.6-15.8"/><path class="st5" d="M356.4 122s-7.2 23.8-36.2 37.9m7-59.4s-2.3 39.3-8.3 59.7"/><path d="M131 196.8c.4 1.8-.2 2.8-2.2 2.4-3-.6-6.6-.8-10.9-.6-8.4 15.5-16.3 31.1-21.3 43.8-.8 2-2.4 2.2-3.4.8-3-4.4-5.4-9.8-1.2-21.9 2-5.4 5.2-12.9 9.2-21.3-10.2 1.4-21.1 3.2-29.3 5.2-3 .6-5 .6-6.8-1.6-2.6-3.4-5.4-8.4-7-11.5-1.2-2.2-.8-4.6.8-6.4 16.7-19.7 55.5-50.8 81.2-67.3 2.4-1.6 5.8-2.6 7.8.6s3.4 5.6 5.6 9.4c2.4 4.4 2.4 5.4-1.6 11.7-7 10.9-17.7 28.9-28.3 48 4.2 2.3 6.4 5.5 7.4 8.7zm-63.1-4.6c12.3-3.2 27.5-5.8 40.4-6.4 8.8-17.1 19.5-35.8 29.1-49.8-23.3 16-51.8 37.3-69.5 56.2zm151.4 20.4c-26.2 19.8-57.7 30.5-76.8 11.4-11.5-11.5-11.4-27.1-4.5-40.9 18.3-36.9 66.1-54.8 88.8-53.1 11.8.8 19.3 6.8 21.5 14 16.9 18.5-4.7 50.3-29 68.6zm23.8-66.5c-6.8-7.1-34.5-4.6-63.1 13.7-29 18.6-43.6 47.4-34.3 57.9 8.7 9.9 36.3 5.1 63.2-15.2 29.9-22.4 41.8-48.4 34.2-56.4zm58.9 78.8c.4 1.8-.2 2.8-2.2 2.4-3-.6-6.6-.8-10.9-.6-8.4 15.5-16.3 31.1-21.3 43.8-.8 2-2.4 2.2-3.4.8-3-4.4-5.4-9.8-1.2-21.9 2-5.4 5.2-12.9 9.2-21.3-10.2 1.4-21.1 3.2-29.3 5.2-3 .6-5 .6-6.8-1.6-2.6-3.4-5.4-8.4-7-11.5-1.2-2.2-.8-4.6.8-6.4 16.7-19.7 55.5-50.8 81.2-67.3 2.4-1.6 5.8-2.6 7.8.6s3.4 5.6 5.6 9.4c2.4 4.4 2.4 5.4-1.6 11.7-7 10.9-17.7 28.9-28.3 48 4.2 2.3 6.4 5.5 7.4 8.7zm-63.1-4.6c12.3-3.2 27.5-5.8 40.4-6.4 8.8-17.1 19.5-35.8 29.1-49.8-23.3 16-51.8 37.3-69.5 56.2z" fill="#453b4f"/><ellipse class="st7" cx="221.8" cy="480.2" rx="101.8" ry="9.7"/><path class="st8" d="M143.4 314c-9.1 10.7-27 17.9-36.9 9.5-9.9-8.4-2.7-35.1 20.8-48.9 12.1-7.1 5.7 1.6 15.6 10 10 8.3 9.6 18.6.5 29.4z"/><path class="st9" d="M174.6 476.2c0 3.1-2.5 5.6-5.6 5.6h-14.2c-3.1 0-5.6-2.5-5.6-5.6 0-1.6.5-2.4.8-2.9 2-3.3 2-7.4.4-11-3.5-7.6-8.7-17.4-8.7-50.8v-27.7h32.9v92.4z"/><path d="M273.2 473.3H299c6 0 11.7-2.4 15.9-6.6 6.7-6.7 7.3-17.3 1.5-24.7-5-6.4-15.1-7.3-21.1-2h7c1.6.1 3 1.2 3.4 2.9.3 1.4-.2 2.9-1.4 3.7-1.9 1.4-4.2 2.2-6.6 2.2h-6.3l-18.2 24.5z" fill="#e6d2b8" stroke="#363430" stroke-width="1.5" stroke-linecap="round" stroke-linejoin="round" stroke-miterlimit="10"/><path class="st9" d="M107.6 344.3c0-21.7-3.4-54.9 28.3-76.4 32.4-22 90.1-17.1 110.3 35.5 17.4 45.4 64.1 90.2 49.1 169-1.5 7.8-8.6 13.2-16.5 13.2h-37.3c-23.7 0-41.1-2.6-54.5-5.3-44.4-8.8-45.9-54.5-45.9-93.3l-33.5-42.7z"/><defs><path id="SVGID_1_" d="M246.2 303.4c-20.1-52.6-78-57.4-110.3-35.5-31.7 21.5-28.3 54.7-28.3 76.4 0 0 8.2 38.8 37.8 38.8 29.6 0 55.4-4.9 74.9-26.9 0 0 35.7-27.3 25.9-52.8z"/></defs><clipPath id="SVGID_2_"><use xlink:href="#SVGID_1_" overflow="visible"/></clipPath><g clip-path="url(#SVGID_2_)"><ellipse class="st12" cx="159.4" cy="323.2" rx="17.8" ry="18"/><ellipse class="st13" cx="159.4" cy="323.2" rx="14.9" ry="15.2"/><ellipse class="st7" cx="160.9" cy="323.2" rx="13.4" ry="13.6"/><ellipse class="st4" cx="166.4" cy="316.5" rx="2.6" ry="2.3"/><path class="st4" d="M164.6 319.7c0 .9-.8 1.6-1.8 1.6s-1.8-.7-1.8-1.6c0-.9.8-1.6 1.8-1.6s1.8.7 1.8 1.6z"/><ellipse class="st12" cx="114.2" cy="323.2" rx="8.4" ry="15.1"/><path class="st13" d="M120.5 323.2c0 6.8-3 12.4-6.7 12.4s-6.7-5.5-6.7-12.4c0-6.8 3-12.4 6.7-12.4 3.7.1 6.7 5.6 6.7 12.4z"/><ellipse class="st7" cx="114.5" cy="323.2" rx="6" ry="11.1"/><ellipse class="st4" cx="116.9" cy="317.8" rx="1.2" ry="1.9"/><path class="st4" d="M116.1 320.4c0 .7-.4 1.3-.8 1.3-.5 0-.8-.6-.8-1.3 0-.7.4-1.3.8-1.3s.8.6.8 1.3z"/><path d="M117.8 302.6h-4c-2.4 0-4.4-2-4.4-4.4s2-4.4 4.4-4.4h4c2.4 0 4.4 2 4.4 4.4s-2 4.4-4.4 4.4zm46.3-1.3h-9.8c-2.4 0-4.4-2-4.4-4.4 0-2.4 2-4.4 4.4-4.4h9.8c2.4 0 4.4 2 4.4 4.4 0 2.4-2 4.4-4.4 4.4z" fill="#363430"/></g><path class="st15" d="M135.9 267.9c-31.7 21.5-28.3 54.7-28.3 76.4m37.8 38.8c29.6 0 55.4-4.9 74.9-26.9"/><path class="st9" d="M248.4 439.2c-13.3 0-24 10.8-24 24 0 4.1 1 7.9 2.8 11.2-2.6.5-4.6 2.7-4.6 5.5 0 3.1 2.5 5.6 5.6 5.6h29.3m-95.2-54.2c.4 14.8 4.7 27.1 8.1 34.8 1.6 3.5 1.6 7.7-.4 11-.3.5-.8 1.3-.8 2.9 0 3.1 2.5 5.6 5.6 5.6H189c3.1 0 5.6-2.5 5.6-5.6v-48.6"/><circle cx="186.6" cy="335.8" r="1.5" fill="#363430" stroke="#363430" stroke-width="1.5" stroke-linecap="round" stroke-miterlimit="10"/><path class="st15" d="M207 368s12.7-9.6 17.4-10.8"/><path class="st17" d="M167.3 381.9c41.3-9 21.8-70.1 8-89.3-16.7-23.3-50.4-19.7-57.3-6.7 0 0-6.9-3.3 12.7-19.8S238.5 226 257 326.3c0 0-1.3.8 5.4 2.8 6.7 2 7.5 18.7 13.1 27 5.2 7.6 33.3 60.8 21.4 114.9-1.9 8.5-9.5 14.5-18.2 14.5h-27.6c-11.9 0-12.3-11.4-20.8-11.4-11.5 0-9.3 11.4-2.3 11.4 0 0-29.2.2-33.5-3.7 0 0 0 3.4-4.2 3.5-3.4.1-16.4-9.6-20.3-8.3 0 0-1.3 2.2-.4 4.7 0 0-3-.9-6.3-3.6S152 471 150 473.3c0 0-2.1-2.4-.9-4.4 1.2-2 2.9-3.1 1-7.3-1.9-4.2-11-8.7-11-70.7 0 0-7.5-1.8-9-4.7-1.5-2.9 37.2-4.3 37.2-4.3z"/><path class="st15" d="M194.5 481.8v-50.5M170 477.1c-2.9 0-2.7-2.6-.5-5 2.2-2.3-1.5-11.9-1.5-11.9-3.7-9.2-5.7-23.8-5.7-28.8m7.2 40.6c2.4-2.5 11.2 2.3 15 5m-45.4-86.1c15.8 2.9 40.4 1 59-16.5 13.4-12.6 24.4-11.8 24.4-11.8m-30.2 16.7c11.3-8.7 24.7-15 41.4-11.6m26.8-39.2c-10.9-4.2-13.1-12.1-13.1-12.1M149.1 469c1.3-3 6.6-2 11 .9m8.5 3.3c-25.2-15.7-27.3-50.5-27.4-81.9m-20.3-115.6c6.5-6.6 17.7-9.2 32.4-6.6 16.3 2.8 24.7 14.7 24.7 14.7m20.1 66.2s-1.9 23.9-17.3 31.4"/><path class="st17" d="M194.5 425.9v-2.1m33.8-61.2l4.2.2m-34.4-16.9V343"/><path d="M239.2 274.1l6.7-6.4c.9-.9 1.2-2.2.8-3.3-2.1-6.1-4.6-12.1-7.7-17.6-1.1-2-4-2.2-5.3-.4l-9 12 8.9-17.1c.6-1.1.5-2.4-.3-3.4-4.3-5.6-10.3-10.4-14.1-13.1-1.7-1.3-4.2-.5-4.9 1.5l-7.5 21.7 4.3-25.2c.3-1.5-.6-2.9-1.9-3.5-7.8-3.1-15.1-4.5-21.8-4.8-1.7-.1-3.2 1.3-3.3 3l-1.4 27.4-3.1-27.6c-.2-1.5-1.5-2.5-3-2.3-12.1 1.6-20.9 6.4-24.4 8.5-1 .6-1.4 1.7-1.2 2.8l5.6 25.9 2.3 3.6s36.8-11.9 69.3 16.1c25.7 22.2 28.7 54.4 28.7 54.4s-.1-26.9-7.8-53.9c-.6-2.1-3.1-3-4.9-1.8l-5 3.5z" fill="#dd427e" stroke="#363430" stroke-width="1.5" stroke-linecap="round" stroke-linejoin="round" stroke-miterlimit="10"/><path class="st19" d="M149.4 264.2c11.2-6.3 8.6-8.8 8.6-8.8l-36.3-40.8 15.8 52.3c-.1-.1.7 3.5 11.9-2.7z"/><path class="st20" d="M137.4 266.8c-1.6-5.3 13.2-19.8 6.8-27m1.3 26.3c8.1-5.2 10.6-12.9 7.4-16.5m-19.2 5.1c-2.7-8.8 8.6-17 3-23.3m-7.6 7.8c-1.9-6.4 5-10.7-.3-16.7"/><path class="st19" d="M256.1 439.2h4.4m5.2 43.5h2.8m-82-4.5l1.2.8"/><path class="st15" d="M225.2 475.2c3.7-3-5.7-4.3-.5-8.2 0 0-4.7-24.5 23.7-27.7"/><path class="st15" d="M224.7 467c2.9-1.5 9.5-2.4 16.4 4.8 6.5 6.8 8.3 11 13 11h6.4"/><path class="st20" d="M272.5 350c5.1 11.4-11.1 19.8-33.5 12.8"/><path class="st7" d="M177.7 364.3c-2.2 9.2-13 17.2-29 17.2s-29-7.7-29-17.2 13-17.2 29-17.2 31.9 4.7 29 17.2z"/><path class="st8" d="M124.3 335.2c-12.3-.9-21.6 9.1-17.5 22.5 3.6 11.7 18.6 7.4 19.5-1.6.6-6.5-2-20.9-2-20.9z"/><path class="st8" d="M123.8 335.2c4.5 0 11.8-1.1 20.8 5.9 11.4 8.9 19.4 7.4 28.6 2.4 4.3-2.3 7.5-1 9 4.2 2.4 8.4-.4 45.4-48.1 39.3-6.6-.8-17.9-4.9-17-12.4.8-6.8 9.7-8.7 22.3-2 12.3 6.6 22.8 7 29.3 1.5 6.2-5.1 6.7-15 6.6-17.5 0-.6-.7-.8-1.1-.5-3.3 2.9-19.4 14.2-35.9 10.2-7.9-1.9-14.6-6.3-14.6-18.6l.1-12.5z"/><path class="st7" d="M134.7 339.1c.3 5.3-6.6 9.3-11.8 8.4-5.2-.9-8.3-5.9-8-8.4.2-2 1.8-4.2 7.2-4.5 12.2-.8 12.5 2.5 12.6 4.5z"/><ellipse class="st13" cx="123.6" cy="337.6" rx="5.4" ry="1.7"/><path d="M159.2 377.7c-9.4.2-22.7-16.3-37-14.9s-19.7 14.2-12.9 18c10 5.6 27.2-9.1 32.4-7.1 7.4 3.4 11.8 4.4 17.5 4z" fill="#dd427e" stroke="#363430" stroke-width="1.5" stroke-linecap="round" stroke-miterlimit="10"/><path class="st8" d="M225 294.4c3 14.8-.5 34.3-14.1 37.1-13.6 2.8-25.7-16.2-28.7-31s4.2-22.5 17.8-25.2c13.5-2.8 21.9 4.3 25 19.1z"/></svg>