<svg id="Capa_1" xmlns="http://www.w3.org/2000/svg" viewBox="0 0 400 400"><style>.st0{fill:#363636}</style><path class="st0" d="M91.7 188.7c1.7-6.6 3.8-14.8 9.5-26.2 9.2-18.3 40.9-35.4 41.2-35.6l5.8-3.3c-1.1.6-30.6 8.7-43.9 23.5-1.7-6.6-5.7-16-14.1-26.8-4-5.1-13.8-16.5-25.5-28.4 5.5 3.4 10.3 6.5 13.2 9 11.5 9.7 35.1 25.1 38.9 26.7l-10.8-9.3s-13.1-11.8-24.7-21.4C75 91.6 60.9 83.4 49.1 76.8 36.8 65.6 24.5 56.3 16 54.5c-5.2-1.1-8.4.7-10.3 2.4-9.4 9-1 46.7 4.4 78.8 4.2 25 19.4 41.3 30.6 53.2 4.9 5.2 9.1 9.7 11.1 13.6 7.2 14 35.9 26.3 37.1 26.8.3.1.7.2 1 .2.7 0 1.4-.3 1.9-.8.8-.8 1-1.9.5-2.9-4-8.8-7.2-20.1-4.5-25.6 1.8-3.4 2.8-7.2 3.9-11.5zm-6.7 33c-8.6-4.3-25.9-11-30.4-19.8-2.3-4.5-6.7-9.8-11.8-15.3-10.7-11.4-25.3-27.1-29.2-50.5-3.4-20.3-8-59.5.2-67.3.6-.6 1.7-1.3 3.5-1.3.6 0 1.2.1 2 .2 2.4.5 5.1 1.7 8.2 3.3l.4.2c19 10.4 48 39.3 58.2 52.3 10 12.7 12.7 24.3 13.4 28.2-1.4 1.9-2.6 3.8-3.5 5.8-6 11.9-10.3 21.1-12.1 28-1.1 4.3-2 7.6-3.4 10.6-3.3 6.5 1.7 18 4.5 25.6zm44.4 70.3c-13.9-4.6-19.8-19.8-19.8-20l-3.2-6.7c.2 1.1.4 25.7 17.3 31.4 13.4 4.5 20.2 11.2 21.9 15.4l.4.9c-.2-.1-.9-15.8-16.6-21zm43.8-62.4l3.4-3.5c.1-.9 2.2-17-7.7-32.6l-3.9-3.8c9.6 11.9 8.3 39.7 8.2 39.9zm-32.3-28.5l-3.2-1.1c-.3 0-22.5-9.5-28.1 17.8l-.2 3.4c4.6-22.7 30.4-20.2 31.5-20.1zm-16.6 66.6l-7.4-3.3s9.8 8.9 17.8 8.9c11.7 0 20.5-10.2 24.2-17l3-7c-.5.9-21.4 26.6-37.6 18.4zm8.1-43.7h-.8c-14.4.8-19.6 8.8-22.3 8.8 0 0 2.6 8.1 6.9 13.2 3.3 3.9 9.8 7.5 16.7 7.5 3.3 0 6.6-.8 9.6-2.7 7.7-4.9 9.7-5.7 10.8-5.7.2 0 .4 0 .6.1.2 0-7.6-21.2-21.5-21.2zm-5.8 7.7c1.9 0 3.5 1.6 3.5 3.5s-1.6 3.5-3.5 3.5-3.5-1.6-3.5-3.5c0-2 1.6-3.5 3.5-3.5zm-8.4 12.7c-2.5-3-3.8-6.6-4.5-8.7.5-.4 1.1-.8 1.6-1.3 1.1-1 2.6-2.2 4.4-3.3-1.3 2.1-2 4.5-2 7.1 0 3.2 1.2 6.2 3 8.5-1-.7-1.8-1.5-2.5-2.3zm22.9 4.2l-1.2.6c3.3-2.5 5.5-6.5 5.5-11 0-1.4-.2-2.8-.6-4.1 3.2 3.3 5.7 7.1 6.9 9.6-1.9.9-6 2-10.6 4.9zm58.4 6c14.6-1.1 27.7 5.3 27.7 5.3-12.9-10-27-9.6-27.7-9.6-.6-.1-14.8-.4-27.7 9.6 0-.1 13-6.4 27.7-5.3zM393.2 56.9c-1.8-1.7-5.1-3.6-10.3-2.4-8.4 1.9-20.8 11.1-33 22.3-11.8 6.6-25.9 14.9-32.2 20.1-11.5 9.7-24.7 21.4-24.7 21.4l-10.8 9.3c3.7-1.7 27.3-17.1 38.8-26.7 2.9-2.4 7.7-5.6 13.2-9-11.6 11.9-21.4 23.2-25.5 28.3-8.4 10.7-12.4 20.2-14.1 26.8-13.3-14.8-42.8-22.9-43.9-23.5l5.8 3.3c.3.2 32 17.3 41.2 35.6 5.7 11.4 7.8 19.6 9.5 26.2 1.1 4.4 2.1 8.2 3.8 11.6 2.8 5.5-.5 16.8-4.5 25.6-.4 1-.2 2.1.5 2.9.5.5 1.2.8 1.9.8.3 0 .7-.1 1-.2 1.2-.5 29.9-12.8 37.1-26.8 2-3.9 6.2-8.4 11.1-13.6 11.1-11.9 26.3-28.2 30.6-53.2 5.5-32.1 13.9-69.8 4.5-78.8zm-7.7 79.2c-3.9 23.4-18.5 39.1-29.2 50.5-5.1 5.5-9.5 10.8-11.8 15.3-4.5 8.8-21.8 15.6-30.4 19.8 2.8-7.6 7.8-19.2 4.5-25.6-1.5-3-2.3-6.3-3.4-10.6-1.8-6.8-6.1-16-12.1-28-1-2-2.2-3.9-3.5-5.8.8-3.9 3.5-15.5 13.4-28.2 10.2-13 39.3-41.9 58.2-52.3l.4-.2c3-1.6 5.8-2.8 8.2-3.3.7-.2 1.4-.2 2-.2 1.9 0 2.9.7 3.5 1.3 8.2 7.8 3.6 47 .2 67.3zM269.6 292c-15.7 5.2-16.4 20.9-16.4 20.9l.4-.9c1.7-4.2 8.4-10.9 21.9-15.4 16.9-5.6 17.1-30.3 17.3-31.4l-3.3 6.7c-.1.3-6 15.5-19.9 20.1z"/><path class="st0" d="M227.1 242.6l-1.7-8.1c.2.9 3.1 24 9.8 33.3 5.2 7.3 15.7 33.3 9.7 46.7-3.5 7.8-14.9 14.5-24.2 15.3-8.4.7-15.3-1.3-18.6-5.5l-2.6-9.8-2.6 9.8c-3.3 4.2-10.2 6.3-18.6 5.5-9.3-.8-20.6-7.5-24.2-15.3-6.1-13.4 4.4-39.4 9.6-46.7 6.8-9.4 9.6-32.4 9.8-33.3l-1.7 8.1c-1.2 5.9-6.3 17.6-11.5 24.3-7.1 9-18.9 36.5-12 51.6 4.5 10 18.5 15.5 29.5 16.5 1.3.1 2.5.2 3.8.2 4.5 0 7.6-.4 10.1-1.5 1.5.8 4.3 1.9 7.3 2.2v.1h1.1v-.1c3-.3 5.7-1.4 7.3-2.2 2.5 1.1 5.6 1.5 10.1 1.5 1.2 0 2.5-.1 3.8-.2 11-1 25-6.5 29.5-16.5 6.9-15.2-5-42.7-12-51.6-5.4-6.7-10.5-18.4-11.7-24.3zm-27.6 90.2c-1.8 0-3.8-.3-5.2-.7 1.3-1 2.5-2.4 3.7-4.1.3-.4 1.4-1 1.4-1.5 0 .5 1.1 1.1 1.4 1.5 1.2 1.8 2.4 3.1 3.7 4.1-1.2.4-3.2.6-5 .7z"/><path class="st0" d="M206 300.3c-1.4-3.8.2-9.2 3.7-8.8 3.5.4 2.5 6.5 1.2 9.1-1.3 2.6.2 8 6.2 6.7 6-1.3 8.1-11.1 7-14-1-3-8.8-14-12.3-14.6-3.5-.5-12.4 2-12.4 2s-8.9-2.5-12.4-2-11.3 11.6-12.3 14.6 1 12.7 7.1 14c6 1.3 7.6-4 6.2-6.7-1.3-2.6-2.3-8.6 1.2-9.1 3.5-.4 5.1 4.9 3.7 8.8-1.4 3.8-6 9-2.8 11.2 3.2 2.2 6.5 3.1 9.3 3.1 2.8 0 6.1-.9 9.3-3.1 3.3-2.2-1.3-7.4-2.7-11.2zm18.4 40.6c-.1.1-7.9 2.8-24.9 2.8-17-.1-24.8-2.7-24.9-2.8l-6.3-2.3c.5.4 11.9 10 30.7 10.3h1.1c18.8-.4 30.2-9.9 30.7-10.3l-6.4 2.3zm1.4-111.3c0-.2-1.4-28 8.1-39.9l-3.9 3.8c-10 15.5-7.8 31.6-7.7 32.6l3.5 3.5zm63.9-8.4l-.2-3.4c-5.7-27.3-27.8-17.9-28.1-17.8l-3.2 1.1c1-.1 26.8-2.6 31.5 20.1zm-25.4 52.1c7.9 0 17.8-8.9 17.8-8.9l-7.4 3.3c-16.2 8.3-37.1-17.5-37.5-18.3l3 7c3.6 6.7 12.5 16.9 24.1 16.9zm-19.2-28.1c.2 0 .4-.1.6-.1 1 0 3.1.8 10.8 5.7 3 1.9 6.4 2.7 9.6 2.7 6.8 0 13.4-3.5 16.7-7.5 4.3-5.2 6.9-13.2 6.9-13.2-2.6 0-7.8-8.1-22.3-8.8h-.8c-13.9 0-21.8 21.2-21.5 21.2zm27.3-6.6c-1.9 0-3.5-1.6-3.5-3.5s1.6-3.5 3.5-3.5 3.5 1.6 3.5 3.5c0 2-1.6 3.5-3.5 3.5zm-25.1 5.2c1.2-2.5 3.7-6.3 6.9-9.6-.4 1.3-.6 2.6-.6 4.1 0 4.5 2.2 8.5 5.5 11l-1.2-.6c-4.6-3-8.7-4.1-10.6-4.9zm38-8.1c-.7 2.2-2 5.8-4.5 8.7-.7.8-1.5 1.6-2.5 2.3 1.9-2.4 3-5.3 3-8.5 0-2.6-.7-5.1-2-7.1 1.8 1.1 3.2 2.3 4.4 3.3.5.5 1 .9 1.6 1.3z"/><path d="M314.9 199.7c-1.7-.3-3.5-1-5.3-1.8-15.1-11.7-51.1-17.5-107.1-17.1h-6c-56-.4-92 5.4-107.1 17.1-1.9.8-3.6 1.5-5.3 1.8-5.3 1-12.8 3.2-12.8 3.2v12.4s6.8-.4 8.5 3.9c1.8 4.4 3.2 22.4 8.1 33.1 6.7 14.3 17.5 26 36.7 28.4 21.1 2.6 36.6-2.5 48.6-13.8 14.6-13.7 15.5-33.4 13.7-50.3 0 0 4.7-2.3 12.6-2.3 7.9 0 12.6 2.3 12.6 2.3-1.8 16.9-.9 36.6 13.7 50.3 12 11.3 27.5 16.4 48.6 13.8 19.2-2.4 30-14 36.7-28.4 4.9-10.7 6.4-28.7 8.2-33.1 1.8-4.4 8.6-3.9 8.6-3.9v-12.4c-.1 0-7.8-2.2-13-3.2zm-140.1 55.8c-6.3 10.2-20.8 20.5-42.2 20.1-21.3-.5-31.6-9.6-38-21.8-6.8-12.9-9.6-32.9-4.7-43.2 4.9-10.3 20.9-17.8 44.1-17.7 23.2.1 36.6 10.9 41.3 18.3 9.6 15 6.2 33.3-.5 44.3zm24.6-48c-6.1 0-13.4 1.1-15 1.8 0 0-5.7-13.3-27.4-18.7-10.6-2.7-20.1-3.5-28.5-3.3 17.6-2.7 40.3-4 67.9-3.9h6c27.6-.2 50.3 1.1 67.9 3.9-8.4-.3-17.9.6-28.5 3.3-21.7 5.4-27.4 18.7-27.4 18.7-1.6-.7-8.8-1.8-15-1.8zm104.9 46.2c-6.5 12.2-16.7 21.3-38 21.8s-35.9-9.8-42.2-20.1c-6.7-11-10-29.3-.4-44.4 4.7-7.4 18.1-18.1 41.3-18.3 23.2-.1 39.2 7.4 44.1 17.7 4.8 10.4 2 30.4-4.8 43.3z" fill="#dd427e"/></svg>