<svg id="Capa_1" xmlns="http://www.w3.org/2000/svg" viewBox="0 0 400 400"><style>.st0{fill:#dc427d}.st1{fill:#453b4f}.st2{fill:#241b2d}.st3{fill:#fff}.st4{fill:#d2cfc5}.st8{fill:#604935}</style><path class="st0" d="M266.2 169.5s-55 33.3-93.2 38.9l-6.7-4.6s-58.7-21.9-88.8-28.5v173.2s84.9 71.6 207.2 0c0 0 5.9-88.1 5.6-103l-24.1-76z"/><path class="st1" d="M56.8 181.9L22.5 312l31 4.6-8.5 68 67.3 4-26.8-206.7s-14.2 11.1-28.7 0z"/><path class="st2" d="M53.5 316.6l13.9-67.3L45 314z"/><path class="st1" d="M273.9 184.2l17.2-2.3 19.2 206.6-78.6 4.7z"/><path class="st2" d="M320.3 180.5l-15.6 20.8s-2.5 71.1 6.3 80.2c8.9 9.2 12.6-91.9 9.3-101z"/><path class="st3" d="M121.7 202.5s-.2 34.2-9.4 59.3l15-4.6s6.1 8.4 12.7 10.8c6.6 2.4 11.2-10.2 17.2-9.5 5.9.7 8.6 9.1 14.5 9.5 5.9.4 9.3-8.2 15.2-8.8 5.9-.7 10.6 9.1 16.5 9.1s11.9-10.5 16.5-10.5 15.8 6.6 15.8 6.6-9.7-43.6-9.8-63.7l-3.4-6s-64.8 10.8-98-6.3l-2.8 14.1z"/><path class="st4" d="M130 260.5l8.7-44.8-11.4 41.5zm27.1-2l5.3-38.9-10.1 40.9zm29.8.7v-35.7l-4.4 37.7zm28 1.3l-2.3-44.8 7.2 42.2z"/><path class="st3" d="M85.5 181.9s27.4 197.4 26.7 206.7h-10.6l-31-202.8c.1-.1 11.9-2.4 14.9-3.9zm182.1 0s-25.4 62.8-35.9 211.3h13.9s13-171.2 28.3-209l-6.3-2.3z"/><path class="st1" d="M98.1 170.7l14.2 44.2s21.8-21.8 23.8-13.2c2 8.6 6.6 14.5 13.9 9.2 7.3-5.3 9.2 5.3 11.9 7.9 2.6 2.6 7.9-2 11.2-6.6 3.3-4.6 4.5 0 9.5 4.6s8.3 4 13.6-5.9c5.3-9.9 8.6 4 12.5 4.6 4 .7 4.6-10.6 9.9-11.9 5.3-1.3 20.5 5.9 23.1 10.6 2.6 4.6 5.5-43.6 5.5-43.6s-64 56-149.1.1z"/><path d="M381.7 156.6l9.2-14.3c3.7-5.8 3.7-12.4.1-14.7l-.8-.5c-3.6-2.3-9.6.5-13.3 6.2 3.7-5.8 2-13.5-3.8-17.2l-26.2-16.7c-5.8-3.7-13.5-2-17.2 3.8 3.7-5.8 3.7-12.4.1-14.7l-.8-.5c-3.6-2.3-9.6.5-13.3 6.2l-9.2 14.3c-3.7 5.8-3.7 12.4-.1 14.7l.8.5c3.6 2.3 9.6-.5 13.3-6.2-3.7 5.8-2 13.5 3.8 17.2l6.4 4.1-33.8 49.9.1.1c-.4.4-.8.8-1.1 1.3-2.2 3.4-1.3 7.9 2.1 10.1s7.9 1.3 10.1-2.1c.3-.4.5-.9.7-1.4h.1l34-50.2 7.7 4.9c5.8 3.7 13.5 2 17.2-3.8-3.7 5.8-3.7 12.4-.1 14.7l.8.5c3.5 2.4 9.5-.4 13.2-6.2z" fill="#bb6728"/><path d="M377.8 132.1s-.3 1.2-.9 2.8c-.7 1.6-1.7 3.7-3 5.7-1.3 1.9-2.7 3.8-3.9 5.1-1.2 1.3-2.2 2-2.2 2s.3-1.2.9-2.9c.7-1.6 1.7-3.7 3-5.7 1.3-1.9 2.7-3.8 4-5.1 1.1-1.2 2.1-1.9 2.1-1.9zM330.9 102s-.3 1.2-.9 2.8c-.7 1.6-1.7 3.7-3 5.7-1.3 1.9-2.7 3.8-3.9 5.1-1.2 1.3-2.2 2-2.2 2s.3-1.2.9-2.9c.7-1.6 1.7-3.7 3-5.7 1.3-1.9 2.7-3.8 4-5.1 1.1-1.2 2.1-1.9 2.1-1.9zm11.9 44.5l-12.1-7.7-1.6 2.4z" fill="#98521e"/><path d="M123.7 194l-13.8-8.8L99 165.6l-5.6-26.3-27-12.5-8.8-11.7-25-35.4-6.1-62.4 5.9-7.2 28.9 17.1 27.3 33.3 14 18.2 22.2-13.9 27.2-7.4 63.5 3.1 19.4 9.9 44.8-38.8 39.6-21.5 5.9 7.2-2.4 33.3s-3.6 22.3-4.9 26.2c-1.3 3.9-5.1 11.9-5.1 11.9l-18.1 26.1s-6.8 9.9-9.2 12.1c-2.4 2.2-27 12.5-27 12.5l-16.3 48.8-20.9 13.1-13.5 11-12.6 15.9-19.6 6.2-23.7-7.9-11.1-9.9-17.1-22.6z" fill="#e6d2b8" stroke="#363430" stroke-width="1.5" stroke-linecap="round" stroke-miterlimit="10"/><path class="st8" d="M92.1 111.8c1.3-5.1 2.9-11.4 7.3-20.2 7.1-14.1 31.5-27.3 31.8-27.4l4.5-2.5c-.8.5-23.6 6.7-33.8 18.1-1.3-5.1 16.1-6.7 9.6-15-3.1-3.9-31.1-18.4-40.2-27.5 4.2 2.6 7.9 5 10.2 6.9 8.9 7.5 27.1 19.4 30 20.6l-8.3-7.2s-10.1-9.1-19-16.5C79.3 37 68.5 30.7 59.4 25.6 49.9 17 40.4 9.8 33.9 8.4c-4-.8-6.5.5-7.9 1.9-7.2 6.9-.8 36 3.4 60.8 3.2 19.3 15 31.8 23.6 41 3.8 4 7 7.5 8.6 10.5 5.6 10.8 27.7 20.3 28.6 20.7.2.1.5.2.8.2.5 0 1.1-.2 1.5-.6.6-.6.8-1.5.4-2.2-3.1-6.8-5.6-15.5-3.5-19.7 1-3 1.8-5.9 2.7-9.2zm-5.2 25.4c-6.6-3.3-20-8.5-23.4-15.3-1.8-3.5-5.2-7.6-9.1-11.8-8.2-8.8-19.5-20.9-22.5-38.9-2.6-15.7-6.2-45.9.2-51.9.5-.5 1.3-1 2.7-1 .5 0 .9.1 1.5.2 1.9.4 3.9 1.3 6.3 2.5 0 0 .2.1.3.2 14.6 8 37 30.3 44.9 40.3 7.7 9.8 9.8 18.7 10.3 21.7-1.1 1.5-2 2.9-2.7 4.5-4.6 9.2-7.9 16.3-9.3 21.6-.8 3.3-1.5 5.9-2.6 8.2-2.6 5 1.2 13.8 3.4 19.7zm34.2 54.2c-10.7-3.5-15.3-15.3-15.3-15.4l-2.5-5.2c.2.8.3 19.8 13.3 24.2 10.3 3.5 15.6 8.6 16.9 11.9l.3.7c0-.1-.6-12.2-12.7-16.2zm33.8-48.1l2.6-2.7c.1-.7 1.7-13.1-5.9-25.1l-3-2.9c7.4 9.1 6.4 30.5 6.3 30.7zm-24.9-22l-2.5-.8c-.2 0-17.3-7.3-21.7 13.7l-.2 2.6c3.7-17.5 23.6-15.6 24.4-15.5zm-12.8 51.4l-5.7-2.5s7.6 6.9 13.7 6.9c9 0 15.8-7.9 18.7-13.1l2.3-5.4c-.4.6-16.5 20.4-29 14.1zm6.2-33.7h-.6c-11.1.6-15.1 6.8-17.2 6.8 0 0 2 6.2 5.3 10.2 2.5 3 7.6 5.8 12.9 5.8 2.5 0 5.1-.6 7.4-2.1 5.9-3.8 7.5-4.4 8.3-4.4.2 0 .3 0 .5.1.2-.1-5.8-16.4-16.6-16.4zm-4.4 5.9c1.5 0 2.7 1.2 2.7 2.7s-1.2 2.7-2.7 2.7c-1.5 0-2.7-1.2-2.7-2.7 0-1.5 1.2-2.7 2.7-2.7zm-6.5 9.8c-1.9-2.3-2.9-5.1-3.5-6.7.4-.3.8-.6 1.2-1 .8-.8 2-1.7 3.4-2.5-1 1.6-1.5 3.5-1.5 5.5 0 2.5.9 4.8 2.3 6.6-.7-.7-1.4-1.3-1.9-1.9zm17.7 3.2c-.3.2-.6.3-.9.5 2.5-1.9 4.2-5 4.2-8.5 0-1.1-.2-2.2-.5-3.2 2.5 2.5 4.4 5.5 5.3 7.4-1.4.8-4.6 1.6-8.1 3.8zm45 4.7c11.3-.8 21.4 4.1 21.4 4.1-9.9-7.7-20.8-7.4-21.4-7.4-.5-.1-11.4-.3-21.4 7.4 0-.1 10-5 21.4-4.1zM324.5 10.1c-1.4-1.3-3.9-2.8-7.9-1.9-6.5 1.5-16 8.6-25.4 17.2-9.1 5.1-20 11.5-24.8 15.5-8.9 7.5-19 16.5-19 16.5l-8.3 7.2c2.9-1.3 21-13.2 29.9-20.6 2.2-1.9 5.9-4.3 10.2-6.9-8.9 9.2-31.1 20.1-34.3 24.1-6.5 8.2 5.1 13.3 3.8 18.4-10.3-11.4-33-17.7-33.8-18.1l4.5 2.5c.2.2 24.7 13.3 31.8 27.4 4.4 8.8 6 15.1 7.3 20.2.8 3.4 1.6 6.3 2.9 8.9 2.2 4.2-.4 13-3.5 19.7-.3.8-.2 1.6.4 2.2.4.4.9.6 1.5.6.2 0 .5-.1.8-.2.9-.4 23.1-9.9 28.6-20.7 1.5-3 4.8-6.5 8.6-10.5 8.6-9.2 20.3-21.7 23.6-41 3.9-24.4 10.4-53.5 3.1-60.5zm-5.9 61.1c-3 18-14.3 30.1-22.5 38.9-3.9 4.2-7.3 8.3-9.1 11.8-3.5 6.8-16.8 12-23.4 15.3 2.2-5.9 6-14.8 3.5-19.7-1.2-2.3-1.8-4.9-2.6-8.2-1.4-5.2-4.7-12.3-9.3-21.6-.8-1.5-1.7-3-2.7-4.5.6-3 2.7-12 10.3-21.7 7.9-10 30.3-32.3 44.9-40.3.2-.1.3-.2.3-.2 2.3-1.2 4.5-2.2 6.3-2.5.5-.2 1.1-.2 1.5-.2 1.5 0 2.2.5 2.7 1 6.3 6 2.7 36.3.1 51.9zm-89.4 120.2c-12.1 4-12.6 16.1-12.6 16.1l.3-.7c1.3-3.2 6.5-8.4 16.9-11.9 13-4.3 13.2-23.4 13.3-24.2l-2.5 5.2c-.1.2-4.7 12-15.4 15.5z"/><path class="st8" d="M196.5 153.3l-1.3-6.2c.2.7 2.4 18.5 7.6 25.7 4 5.6 12.1 25.7 7.5 36-2.7 6-11.5 11.2-18.7 11.8-6.5.5-11.8-1-14.3-4.2l-2-7.6-2 7.6c-2.5 3.2-7.9 4.9-14.3 4.2-7.2-.6-15.9-5.8-18.7-11.8-4.7-10.3 3.4-30.4 7.4-36 5.2-7.2 7.4-25 7.6-25.7l-1.3 6.2c-.9 4.5-4.9 13.6-8.9 18.7-5.5 6.9-14.6 28.1-9.3 39.8 3.5 7.7 14.3 12 22.7 12.7 1 .1 1.9.2 2.9.2 3.5 0 5.9-.3 7.8-1.2 1.2.6 3.3 1.5 5.6 1.7v.1h.9v-.1c2.3-.2 4.4-1.1 5.6-1.7 1.9.8 4.3 1.2 7.8 1.2.9 0 1.9-.1 2.9-.2 8.5-.8 19.3-5 22.7-12.7 5.3-11.7-3.9-32.9-9.3-39.8-4.1-5.1-8-14.1-8.9-18.7zm-21.3 69.6c-1.4 0-2.9-.2-4-.5 1-.8 1.9-1.9 2.9-3.2.2-.3 1.1-.8 1.1-1.2 0 .4.8.8 1.1 1.2.9 1.4 1.9 2.4 2.9 3.2-1.1.2-2.6.4-4 .5z"/><path d="M180.2 197.8c-1.1-2.9.2-7.1 2.9-6.8 2.7.3 1.9 5 .9 7s.2 6.2 4.8 5.2 6.2-8.6 5.4-10.8c-.8-2.3-6.8-10.8-9.5-11.3-2.7-.4-9.6 1.5-9.6 1.5s-6.9-1.9-9.6-1.5c-2.7.4-8.7 8.9-9.5 11.3-.8 2.3.8 9.8 5.5 10.8 4.6 1 5.9-3.1 4.8-5.2-1-2-1.8-6.6.9-7 2.7-.3 3.9 3.8 2.9 6.8-1.1 2.9-4.6 6.9-2.2 8.6s5 2.4 7.2 2.4 4.7-.7 7.2-2.4-1-5.7-2.1-8.6z" fill="#202020"/><path class="st8" d="M194.4 229.1c-.1.1-6.1 2.2-19.2 2.2-13.1-.1-19.1-2.1-19.2-2.2l-4.9-1.8c.4.3 9.2 7.7 23.7 7.9h.9c14.5-.3 23.3-7.6 23.7-7.9l-5 1.8zm1.1-85.8c0-.2-1.1-21.6 6.2-30.8l-3 2.9c-7.7 12-6 24.4-5.9 25.1l2.7 2.8zm49.2-6.5l-.2-2.6c-4.4-21-21.4-13.8-21.7-13.7l-2.5.8c.9-.1 20.8-2 24.4 15.5zM225.1 177c6.1 0 13.7-6.9 13.7-6.9l-5.7 2.5c-12.5 6.4-28.6-13.5-28.9-14.1l2.3 5.4c2.8 5.2 9.7 13.1 18.6 13.1zm-14.8-21.7c.2 0 .3-.1.5-.1.8 0 2.4.6 8.3 4.4 2.3 1.5 4.9 2.1 7.4 2.1 5.2 0 10.3-2.7 12.9-5.8 3.3-4 5.3-10.2 5.3-10.2-2 0-6-6.2-17.2-6.8h-.6c-10.7.1-16.8 16.4-16.6 16.4zm21.1-5.1c-1.5 0-2.7-1.2-2.7-2.7 0-1.5 1.2-2.7 2.7-2.7 1.5 0 2.7 1.2 2.7 2.7 0 1.6-1.2 2.7-2.7 2.7zm-19.4 4c.9-1.9 2.9-4.9 5.3-7.4-.3 1-.5 2-.5 3.2 0 3.5 1.7 6.6 4.2 8.5-.3-.2-.6-.3-.9-.5-3.4-2.3-6.6-3.1-8.1-3.8zm29.3-6.2c-.5 1.7-1.5 4.5-3.5 6.7-.5.6-1.2 1.2-1.9 1.8 1.5-1.9 2.3-4.1 2.3-6.6 0-2-.5-3.9-1.5-5.5 1.4.8 2.5 1.8 3.4 2.5.4.5.8.8 1.2 1.1z"/><path class="st3" d="M306.4 170.6l-15.9 13.1s-8.6 104.7 15.9 113.3c24.4 8.6 24.4-62.7 23.1-129.3l-9.2 13.1s5.5 101.1-9.2 101.1c-9.9-.1-4.7-111.3-4.7-111.3zm-134-121s9.9 13.2-8.6 20.5c-18.5 7.3-56.1 9.1-58.7 44.5-2.6 35.4 8.6 74.2-29.7 83.2s-44.2-56.8-32.3-74c11.9-17.3 33.7-3 35.6.4 0 0 0-8.5.7-21s1.3-29.7 37-39.6c35.5-10 53.9-18.2 56-14z"/><path class="st4" d="M165 49.1s-1.7.9-4.8 2.5c-3 1.5-7.4 3.8-12.6 6.4-5.3 2.6-11.3 5.7-17.9 8.8-3.3 1.6-6.7 3.2-10.2 4.8-3.5 1.6-7 3.3-10.2 5.3-3.3 2-6.3 4.3-8.8 7-2.6 2.7-4.6 5.7-6.3 8.9-.8 1.6-1.6 3.2-2.1 4.8l-.9 2.4c-.2.8-.5 1.6-.7 2.4-.2.8-.5 1.6-.7 2.3-.2.8-.3 1.6-.5 2.3-.3 1.5-.7 3-.8 4.4-.3 2.9-.7 5.5-.8 7.9-.2 2.4-.3 4.4-.3 6.1 0 3.4-.1 5.4-.1 5.4s-.2-1.9-.4-5.4c-.2-1.7-.2-3.8-.2-6.2-.1-2.4.1-5.1.3-8 .1-1.5.4-3 .6-4.6.1-.8.3-1.6.4-2.4l.6-2.4c.2-.8.4-1.7.6-2.5.3-.8.6-1.7.9-2.5.5-1.7 1.3-3.4 2.1-5.1 1.7-3.3 3.8-6.7 6.5-9.5 2.7-2.9 5.8-5.5 9.2-7.6 3.4-2.1 7.1-3.7 10.5-5.3 3.5-1.6 6.9-3.2 10.3-4.7 6.7-3 12.9-5.7 18.3-8.1 5.4-2.4 9.9-4.2 13-5.5 3.2-1.2 5-1.9 5-1.9z"/><path class="st3" d="M178.2 49.6s-9.9 13.2 8.6 20.5c18.5 7.3 56.1 9.1 58.7 44.5 2.6 35.4-8.6 74.2 29.7 83.2s44.2-56.8 32.3-74c-11.9-17.3-33.7-3-35.6.4 0 0 0-8.5-.7-21s-1.3-29.7-37-39.6c-35.5-10-53.9-18.2-56-14z"/><path class="st4" d="M185.6 49.1s1.8.7 5 2c3.1 1.3 7.7 3.2 13 5.5 5.3 2.4 11.6 5 18.3 8.1 3.3 1.5 6.8 3.1 10.3 4.7 3.5 1.6 7.1 3.2 10.5 5.3 3.4 2.1 6.6 4.6 9.2 7.6 2.7 2.9 4.8 6.2 6.5 9.5.8 1.7 1.6 3.3 2.1 5.1.3.8.6 1.7.9 2.5.2.8.4 1.7.6 2.5l.6 2.4c.1.8.3 1.6.4 2.4.2 1.6.6 3.1.6 4.6.3 2.9.4 5.6.3 8 0 2.4 0 4.5-.2 6.2-.3 3.4-.4 5.4-.4 5.4s0-1.9-.1-5.4c0-1.7-.1-3.8-.3-6.1-.1-2.4-.5-5-.8-7.9-.1-1.4-.5-2.9-.8-4.4-.2-.8-.3-1.5-.5-2.3-.2-.8-.5-1.6-.7-2.3-.2-.8-.5-1.6-.7-2.4l-.9-2.4c-.6-1.6-1.4-3.2-2.1-4.8-1.7-3.1-3.7-6.2-6.3-8.9-2.6-2.7-5.6-5-8.8-7-3.2-2-6.7-3.6-10.2-5.3-3.5-1.6-6.9-3.3-10.2-4.8-6.6-3.1-12.7-6.2-17.9-8.8-5.3-2.6-9.6-4.9-12.6-6.4-3.1-1.7-4.8-2.6-4.8-2.6zM90.5 165.9c-.3.4-.5.9-.8 1.3-8 12.1-24.4 15.4-36.5 7.4-9.5-6.3-12.3-18.9-6.5-28.6.2-.3.3-.5.5-.8 2.5-3.8 6.4-6.4 10.9-7.3 4.5-.9 9.1 0 12.9 2.5 6.2 4.1 8 12.4 4.3 18.7-.1.2-.2.4-.3.5-3.4 5.2-10.4 6.6-15.6 3.2-2-1.3-3.4-3.4-3.9-5.8s0-4.9 1.3-6.9c2.3-3.4 6.9-4.4 10.4-2.1 1.4.9 2.3 2.3 2.6 3.9.3 1.6 0 3.2-.9 4.6-.7 1.1-1.9 1.9-3.2 2.2-1.3.3-2.7 0-3.8-.7l.9-1.3c.8.5 1.7.7 2.6.5.9-.2 1.7-.7 2.2-1.5.8-1.1.9-2.2.7-3.4-.2-1.2-.9-2.2-2-2.9-2.7-1.8-6.4-1-8.2 1.7-1.1 1.7-1.5 3.7-1.1 5.7.4 2 1.6 3.7 3.2 4.8 4.4 2.9 10.4 1.7 13.4-2.7 3.8-5.7 2.2-13.3-3.5-17-7.1-4.7-16.8-2.8-21.5 4.4-.2.2-.3.5-.5.8-5.4 8.9-2.8 20.6 6 26.4 11.4 7.5 26.7 4.4 34.3-7 .3-.4.5-.8.8-1.2 8.5-14.2 4.4-32.7-9.5-41.9l.9-1.3c7.3 4.8 12.3 12.2 14 20.7 1.6 7.9.1 16.1-4.1 23.1z"/><path class="st4" d="M260.1 165.9c.3.4.5.9.8 1.3 8 12.1 24.4 15.4 36.5 7.4 9.5-6.3 12.3-18.9 6.5-28.6-.2-.3-.3-.5-.5-.8-2.5-3.8-6.4-6.4-10.9-7.3-4.5-.9-9.1 0-12.9 2.5-6.2 4.1-8 12.4-4.3 18.7.1.2.2.4.3.5 3.4 5.2 10.4 6.6 15.6 3.2 2-1.3 3.4-3.4 3.9-5.8s0-4.9-1.3-6.9c-2.3-3.4-6.9-4.4-10.4-2.1-1.4.9-2.3 2.3-2.6 3.9-.3 1.6 0 3.2.9 4.6.7 1.1 1.9 1.9 3.2 2.2 1.3.3 2.7 0 3.8-.7l-.9-1.3c-.8.5-1.7.7-2.6.5-.9-.2-1.7-.7-2.2-1.5-.8-1.1-.9-2.2-.7-3.4.2-1.2.9-2.2 2-2.9 2.7-1.8 6.4-1 8.2 1.7 1.1 1.7 1.5 3.7 1.1 5.7-.4 2-1.6 3.7-3.2 4.8-4.4 2.9-10.4 1.7-13.4-2.7-3.8-5.7-2.2-13.3 3.5-17 7.1-4.7 16.8-2.8 21.5 4.4.2.2.3.5.5.8 5.4 8.9 2.8 20.6-6 26.4-11.4 7.5-26.7 4.4-34.3-7-.3-.4-.5-.8-.8-1.2-8.5-14.2-4.4-32.7 9.5-41.9l-.9-1.3c-7.3 4.8-12.3 12.2-14 20.7-1.5 7.9-.1 16.1 4.1 23.1z"/><path class="st0" d="M260 125.9c-1.2-.2-2.6-.7-3.9-1.3-11.1-8.6-37.5-12.9-78.7-12.6H173c-41.1-.3-67.6 4-78.7 12.6-1.4.6-2.6 1.1-3.9 1.3-3.9.7-9.4 2.4-9.4 2.4v9.1s5-.3 6.2 2.9c1.3 3.2 2.4 16.5 6 24.3 4.9 10.5 12.9 19.1 27 20.9 15.5 1.9 26.9-1.8 35.7-10.1 10.7-10.1 11.4-24.5 10.1-37 0 0 3.5-1.7 9.3-1.7 5.8 0 9.3 1.7 9.3 1.7-1.3 12.4-.7 26.9 10.1 37 8.8 8.3 20.2 12 35.7 10.1 14.1-1.8 22-10.3 27-20.9 3.6-7.9 4.7-21.1 6-24.3 1.3-3.2 6.3-2.9 6.3-2.9v-9.1c-.3 0-5.9-1.6-9.7-2.4zm-103 41c-4.6 7.5-15.3 15.1-31 14.8-15.6-.4-23.2-7.1-27.9-16-5-9.5-7.1-24.2-3.5-31.7 3.6-7.6 15.4-13.1 32.4-13 17 .1 26.9 8 30.3 13.4 7.1 11 4.7 24.5-.3 32.5zm18.1-35.2c-4.5 0-9.8.8-11 1.3 0 0-4.2-9.8-20.1-13.7-7.8-2-14.8-2.6-20.9-2.4 12.9-2 29.6-2.9 49.9-2.9h4.4c20.3-.1 37 .8 49.9 2.9-6.2-.2-13.2.4-20.9 2.4-15.9 4-20.1 13.7-20.1 13.7-1.4-.5-6.6-1.3-11.2-1.3zm77.1 33.9c-4.8 9-12.3 15.6-27.9 16-15.6.4-26.4-7.2-31-14.8-4.9-8.1-7.3-21.5-.3-32.6 3.5-5.4 13.3-13.3 30.3-13.4 17-.1 28.8 5.4 32.4 13 3.5 7.6 1.5 22.3-3.5 31.8z"/><ellipse class="st3" cx="231.3" cy="147.5" rx="3.1" ry="2.7"/><path class="st3" d="M229.2 151.3c0 1.1-1 1.9-2.2 1.9-1.2 0-2.2-.9-2.2-1.9 0-1.1 1-1.9 2.2-1.9 1.2 0 2.2.9 2.2 1.9z"/><ellipse class="st3" cx="118.6" cy="147.8" rx="3.1" ry="2.7"/><path class="st3" d="M116.4 151.7c0 1.1-1 1.9-2.2 1.9-1.2 0-2.2-.9-2.2-1.9 0-1.1 1-1.9 2.2-1.9 1.2 0 2.2.8 2.2 1.9z"/><path d="M135.4 107l-22.3 5.3c-5.5 1.3-10.5.1-11.2-2.7-.7-2.8 3.3-6.1 8.8-7.4l22.3-5.3c5.5-1.3 10.5-.1 11.2 2.7.6 2.8-3.3 6.1-8.8 7.4zm102.4-2.1l-22.5-4.4c-5.6-1.1-9.6-4.2-9.1-7.1.5-2.8 5.5-4.2 11.1-3.1l22.5 4.4c5.6 1.1 9.6 4.2 9.1 7.1-.6 2.8-5.5 4.2-11.1 3.1z" fill="#363430"/></svg>