<?xml version="1.0" encoding="utf-8"?>
<!-- Generator: Adobe Illustrator 22.0.1, SVG Export Plug-In . SVG Version: 6.00 Build 0)  -->
<svg version="1.1" id="Capa_1" xmlns="http://www.w3.org/2000/svg" xmlns:xlink="http://www.w3.org/1999/xlink" x="0px" y="0px"
	 viewBox="0 0 400 400" style="enable-background:new 0 0 400 400;" xml:space="preserve">
<style type="text/css">
	.st0{fill:#DC427D;}
	.st1{fill:#453B4F;}
	.st2{fill:#241B2D;}
	.st3{fill:#FFFFFF;}
	.st4{fill:#D2CFC5;}
	.st5{fill:#BB6728;}
	.st6{fill:#98521E;}
	.st7{fill:#E6D2B8;stroke:#363430;stroke-width:1.5;stroke-linecap:round;stroke-miterlimit:10;}
	.st8{fill:#604935;}
	.st9{fill:#202020;}
	.st10{fill:#363430;}
</style>
<g>
	<g>
		<path class="st0" d="M266.2,169.5c0,0-55,33.3-93.2,38.9l-6.7-4.6c0,0-58.7-21.9-88.8-28.5v173.2c0,0,84.9,71.6,207.2,0
			c0,0,5.9-88.1,5.6-103L266.2,169.5z"/>
	</g>
	<g>
		<path class="st1" d="M56.8,181.9L22.5,312l31,4.6l-8.5,68l67.3,4L85.5,181.9C85.5,181.9,71.3,193,56.8,181.9z"/>
	</g>
	<g>
		<polygon class="st2" points="53.5,316.6 67.4,249.3 45,314 		"/>
	</g>
	<g>
		<polygon class="st1" points="273.9,184.2 291.1,181.9 310.3,388.5 231.7,393.2 		"/>
	</g>
	<g>
		<path class="st2" d="M320.3,180.5l-15.6,20.8c0,0-2.5,71.1,6.3,80.2C319.9,290.7,323.6,189.6,320.3,180.5z"/>
	</g>
	<g>
		<path class="st3" d="M121.7,202.5c0,0-0.2,34.2-9.4,59.3l15-4.6c0,0,6.1,8.4,12.7,10.8c6.6,2.4,11.2-10.2,17.2-9.5
			c5.9,0.7,8.6,9.1,14.5,9.5c5.9,0.4,9.3-8.2,15.2-8.8c5.9-0.7,10.6,9.1,16.5,9.1s11.9-10.5,16.5-10.5c4.6,0,15.8,6.6,15.8,6.6
			s-9.7-43.6-9.8-63.7l-3.4-6c0,0-64.8,10.8-98-6.3L121.7,202.5z"/>
	</g>
	<g>
		<polygon class="st4" points="130,260.5 138.7,215.7 127.3,257.2 		"/>
	</g>
	<g>
		<polygon class="st4" points="157.1,258.5 162.4,219.6 152.3,260.5 		"/>
	</g>
	<g>
		<polygon class="st4" points="186.9,259.2 186.9,223.5 182.5,261.2 		"/>
	</g>
	<g>
		<polygon class="st4" points="214.9,260.5 212.6,215.7 219.8,257.9 		"/>
	</g>
	<g>
		<path class="st3" d="M85.5,181.9c0,0,27.4,197.4,26.7,206.7h-10.6l-31-202.8C70.7,185.7,82.5,183.4,85.5,181.9z"/>
	</g>
	<g>
		<path class="st3" d="M267.6,181.9c0,0-25.4,62.8-35.9,211.3h13.9c0,0,13-171.2,28.3-209L267.6,181.9z"/>
	</g>
	<g>
		<path class="st1" d="M98.1,170.7l14.2,44.2c0,0,21.8-21.8,23.8-13.2c2,8.6,6.6,14.5,13.9,9.2c7.3-5.3,9.2,5.3,11.9,7.9
			c2.6,2.6,7.9-2,11.2-6.6c3.3-4.6,4.5,0,9.5,4.6c5,4.6,8.3,4,13.6-5.9c5.3-9.9,8.6,4,12.5,4.6c4,0.7,4.6-10.6,9.9-11.9
			c5.3-1.3,20.5,5.9,23.1,10.6c2.6,4.6,5.5-43.6,5.5-43.6S183.2,226.6,98.1,170.7z"/>
	</g>
	<g>
		<g>
			<path class="st5" d="M381.7,156.6l9.2-14.3c3.7-5.8,3.7-12.4,0.1-14.7l-0.8-0.5c-3.6-2.3-9.6,0.5-13.3,6.2
				c3.7-5.8,2-13.5-3.8-17.2l-26.2-16.7c-5.8-3.7-13.5-2-17.2,3.8c3.7-5.8,3.7-12.4,0.1-14.7l-0.8-0.5c-3.6-2.3-9.6,0.5-13.3,6.2
				l-9.2,14.3c-3.7,5.8-3.7,12.4-0.1,14.7l0.8,0.5c3.6,2.3,9.6-0.5,13.3-6.2c-3.7,5.8-2,13.5,3.8,17.2l6.4,4.1l-33.8,49.9l0.1,0.1
				c-0.4,0.4-0.8,0.8-1.1,1.3c-2.2,3.4-1.3,7.9,2.1,10.1s7.9,1.3,10.1-2.1c0.3-0.4,0.5-0.9,0.7-1.4l0.1,0l34-50.2l7.7,4.9
				c5.8,3.7,13.5,2,17.2-3.8c-3.7,5.8-3.7,12.4-0.1,14.7l0.8,0.5C372,165.2,378,162.4,381.7,156.6z"/>
		</g>
		<g>
			<path class="st6" d="M377.8,132.1c0,0-0.3,1.2-0.9,2.8c-0.7,1.6-1.7,3.7-3,5.7c-1.3,1.9-2.7,3.8-3.9,5.1c-1.2,1.3-2.2,2-2.2,2
				s0.3-1.2,0.9-2.9c0.7-1.6,1.7-3.7,3-5.7c1.3-1.9,2.7-3.8,4-5.1C376.8,132.8,377.8,132.1,377.8,132.1z"/>
		</g>
		<g>
			<path class="st6" d="M330.9,102c0,0-0.3,1.2-0.9,2.8c-0.7,1.6-1.7,3.7-3,5.7c-1.3,1.9-2.7,3.8-3.9,5.1c-1.2,1.3-2.2,2-2.2,2
				s0.3-1.2,0.9-2.9c0.7-1.6,1.7-3.7,3-5.7c1.3-1.9,2.7-3.8,4-5.1C329.9,102.7,330.9,102,330.9,102z"/>
		</g>
		<g>
			<polygon class="st6" points="342.8,146.5 330.7,138.8 329.1,141.2 			"/>
		</g>
	</g>
	<path class="st7" d="M123.7,194l-13.8-8.8L99,165.6l-5.6-26.3l-27-12.5l-8.8-11.7L32.6,79.7l-6.1-62.4l5.9-7.2l28.9,17.1l27.3,33.3
		l14,18.2l22.2-13.9l27.2-7.4l63.5,3.1l19.4,9.9l44.8-38.8l39.6-21.5l5.9,7.2l-2.4,33.3c0,0-3.6,22.3-4.9,26.2
		c-1.3,3.9-5.1,11.9-5.1,11.9l-18.1,26.1c0,0-6.8,9.9-9.2,12.1c-2.4,2.2-27,12.5-27,12.5l-16.3,48.8l-20.9,13.1l-13.5,11l-12.6,15.9
		l-19.6,6.2l-23.7-7.9l-11.1-9.9L123.7,194z"/>
	<g>
		<path class="st8" d="M92.1,111.8c1.3-5.1,2.9-11.4,7.3-20.2c7.1-14.1,31.5-27.3,31.8-27.4l4.5-2.5c-0.8,0.5-23.6,6.7-33.8,18.1
			c-1.3-5.1,16.1-6.7,9.6-15c-3.1-3.9-31.1-18.4-40.2-27.5c4.2,2.6,7.9,5,10.2,6.9c8.9,7.5,27.1,19.4,30,20.6l-8.3-7.2
			c0,0-10.1-9.1-19-16.5c-4.9-4.1-15.7-10.4-24.8-15.5c-9.5-8.6-19-15.8-25.5-17.2c-4-0.8-6.5,0.5-7.9,1.9c-7.2,6.9-0.8,36,3.4,60.8
			c3.2,19.3,15,31.8,23.6,41c3.8,4,7,7.5,8.6,10.5c5.6,10.8,27.7,20.3,28.6,20.7c0.2,0.1,0.5,0.2,0.8,0.2c0.5,0,1.1-0.2,1.5-0.6
			c0.6-0.6,0.8-1.5,0.4-2.2c-3.1-6.8-5.6-15.5-3.5-19.7C90.4,118,91.2,115.1,92.1,111.8z M86.9,137.2c-6.6-3.3-20-8.5-23.4-15.3
			c-1.8-3.5-5.2-7.6-9.1-11.8c-8.2-8.8-19.5-20.9-22.5-38.9c-2.6-15.7-6.2-45.9,0.2-51.9c0.5-0.5,1.3-1,2.7-1c0.5,0,0.9,0.1,1.5,0.2
			c1.9,0.4,3.9,1.3,6.3,2.5l0,0c0,0,0.2,0.1,0.3,0.2c14.6,8,37,30.3,44.9,40.3c7.7,9.8,9.8,18.7,10.3,21.7c-1.1,1.5-2,2.9-2.7,4.5
			c-4.6,9.2-7.9,16.3-9.3,21.6c-0.8,3.3-1.5,5.9-2.6,8.2C80.9,122.5,84.7,131.3,86.9,137.2z"/>
		<path class="st8" d="M121.1,191.4c-10.7-3.5-15.3-15.3-15.3-15.4l-2.5-5.2c0.2,0.8,0.3,19.8,13.3,24.2
			c10.3,3.5,15.6,8.6,16.9,11.9l0.3,0.7C133.8,207.5,133.2,195.4,121.1,191.4z"/>
		<path class="st8" d="M154.9,143.3l2.6-2.7c0.1-0.7,1.7-13.1-5.9-25.1l-3-2.9C156,121.7,155,143.1,154.9,143.3z"/>
		<path class="st8" d="M130,121.3l-2.5-0.8c-0.2,0-17.3-7.3-21.7,13.7l-0.2,2.6C109.3,119.3,129.2,121.2,130,121.3z"/>
		<path class="st8" d="M117.2,172.7l-5.7-2.5c0,0,7.6,6.9,13.7,6.9c9,0,15.8-7.9,18.7-13.1l2.3-5.4
			C145.8,159.2,129.7,179,117.2,172.7z"/>
		<path class="st8" d="M123.4,139c-0.2,0-0.4,0-0.6,0c-11.1,0.6-15.1,6.8-17.2,6.8c0,0,2,6.2,5.3,10.2c2.5,3,7.6,5.8,12.9,5.8
			c2.5,0,5.1-0.6,7.4-2.1c5.9-3.8,7.5-4.4,8.3-4.4c0.2,0,0.3,0,0.5,0.1l0,0C140.2,155.3,134.2,139,123.4,139z M119,144.9
			c1.5,0,2.7,1.2,2.7,2.7s-1.2,2.7-2.7,2.7c-1.5,0-2.7-1.2-2.7-2.7C116.3,146.1,117.5,144.9,119,144.9z M112.5,154.7
			c-1.9-2.3-2.9-5.1-3.5-6.7c0.4-0.3,0.8-0.6,1.2-1c0.8-0.8,2-1.7,3.4-2.5c-1,1.6-1.5,3.5-1.5,5.5c0,2.5,0.9,4.8,2.3,6.6
			C113.7,155.9,113,155.3,112.5,154.7z M130.2,157.9c-0.3,0.2-0.6,0.3-0.9,0.5c2.5-1.9,4.2-5,4.2-8.5c0-1.1-0.2-2.2-0.5-3.2
			c2.5,2.5,4.4,5.5,5.3,7.4C136.9,154.9,133.7,155.7,130.2,157.9z"/>
		<path class="st8" d="M175.2,162.6c11.3-0.8,21.4,4.1,21.4,4.1c-9.9-7.7-20.8-7.4-21.4-7.4c-0.5-0.1-11.4-0.3-21.4,7.4
			C153.8,166.6,163.8,161.7,175.2,162.6z"/>
		<path class="st8" d="M324.5,10.1c-1.4-1.3-3.9-2.8-7.9-1.9c-6.5,1.5-16,8.6-25.4,17.2c-9.1,5.1-20,11.5-24.8,15.5
			c-8.9,7.5-19,16.5-19,16.5l-8.3,7.2c2.9-1.3,21-13.2,29.9-20.6c2.2-1.9,5.9-4.3,10.2-6.9c-8.9,9.2-31.1,20.1-34.3,24.1
			c-6.5,8.2,5.1,13.3,3.8,18.4c-10.3-11.4-33-17.7-33.8-18.1l4.5,2.5c0.2,0.2,24.7,13.3,31.8,27.4c4.4,8.8,6,15.1,7.3,20.2
			c0.8,3.4,1.6,6.3,2.9,8.9c2.2,4.2-0.4,13-3.5,19.7c-0.3,0.8-0.2,1.6,0.4,2.2c0.4,0.4,0.9,0.6,1.5,0.6c0.2,0,0.5-0.1,0.8-0.2
			c0.9-0.4,23.1-9.9,28.6-20.7c1.5-3,4.8-6.5,8.6-10.5c8.6-9.2,20.3-21.7,23.6-41C325.3,46.2,331.8,17.1,324.5,10.1z M318.6,71.2
			c-3,18-14.3,30.1-22.5,38.9c-3.9,4.2-7.3,8.3-9.1,11.8c-3.5,6.8-16.8,12-23.4,15.3c2.2-5.9,6-14.8,3.5-19.7
			c-1.2-2.3-1.8-4.9-2.6-8.2c-1.4-5.2-4.7-12.3-9.3-21.6c-0.8-1.5-1.7-3-2.7-4.5c0.6-3,2.7-12,10.3-21.7c7.9-10,30.3-32.3,44.9-40.3
			c0.2-0.1,0.3-0.2,0.3-0.2l0,0c2.3-1.2,4.5-2.2,6.3-2.5c0.5-0.2,1.1-0.2,1.5-0.2c1.5,0,2.2,0.5,2.7,1
			C324.8,25.3,321.2,55.6,318.6,71.2z"/>
		<path class="st8" d="M229.2,191.4c-12.1,4-12.6,16.1-12.6,16.1l0.3-0.7c1.3-3.2,6.5-8.4,16.9-11.9c13-4.3,13.2-23.4,13.3-24.2
			l-2.5,5.2C244.5,176.1,239.9,187.9,229.2,191.4z"/>
		<path class="st8" d="M196.5,153.3l-1.3-6.2c0.2,0.7,2.4,18.5,7.6,25.7c4,5.6,12.1,25.7,7.5,36c-2.7,6-11.5,11.2-18.7,11.8
			c-6.5,0.5-11.8-1-14.3-4.2l-2-7.6l-2,7.6c-2.5,3.2-7.9,4.9-14.3,4.2c-7.2-0.6-15.9-5.8-18.7-11.8c-4.7-10.3,3.4-30.4,7.4-36
			c5.2-7.2,7.4-25,7.6-25.7l-1.3,6.2c-0.9,4.5-4.9,13.6-8.9,18.7c-5.5,6.9-14.6,28.1-9.3,39.8c3.5,7.7,14.3,12,22.7,12.7
			c1,0.1,1.9,0.2,2.9,0.2c3.5,0,5.9-0.3,7.8-1.2c1.2,0.6,3.3,1.5,5.6,1.7v0.1c0.2,0,0.3,0,0.5,0s0.3,0,0.4,0v-0.1
			c2.3-0.2,4.4-1.1,5.6-1.7c1.9,0.8,4.3,1.2,7.8,1.2c0.9,0,1.9-0.1,2.9-0.2c8.5-0.8,19.3-5,22.7-12.7c5.3-11.7-3.9-32.9-9.3-39.8
			C201.3,166.9,197.4,157.9,196.5,153.3z M175.2,222.9c-1.4,0-2.9-0.2-4-0.5c1-0.8,1.9-1.9,2.9-3.2c0.2-0.3,1.1-0.8,1.1-1.2
			c0,0.4,0.8,0.8,1.1,1.2c0.9,1.4,1.9,2.4,2.9,3.2C178.1,222.6,176.6,222.8,175.2,222.9z"/>
		<path class="st9" d="M180.2,197.8c-1.1-2.9,0.2-7.1,2.9-6.8c2.7,0.3,1.9,5,0.9,7s0.2,6.2,4.8,5.2c4.6-1,6.2-8.6,5.4-10.8
			c-0.8-2.3-6.8-10.8-9.5-11.3c-2.7-0.4-9.6,1.5-9.6,1.5s-6.9-1.9-9.6-1.5c-2.7,0.4-8.7,8.9-9.5,11.3c-0.8,2.3,0.8,9.8,5.5,10.8
			c4.6,1,5.9-3.1,4.8-5.2c-1-2-1.8-6.6,0.9-7c2.7-0.3,3.9,3.8,2.9,6.8c-1.1,2.9-4.6,6.9-2.2,8.6s5,2.4,7.2,2.4
			c2.2,0,4.7-0.7,7.2-2.4C184.8,204.7,181.3,200.7,180.2,197.8z"/>
		<path class="st8" d="M194.4,229.1c-0.1,0.1-6.1,2.2-19.2,2.2c-13.1-0.1-19.1-2.1-19.2-2.2l-4.9-1.8c0.4,0.3,9.2,7.7,23.7,7.9l0,0
			c0.2,0,0.3,0,0.5,0s0.3,0,0.4,0l0,0c14.5-0.3,23.3-7.6,23.7-7.9L194.4,229.1z"/>
		<path class="st8" d="M195.5,143.3c0-0.2-1.1-21.6,6.2-30.8l-3,2.9c-7.7,12-6,24.4-5.9,25.1L195.5,143.3z"/>
		<path class="st8" d="M244.7,136.8l-0.2-2.6c-4.4-21-21.4-13.8-21.7-13.7l-2.5,0.8C221.2,121.2,241.1,119.3,244.7,136.8z"/>
		<path class="st8" d="M225.1,177c6.1,0,13.7-6.9,13.7-6.9l-5.7,2.5c-12.5,6.4-28.6-13.5-28.9-14.1l2.3,5.4
			C209.3,169.1,216.2,177,225.1,177z"/>
		<path class="st8" d="M210.3,155.3L210.3,155.3c0.2,0,0.3-0.1,0.5-0.1c0.8,0,2.4,0.6,8.3,4.4c2.3,1.5,4.9,2.1,7.4,2.1
			c5.2,0,10.3-2.7,12.9-5.8c3.3-4,5.3-10.2,5.3-10.2c-2,0-6-6.2-17.2-6.8c-0.2,0-0.4,0-0.6,0C216.2,139,210.1,155.3,210.3,155.3z
			 M231.4,150.2c-1.5,0-2.7-1.2-2.7-2.7c0-1.5,1.2-2.7,2.7-2.7c1.5,0,2.7,1.2,2.7,2.7C234.1,149.1,232.9,150.2,231.4,150.2z
			 M212,154.2c0.9-1.9,2.9-4.9,5.3-7.4c-0.3,1-0.5,2-0.5,3.2c0,3.5,1.7,6.6,4.2,8.5c-0.3-0.2-0.6-0.3-0.9-0.5
			C216.7,155.7,213.5,154.9,212,154.2z M241.3,148c-0.5,1.7-1.5,4.5-3.5,6.7c-0.5,0.6-1.2,1.2-1.9,1.8c1.5-1.9,2.3-4.1,2.3-6.6
			c0-2-0.5-3.9-1.5-5.5c1.4,0.8,2.5,1.8,3.4,2.5C240.5,147.4,240.9,147.7,241.3,148z"/>
	</g>
	<g>
		<path class="st3" d="M306.4,170.6l-15.9,13.1c0,0-8.6,104.7,15.9,113.3c24.4,8.6,24.4-62.7,23.1-129.3l-9.2,13.1
			c0,0,5.5,101.1-9.2,101.1C301.2,281.8,306.4,170.6,306.4,170.6z"/>
	</g>
	<g>
		<g>
			<path class="st3" d="M172.4,49.6c0,0,9.9,13.2-8.6,20.5c-18.5,7.3-56.1,9.1-58.7,44.5c-2.6,35.4,8.6,74.2-29.7,83.2
				c-38.3,9-44.2-56.8-32.3-74c11.9-17.3,33.7-3,35.6,0.4c0,0,0-8.5,0.7-21c0.7-12.5,1.3-29.7,37-39.6
				C151.9,53.6,170.3,45.4,172.4,49.6z"/>
		</g>
		<g>
			<path class="st4" d="M165,49.1c0,0-1.7,0.9-4.8,2.5c-3,1.5-7.4,3.8-12.6,6.4c-5.3,2.6-11.3,5.7-17.9,8.8
				c-3.3,1.6-6.7,3.2-10.2,4.8c-3.5,1.6-7,3.3-10.2,5.3c-3.3,2-6.3,4.3-8.8,7c-2.6,2.7-4.6,5.7-6.3,8.9c-0.8,1.6-1.6,3.2-2.1,4.8
				c-0.3,0.8-0.6,1.6-0.9,2.4c-0.2,0.8-0.5,1.6-0.7,2.4c-0.2,0.8-0.5,1.6-0.7,2.3c-0.2,0.8-0.3,1.6-0.5,2.3c-0.3,1.5-0.7,3-0.8,4.4
				c-0.3,2.9-0.7,5.5-0.8,7.9c-0.2,2.4-0.3,4.4-0.3,6.1c0,3.4-0.1,5.4-0.1,5.4s-0.2-1.9-0.4-5.4c-0.2-1.7-0.2-3.8-0.2-6.2
				c-0.1-2.4,0.1-5.1,0.3-8c0.1-1.5,0.4-3,0.6-4.6c0.1-0.8,0.3-1.6,0.4-2.4c0.2-0.8,0.4-1.6,0.6-2.4c0.2-0.8,0.4-1.7,0.6-2.5
				c0.3-0.8,0.6-1.7,0.9-2.5c0.5-1.7,1.3-3.4,2.1-5.1c1.7-3.3,3.8-6.7,6.5-9.5c2.7-2.9,5.8-5.5,9.2-7.6c3.4-2.1,7.1-3.7,10.5-5.3
				c3.5-1.6,6.9-3.2,10.3-4.7c6.7-3,12.9-5.7,18.3-8.1c5.4-2.4,9.9-4.2,13-5.5C163.2,49.8,165,49.1,165,49.1z"/>
		</g>
		<g>
			<path class="st3" d="M178.2,49.6c0,0-9.9,13.2,8.6,20.5c18.5,7.3,56.1,9.1,58.7,44.5c2.6,35.4-8.6,74.2,29.7,83.2
				c38.3,9,44.2-56.8,32.3-74c-11.9-17.3-33.7-3-35.6,0.4c0,0,0-8.5-0.7-21c-0.7-12.5-1.3-29.7-37-39.6
				C198.7,53.6,180.3,45.4,178.2,49.6z"/>
		</g>
		<g>
			<path class="st4" d="M185.6,49.1c0,0,1.8,0.7,5,2c3.1,1.3,7.7,3.2,13,5.5c5.3,2.4,11.6,5,18.3,8.1c3.3,1.5,6.8,3.1,10.3,4.7
				c3.5,1.6,7.1,3.2,10.5,5.3c3.4,2.1,6.6,4.6,9.2,7.6c2.7,2.9,4.8,6.2,6.5,9.5c0.8,1.7,1.6,3.3,2.1,5.1c0.3,0.8,0.6,1.7,0.9,2.5
				c0.2,0.8,0.4,1.7,0.6,2.5c0.2,0.8,0.4,1.6,0.6,2.4c0.1,0.8,0.3,1.6,0.4,2.4c0.2,1.6,0.6,3.1,0.6,4.6c0.3,2.9,0.4,5.6,0.3,8
				c0,2.4,0,4.5-0.2,6.2c-0.3,3.4-0.4,5.4-0.4,5.4s0-1.9-0.1-5.4c0-1.7-0.1-3.8-0.3-6.1c-0.1-2.4-0.5-5-0.8-7.9
				c-0.1-1.4-0.5-2.9-0.8-4.4c-0.2-0.8-0.3-1.5-0.5-2.3c-0.2-0.8-0.5-1.6-0.7-2.3c-0.2-0.8-0.5-1.6-0.7-2.4
				c-0.3-0.8-0.6-1.6-0.9-2.4c-0.6-1.6-1.4-3.2-2.1-4.8c-1.7-3.1-3.7-6.2-6.3-8.9c-2.6-2.7-5.6-5-8.8-7c-3.2-2-6.7-3.6-10.2-5.3
				c-3.5-1.6-6.9-3.3-10.2-4.8c-6.6-3.1-12.7-6.2-17.9-8.8c-5.3-2.6-9.6-4.9-12.6-6.4C187.3,50,185.6,49.1,185.6,49.1z"/>
		</g>
		<g>
			<g>
				<path class="st4" d="M90.5,165.9c-0.3,0.4-0.5,0.9-0.8,1.3c-8,12.1-24.4,15.4-36.5,7.4c-9.5-6.3-12.3-18.9-6.5-28.6
					c0.2-0.3,0.3-0.5,0.5-0.8c2.5-3.8,6.4-6.4,10.9-7.3c4.5-0.9,9.1,0,12.9,2.5c6.2,4.1,8,12.4,4.3,18.7c-0.1,0.2-0.2,0.4-0.3,0.5
					c-3.4,5.2-10.4,6.6-15.6,3.2c-2-1.3-3.4-3.4-3.9-5.8c-0.5-2.4,0-4.9,1.3-6.9c2.3-3.4,6.9-4.4,10.4-2.1c1.4,0.9,2.3,2.3,2.6,3.9
					c0.3,1.6,0,3.2-0.9,4.6c-0.7,1.1-1.9,1.9-3.2,2.2c-1.3,0.3-2.7,0-3.8-0.7l0.9-1.3c0.8,0.5,1.7,0.7,2.6,0.5
					c0.9-0.2,1.7-0.7,2.2-1.5c0.8-1.1,0.9-2.2,0.7-3.4c-0.2-1.2-0.9-2.2-2-2.9c-2.7-1.8-6.4-1-8.2,1.7c-1.1,1.7-1.5,3.7-1.1,5.7
					c0.4,2,1.6,3.7,3.2,4.8c4.4,2.9,10.4,1.7,13.4-2.7c3.8-5.7,2.2-13.3-3.5-17c-7.1-4.7-16.8-2.8-21.5,4.4
					c-0.2,0.2-0.3,0.5-0.5,0.8c-5.4,8.9-2.8,20.6,6,26.4c11.4,7.5,26.7,4.4,34.3-7c0.3-0.4,0.5-0.8,0.8-1.2
					c8.5-14.2,4.4-32.7-9.5-41.9l0.9-1.3c7.3,4.8,12.3,12.2,14,20.7C96.2,150.7,94.7,158.9,90.5,165.9z"/>
			</g>
		</g>
		<g>
			<g>
				<path class="st4" d="M260.1,165.9c0.3,0.4,0.5,0.9,0.8,1.3c8,12.1,24.4,15.4,36.5,7.4c9.5-6.3,12.3-18.9,6.5-28.6
					c-0.2-0.3-0.3-0.5-0.5-0.8c-2.5-3.8-6.4-6.4-10.9-7.3c-4.5-0.9-9.1,0-12.9,2.5c-6.2,4.1-8,12.4-4.3,18.7
					c0.1,0.2,0.2,0.4,0.3,0.5c3.4,5.2,10.4,6.6,15.6,3.2c2-1.3,3.4-3.4,3.9-5.8c0.5-2.4,0-4.9-1.3-6.9c-2.3-3.4-6.9-4.4-10.4-2.1
					c-1.4,0.9-2.3,2.3-2.6,3.9c-0.3,1.6,0,3.2,0.9,4.6c0.7,1.1,1.9,1.9,3.2,2.2c1.3,0.3,2.7,0,3.8-0.7l-0.9-1.3
					c-0.8,0.5-1.7,0.7-2.6,0.5c-0.9-0.2-1.7-0.7-2.2-1.5c-0.8-1.1-0.9-2.2-0.7-3.4c0.2-1.2,0.9-2.2,2-2.9c2.7-1.8,6.4-1,8.2,1.7
					c1.1,1.7,1.5,3.7,1.1,5.7c-0.4,2-1.6,3.7-3.2,4.8c-4.4,2.9-10.4,1.7-13.4-2.7c-3.8-5.7-2.2-13.3,3.5-17
					c7.1-4.7,16.8-2.8,21.5,4.4c0.2,0.2,0.3,0.5,0.5,0.8c5.4,8.9,2.8,20.6-6,26.4c-11.4,7.5-26.7,4.4-34.3-7
					c-0.3-0.4-0.5-0.8-0.8-1.2c-8.5-14.2-4.4-32.7,9.5-41.9l-0.9-1.3c-7.3,4.8-12.3,12.2-14,20.7
					C254.5,150.7,255.9,158.9,260.1,165.9z"/>
			</g>
		</g>
	</g>
	<g>
		<path class="st0" d="M260,125.9c-1.2-0.2-2.6-0.7-3.9-1.3c-11.1-8.6-37.5-12.9-78.7-12.6c-0.9,0-1.6,0-2.2,0c-0.6,0-1.3,0-2.2,0
			c-41.1-0.3-67.6,4-78.7,12.6c-1.4,0.6-2.6,1.1-3.9,1.3c-3.9,0.7-9.4,2.4-9.4,2.4v9.1c0,0,5-0.3,6.2,2.9c1.3,3.2,2.4,16.5,6,24.3
			c4.9,10.5,12.9,19.1,27,20.9c15.5,1.9,26.9-1.8,35.7-10.1c10.7-10.1,11.4-24.5,10.1-37c0,0,3.5-1.7,9.3-1.7c5.8,0,9.3,1.7,9.3,1.7
			c-1.3,12.4-0.7,26.9,10.1,37c8.8,8.3,20.2,12,35.7,10.1c14.1-1.8,22-10.3,27-20.9c3.6-7.9,4.7-21.1,6-24.3
			c1.3-3.2,6.3-2.9,6.3-2.9v-9.1C269.4,128.3,263.8,126.7,260,125.9z M157,166.9c-4.6,7.5-15.3,15.1-31,14.8
			c-15.6-0.4-23.2-7.1-27.9-16c-5-9.5-7.1-24.2-3.5-31.7c3.6-7.6,15.4-13.1,32.4-13c17,0.1,26.9,8,30.3,13.4
			C164.4,145.4,162,158.9,157,166.9z M175.1,131.7c-4.5,0-9.8,0.8-11,1.3c0,0-4.2-9.8-20.1-13.7c-7.8-2-14.8-2.6-20.9-2.4
			c12.9-2,29.6-2.9,49.9-2.9c0.9,0,1.6,0,2.2,0c0.6,0,1.3,0,2.2,0c20.3-0.1,37,0.8,49.9,2.9c-6.2-0.2-13.2,0.4-20.9,2.4
			c-15.9,4-20.1,13.7-20.1,13.7C184.9,132.5,179.7,131.7,175.1,131.7z M252.2,165.6c-4.8,9-12.3,15.6-27.9,16
			c-15.6,0.4-26.4-7.2-31-14.8c-4.9-8.1-7.3-21.5-0.3-32.6c3.5-5.4,13.3-13.3,30.3-13.4c17-0.1,28.8,5.4,32.4,13
			C259.2,141.4,257.2,156.1,252.2,165.6z"/>
	</g>
	<ellipse class="st3" cx="231.3" cy="147.5" rx="3.1" ry="2.7"/>
	<path class="st3" d="M229.2,151.3c0,1.1-1,1.9-2.2,1.9c-1.2,0-2.2-0.9-2.2-1.9c0-1.1,1-1.9,2.2-1.9
		C228.2,149.4,229.2,150.3,229.2,151.3z"/>
	<ellipse class="st3" cx="118.6" cy="147.8" rx="3.1" ry="2.7"/>
	<path class="st3" d="M116.4,151.7c0,1.1-1,1.9-2.2,1.9c-1.2,0-2.2-0.9-2.2-1.9c0-1.1,1-1.9,2.2-1.9
		C115.4,149.8,116.4,150.6,116.4,151.7z"/>
	<path class="st10" d="M135.4,107l-22.3,5.3c-5.5,1.3-10.5,0.1-11.2-2.7c-0.7-2.8,3.3-6.1,8.8-7.4l22.3-5.3
		c5.5-1.3,10.5-0.1,11.2,2.7C144.8,102.4,140.9,105.7,135.4,107z"/>
	<path class="st10" d="M237.8,104.9l-22.5-4.4c-5.6-1.1-9.6-4.2-9.1-7.1c0.5-2.8,5.5-4.2,11.1-3.1l22.5,4.4c5.6,1.1,9.6,4.2,9.1,7.1
		C248.3,104.6,243.4,106,237.8,104.9z"/>
</g>
</svg>
