<svg version="1" xmlns="http://www.w3.org/2000/svg" width="300" height="90.667"><path fill="#E62679" d="M279.061 82.405h6.21l-2.996-7.946-3.214 7.946zm-2.608 6.412h-2.063l7.018-17.106h2.234l6.472 17.106h-2.406l-1.77-4.704h-7.542l-1.943 4.704zm-177.054.23l-20.466-69.82-25.731 69.82H43.055L75.356 2.01l8.546-.046 25.662 87.083H99.399zM11.894 1.7L32.36 71.518 58.091 1.7h10.147L35.937 88.736l-8.547.046L1.729 1.7h10.165zm89.539 0l20.466 69.818L147.628 1.7h10.15l-32.304 87.036-8.545.046L91.268 1.7h10.165zm87.505 87.347l-20.468-69.82-25.731 69.82h-10.146l32.3-87.038 8.547-.046 25.662 87.083h-10.164zm19.282-38.529h2.063l-6.97 17.106h-2.234l-6.52-17.106h2.423l5.432 14.343 5.806-14.343zm.732 17.107h-2.065l7.016-17.106h2.236l6.472 17.106h-2.404l-1.77-4.704h-7.546l-1.939 4.704zm2.608-6.413h6.208l-2.996-7.946-3.212 7.946zm15.215 6.413h-2.05V50.518h2.204l7.823 12.154.715 1.365-.048-1.35v-12.17h2.048v17.106h-2.173l-7.839-12.216-.711-1.367.03 1.367v12.218zm15.422 0V50.518h9.671v1.879h-7.437v5.4h6.488v1.707h-6.488v6.241h8.025v1.879h-10.259zm13.26-3.851h2.236v.108c0 .953.331 1.615.994 1.988.671.373 1.562.558 2.669.558.974 0 1.785-.285 2.437-.854.662-.568.993-1.313.995-2.234 0-.754-.285-1.371-.854-1.846-.56-.466-1.419-.938-2.577-1.414l-.884-.355c-1.212-.498-2.118-.988-2.718-1.477-.6-.496-1.05-1.039-1.35-1.629-.291-.601-.436-1.268-.436-2.002 0-1.293.456-2.385 1.366-3.275.921-.891 2.355-1.335 4.3-1.337 1.79 0 3.048.333 3.771.996.725.662 1.086 1.432 1.088 2.312v.124h-2.221v-.124c0-.28-.113-.554-.341-.822-.229-.27-.565-.466-1.01-.589a5.441 5.441 0 0 0-1.475-.188c-1.097 0-1.908.277-2.437.823-.518.55-.775 1.175-.775 1.879 0 .465.123.905.371 1.319.248.413.591.76 1.025 1.04.435.27 1.169.631 2.204 1.085l1.056.45c1.675.727 2.794 1.492 3.352 2.298.56.798.839 1.661.839 2.594 0 .858-.228 1.69-.683 2.497a4.489 4.489 0 0 1-1.895 1.816c-.808.414-1.883.622-3.227.622-1.273 0-2.341-.154-3.198-.466-.86-.3-1.512-.796-1.956-1.49a4.164 4.164 0 0 1-.669-2.298v-.109zm14.1 0h2.235v.108c0 .953.33 1.615.992 1.988.673.373 1.563.558 2.671.558.971 0 1.785-.285 2.437-.854.661-.568.992-1.313.992-2.234 0-.754-.284-1.371-.854-1.846-.558-.466-1.415-.938-2.575-1.414l-.885-.355c-1.211-.498-2.117-.988-2.717-1.477-.601-.496-1.051-1.039-1.351-1.629a4.573 4.573 0 0 1-.435-2.002c0-1.293.456-2.385 1.365-3.275.922-.891 2.354-1.335 4.301-1.337 1.79 0 3.046.333 3.772.996.724.662 1.085 1.432 1.085 2.312v.124h-2.22v-.124c0-.28-.113-.554-.342-.822-.228-.27-.562-.466-1.008-.589a5.447 5.447 0 0 0-1.473-.188c-1.101 0-1.912.277-2.438.823-.518.55-.777 1.175-.777 1.879 0 .465.125.905.373 1.319.25.413.591.76 1.025 1.04.435.27 1.169.631 2.203 1.085l1.056.45c1.678.727 2.795 1.492 3.354 2.298.558.798.836 1.661.836 2.594 0 .858-.229 1.69-.683 2.497a4.487 4.487 0 0 1-1.892 1.816c-.808.414-1.885.622-3.231.622-1.272 0-2.338-.154-3.196-.466-.859-.3-1.511-.796-1.955-1.49s-.668-1.46-.668-2.298v-.109zm14.779 3.851h-2.063l7.016-17.106h2.234l6.474 17.106h-2.408l-1.77-4.704h-7.542l-1.941 4.704zm2.607-6.413h6.21l-2.996-7.946-3.214 7.946zM215.837 71.71h2.065l-6.97 17.106h-2.234l-6.52-17.106h2.42l5.435 14.341 5.804-14.341zm6.15 17.107h-2.235V71.71h2.235v17.107zm13.475-2.05v2.05h-11.113v-2.05l8.506-13.178h-7.902V71.71h10.339v1.879l-8.442 13.178h8.612zm11.656-1.854h2.048v.108c0 .665-.232 1.348-.698 2.044a4.025 4.025 0 0 1-1.894 1.506c-.799.327-1.739.492-2.825.492-2.173 0-3.954-.746-5.339-2.244-1.377-1.496-2.065-3.74-2.065-6.733 0-2.973.688-5.211 2.065-6.719 1.375-1.508 3.162-2.26 5.354-2.26 1.076 0 2.011.163 2.81.492a3.968 3.968 0 0 1 1.894 1.537c.466.695.698 1.369.698 2.015v.108h-2.048v-.108c0-.411-.135-.804-.404-1.185-.259-.388-.63-.681-1.119-.877-.484-.194-1.069-.292-1.754-.292-1.748 0-3.052.688-3.911 2.062-.857 1.361-1.289 3.104-1.289 5.227 0 2.143.432 3.893 1.289 5.258.869 1.353 2.169 2.029 3.896 2.029 1.19 0 2.034-.24 2.53-.723.508-.491.762-1.035.762-1.629v-.108zm4.671 3.904h-2.063l7.016-17.106h2.234l6.474 17.106h-2.406l-1.769-4.704h-7.545l-1.941 4.704zm2.608-6.412h6.209l-2.996-7.946-3.213 7.946zm16.649 6.412h-2.22v-8.058l-5.542-9.049h2.592l4.285 6.906 4.221-6.906h2.158l-5.494 9.049v8.058z"/><path fill="none" stroke="#E62679" stroke-width=".135" stroke-miterlimit="3.864" d="M279.061 82.405h6.21l-2.996-7.946-3.214 7.946zm-2.608 6.412h-2.063l7.018-17.106h2.234l6.472 17.106h-2.406l-1.77-4.704h-7.542l-1.943 4.704zm-177.054.23l-20.466-69.82-25.731 69.82H43.055L75.356 2.01l8.546-.046 25.662 87.083H99.399zM11.894 1.7L32.36 71.518 58.091 1.7h10.147L35.937 88.736l-8.547.046L1.729 1.7h10.165zm89.539 0l20.466 69.818L147.628 1.7h10.15l-32.304 87.036-8.545.046L91.268 1.7h10.165zm87.505 87.347l-20.468-69.82-25.731 69.82h-10.146l32.3-87.038 8.547-.046 25.662 87.083h-10.164zm19.282-38.529h2.063l-6.97 17.106h-2.234l-6.52-17.106h2.423l5.432 14.343 5.806-14.343zm.732 17.107h-2.065l7.016-17.106h2.236l6.472 17.106h-2.404l-1.77-4.704h-7.546l-1.939 4.704zm2.608-6.413h6.208l-2.996-7.946-3.212 7.946zm15.215 6.413h-2.05V50.518h2.204l7.823 12.154.715 1.365-.048-1.35v-12.17h2.048v17.106h-2.173l-7.839-12.216-.711-1.367.03 1.367v12.218zm15.422 0V50.518h9.671v1.879h-7.437v5.4h6.488v1.707h-6.488v6.241h8.025v1.879h-10.259zm13.26-3.851h2.236v.108c0 .953.331 1.615.994 1.988.671.373 1.562.558 2.669.558.974 0 1.785-.285 2.437-.854.662-.568.993-1.313.995-2.234 0-.754-.285-1.371-.854-1.846-.56-.466-1.419-.938-2.577-1.414l-.884-.355c-1.212-.498-2.118-.988-2.718-1.477-.6-.496-1.05-1.039-1.35-1.629-.291-.601-.436-1.268-.436-2.002 0-1.293.456-2.385 1.366-3.275.921-.891 2.355-1.335 4.3-1.337 1.79 0 3.048.333 3.771.996.725.662 1.086 1.432 1.088 2.312v.124h-2.221v-.124c0-.28-.113-.554-.341-.822-.229-.27-.565-.466-1.01-.589a5.441 5.441 0 0 0-1.475-.188c-1.097 0-1.908.277-2.437.823-.518.55-.775 1.175-.775 1.879 0 .465.123.905.371 1.319.248.413.591.76 1.025 1.04.435.27 1.169.631 2.204 1.085l1.056.45c1.675.727 2.794 1.492 3.352 2.298.56.798.839 1.661.839 2.594 0 .858-.228 1.69-.683 2.497a4.489 4.489 0 0 1-1.895 1.816c-.808.414-1.883.622-3.227.622-1.273 0-2.341-.154-3.198-.466-.86-.3-1.512-.796-1.956-1.49a4.164 4.164 0 0 1-.669-2.298v-.109zm14.1 0h2.235v.108c0 .953.33 1.615.992 1.988.673.373 1.563.558 2.671.558.971 0 1.785-.285 2.437-.854.661-.568.992-1.313.992-2.234 0-.754-.284-1.371-.854-1.846-.558-.466-1.415-.938-2.575-1.414l-.885-.355c-1.211-.498-2.117-.988-2.717-1.477-.601-.496-1.051-1.039-1.351-1.629a4.573 4.573 0 0 1-.435-2.002c0-1.293.456-2.385 1.365-3.275.922-.891 2.354-1.335 4.301-1.337 1.79 0 3.046.333 3.772.996.724.662 1.085 1.432 1.085 2.312v.124h-2.22v-.124c0-.28-.113-.554-.342-.822-.228-.27-.562-.466-1.008-.589a5.447 5.447 0 0 0-1.473-.188c-1.101 0-1.912.277-2.438.823-.518.55-.777 1.175-.777 1.879 0 .465.125.905.373 1.319.25.413.591.76 1.025 1.04.435.27 1.169.631 2.203 1.085l1.056.45c1.678.727 2.795 1.492 3.354 2.298.558.798.836 1.661.836 2.594 0 .858-.229 1.69-.683 2.497a4.487 4.487 0 0 1-1.892 1.816c-.808.414-1.885.622-3.231.622-1.272 0-2.338-.154-3.196-.466-.859-.3-1.511-.796-1.955-1.49s-.668-1.46-.668-2.298v-.109zm14.779 3.851h-2.063l7.016-17.106h2.234l6.474 17.106h-2.408l-1.77-4.704h-7.542l-1.941 4.704zm2.607-6.413h6.21l-2.996-7.946-3.214 7.946zM215.837 71.71h2.065l-6.97 17.106h-2.234l-6.52-17.106h2.42l5.435 14.341 5.804-14.341zm6.15 17.107h-2.235V71.71h2.235v17.107zm13.475-2.05v2.05h-11.113v-2.05l8.506-13.178h-7.902V71.71h10.339v1.879l-8.442 13.178h8.612zm11.656-1.854h2.048v.108c0 .665-.232 1.348-.698 2.044a4.025 4.025 0 0 1-1.894 1.506c-.799.327-1.739.492-2.825.492-2.173 0-3.954-.746-5.339-2.244-1.377-1.496-2.065-3.74-2.065-6.733 0-2.973.688-5.211 2.065-6.719 1.375-1.508 3.162-2.26 5.354-2.26 1.076 0 2.011.163 2.81.492a3.968 3.968 0 0 1 1.894 1.537c.466.695.698 1.369.698 2.015v.108h-2.048v-.108c0-.411-.135-.804-.404-1.185-.259-.388-.63-.681-1.119-.877-.484-.194-1.069-.292-1.754-.292-1.748 0-3.052.688-3.911 2.062-.857 1.361-1.289 3.104-1.289 5.227 0 2.143.432 3.893 1.289 5.258.869 1.353 2.169 2.029 3.896 2.029 1.19 0 2.034-.24 2.53-.723.508-.491.762-1.035.762-1.629v-.108zm4.671 3.904h-2.063l7.016-17.106h2.234l6.474 17.106h-2.406l-1.769-4.704h-7.545l-1.941 4.704zm2.608-6.412h6.209l-2.996-7.946-3.213 7.946zm16.649 6.412h-2.22v-8.058l-5.542-9.049h2.592l4.285 6.906 4.221-6.906h2.158l-5.494 9.049v8.058z"/></svg>