<?xml version="1.0" encoding="utf-8"?>
<!-- Generator: Adobe Illustrator 22.0.1, SVG Export Plug-In . SVG Version: 6.00 Build 0)  -->
<svg version="1.1" id="Capa_1" xmlns="http://www.w3.org/2000/svg" xmlns:xlink="http://www.w3.org/1999/xlink" x="0px" y="0px"
	 viewBox="0 0 532 468" style="enable-background:new 0 0 532 468;" xml:space="preserve">
<style type="text/css">
	.st0{fill:#5D9CB9;}
	.st1{fill:#F0CF59;}
	.st2{fill:#CA4A62;}
	.st3{fill:#59595B;}
	.st4{fill:#B41B59;}
	.st5{fill:#FFFFFF;}
	.st6{fill:#E7AD47;}
	.st7{fill:#4070B7;}
	.st8{fill:none;stroke:#59595B;stroke-width:0.5;stroke-miterlimit:10;}
	.st9{fill:#453B4F;}
	.st10{fill:#CACACA;}
	.st11{fill:#604935;stroke:#363430;stroke-width:1.5;stroke-linecap:round;stroke-miterlimit:10;}
	.st12{fill:#E4D0B6;stroke:#363430;stroke-width:1.5;stroke-linecap:round;stroke-miterlimit:10;}
	.st13{fill:#E4D0B6;stroke:#363430;stroke-width:1.5;stroke-linecap:round;stroke-linejoin:round;stroke-miterlimit:10;}
	.st14{clip-path:url(#SVGID_2_);}
	.st15{fill:#604935;stroke:#363430;stroke-linecap:round;stroke-miterlimit:10;}
	.st16{fill:#FFFFFF;stroke:#363430;stroke-linecap:round;stroke-miterlimit:10;}
	.st17{fill:#363430;stroke:#363430;stroke-linecap:round;stroke-miterlimit:10;}
	.st18{fill:#363430;}
	.st19{fill:none;stroke:#363430;stroke-width:1.5;stroke-linecap:round;stroke-miterlimit:10;}
	.st20{fill:#363430;stroke:#363430;stroke-width:1.5;stroke-linecap:round;stroke-miterlimit:10;}
	.st21{fill:#FFFFFF;stroke:#363430;stroke-width:1.5;stroke-linecap:round;stroke-miterlimit:10;}
	.st22{fill:#DC427D;stroke:#363430;stroke-width:1.5;stroke-linecap:round;stroke-linejoin:round;stroke-miterlimit:10;}
	.st23{fill:#E4CC71;stroke:#363430;stroke-width:1.5;stroke-linecap:round;stroke-linejoin:round;stroke-miterlimit:10;}
	.st24{fill:none;stroke:#363430;stroke-width:1.5;stroke-linecap:round;stroke-linejoin:round;stroke-miterlimit:10;}
	.st25{fill:#DC427D;stroke:#363430;stroke-width:1.5;stroke-linecap:round;stroke-miterlimit:10;}
</style>
<g>
	<g>
		<path class="st0" d="M137,69.5c-3,27.8-21.5,54-40.6,51.9C77.3,119.4,64.9,89.8,67.8,62s19.9-39.4,39-37.4
			C126,26.7,140,41.7,137,69.5z"/>
		<path class="st1" d="M73.6,60.5c5.2,27.5-4.8,57.9-23.7,61.5C31,125.6,10.5,101,5.3,73.6s7.5-43.5,26.4-47.2S68.4,33.1,73.6,60.5z
			"/>
		<path class="st2" d="M102.1,44.1c0.5,27.9-14.6,56.2-33.9,56.6C49.1,101,33,73.2,32.5,45.3C32.1,17.3,47.4,3.6,66.6,3.3
			C85.8,3,101.7,16.2,102.1,44.1z"/>
		<g>
			<g>
				<path class="st3" d="M68.2,100c-1.1-1.2-4.7-1.4-6.2-1.1c-1.5,0.3-2,1.9-1.8,3.5c0.2,1.5,1.8,1.9,3.2,1.8
					c2.5-0.1,3.7-2.4,5.7-3.7c0.2-0.2,0-0.5-0.2-0.4c-2,1.3-3.3,3.7-6,3.6c-1.1,0-2.6-1-2.2-2.3c0.6-0.7,1.2-1.3,1.8-2
					c0.4,0,0.8,0,1.2,0c1.2,0.1,3.3-0.1,4.3,0.9C68.1,100.7,68.4,100.2,68.2,100L68.2,100z"/>
			</g>
		</g>
		<g>
			<g>
				<path class="st3" d="M68.6,100.6c1.7-1.3,6.3-3.6,7.6-0.6c1.3,3-2.7,2-3.8,1.7c-1.3-0.5-2.5-1.1-3.8-1.8
					c-0.2-0.1-0.5,0.2-0.2,0.4c1.2,0.7,8.8,4.6,8.6,0.9c0-1.4-1.3-2.8-2.7-2.9c-2.1-0.2-4.3,0.8-6,2.1
					C68.2,100.3,68.4,100.7,68.6,100.6L68.6,100.6z"/>
			</g>
		</g>
		<g>
			<g>
				<path class="st3" d="M68.7,100c0.2,1.8-1.7,4-2.5,5.5c-0.6,1.1-1.2,2.3-1.6,3.6c-1,2.6-1.3,5.4-1.4,8.1c0,0.3,0.4,0.3,0.5,0
					c0-3.8,0.9-7.5,2.6-10.9c1-1.9,3.2-3.9,2.8-6.2C69.1,99.7,68.7,99.7,68.7,100L68.7,100z"/>
			</g>
		</g>
		<g>
			<g>
				<path class="st3" d="M69.3,100c2.5,4.3,4,8.8,4.4,13.7c0,0.3,0.5,0.3,0.4,0c-0.4-5-1.8-9.7-4.4-14.1
					C69.5,99.5,69.1,99.8,69.3,100L69.3,100z"/>
			</g>
		</g>
		<g>
			<g>
				<g>
					<path class="st3" d="M98.6,121.4c-1.1-1.3-3.6-1.3-5.2-1.4c-1.2-0.1-3.2,0.1-3.4,1.8c-0.1,1,0.6,1.5,1.5,1.6c1,0.1,2,0.1,3-0.2
						c1.4-0.4,2.6-1.9,4.1-1.2c0.3,0.1,0.5-0.3,0.2-0.4c-1.9-0.9-3.6,1.2-5.5,1.3c-0.4,0-1.4,0.1-1.8,0c-0.6-1.8-0.2-2.6,1.3-2.4
						c0.2,0,0.4,0,0.6,0c1.3,0.1,3.8,0.2,4.9,1.2C98.5,121.9,98.8,121.6,98.6,121.4L98.6,121.4z"/>
				</g>
			</g>
			<g>
				<g>
					<path class="st3" d="M98.9,121.6c0.8-0.8,1.7-1.5,2.7-2.1c0.6-0.3,3.1-1.3,3.7-0.7c-0.1,0.6-0.1,1.3-0.2,1.9
						c-0.3,0.1-0.6,0.2-0.8,0.3c-0.6,0.2-1.3,0.3-2,0.3c-1.4,0.1-2.7,0-4-0.3c-0.3-0.1-0.4,0.4-0.1,0.4c1.4,0.3,9.4,1,8.4-2.2
						c-0.4-1.3-2.2-1.1-3.2-1c-1.9,0.3-3.5,1.4-4.8,2.8C98.4,121.5,98.7,121.9,98.9,121.6L98.9,121.6z"/>
				</g>
			</g>
			<g>
				<g>
					<path class="st3" d="M98.5,121.1c-0.6,2.4-2,4.2-3.1,6.4c-0.8,1.6-1.1,3.3-0.9,5.1c0,0.3,0.5,0.3,0.4,0
						c-0.3-4.5,3.1-7.2,4-11.4C99,121,98.6,120.8,98.5,121.1L98.5,121.1z"/>
				</g>
			</g>
			<g>
				<g>
					<path class="st3" d="M99.4,121.1c0.1,1.5,0.7,2.8,1.4,4.1c1.5,2.3,2.5,5.2,1.6,7.9c-0.1,0.3,0.3,0.4,0.4,0.1
						c0.5-1.7,0.3-3.7-0.2-5.4c-0.7-2.5-2.6-4.1-2.9-6.8C99.8,120.8,99.4,120.8,99.4,121.1L99.4,121.1z"/>
				</g>
			</g>
		</g>
		<g>
			<g>
				<path class="st3" d="M45.9,122c-1.4-1.6-6.9-2.2-7.1,0.8c-0.3,2.9,7,0.3,8.1-0.1c0.3-0.1,0.2-0.5-0.1-0.4
					c-1.9,0.8-4,1.4-6.1,1.4c-1.1,0-1.2-1.2-0.5-1.9c0.5-0.5,1.3-0.6,2-0.6c1.2,0,2.7,0.3,3.7,1.1C45.8,122.6,46.1,122.2,45.9,122
					L45.9,122z"/>
			</g>
		</g>
		<g>
			<g>
				<path class="st3" d="M46.5,122.6c1-0.4,2-0.9,3.1-1.2c0.6-0.1,1.4-0.2,2.1,0c0.7,0.1,0.8,0.5,0.3,1.2c0.1,1-0.4,1.3-1.4,1
					c-0.8-0.1-1.5-0.6-2.3-0.9c-0.7-0.2-1.3-0.3-2-0.3c-0.3,0-0.3,0.5,0,0.4c1.2,0,2.1,0.4,3.2,0.8c0.6,0.3,1.3,0.5,1.9,0.4
					c0.9-0.1,1.8-0.7,1.8-1.7c-0.2-3-5.7-0.6-6.9-0.1C45.9,122.4,46.3,122.7,46.5,122.6L46.5,122.6z"/>
			</g>
		</g>
		<g>
			<g>
				<path class="st3" d="M46.3,122.5c0.5,1.8-1.9,4.6-2.3,6.4c-0.5,1.9-0.3,3.9-0.2,6c0,0.3,0.5,0.3,0.5,0c-0.1-2.9-0.2-6,1.3-8.7
					c0.8-1.3,1.7-2.2,1.2-3.9C46.6,122.1,46.2,122.3,46.3,122.5L46.3,122.5z"/>
			</g>
		</g>
		<g>
			<g>
				<path class="st3" d="M47.5,123.1c0,0.5-0.1,0.8,0,1.4c0.1,0.4,0.2,0.8,0.3,1.3c0.3,1,0.3,2.1,0.6,3.1c0.2,1.2,0.8,2,1.6,2.9
					c0.2,0.2,0.5-0.1,0.3-0.3c-0.9-1.1-1.3-1.9-1.6-3.3c-0.1-0.6-0.1-1.1-0.2-1.6c-0.2-1.1-0.4-2.7-1.1-3.6c0-0.1-0.2-0.1-0.3-0.1
					c0,0,0,0-0.1,0c-0.1,0-0.2,0.1-0.2,0.2c0,0,0,0,0,0.1C47,123.4,47.5,123.4,47.5,123.1L47.5,123.1z"/>
			</g>
		</g>
	</g>
	<path class="st4" d="M98.4,29.7c0,0-0.9,37-27.4,43.4S35.1,57.4,35.1,57.4s7.8,30.6,22.8,38.2c13.4,6.6,22.2-0.4,28-7.8
		C91.7,80.3,104.7,56.3,98.4,29.7z"/>
	<circle class="st5" cx="54.3" cy="22.7" r="8.8"/>
	<path class="st5" d="M53.8,40c0,2.5-2,4.7-4.6,4.7s-4.7-2-4.7-4.6c0-2.5,2-4.7,4.6-4.7S53.8,37.4,53.8,40z"/>
	<circle class="st5" cx="111.5" cy="39" r="6.6"/>
	<path class="st6" d="M42.2,84.2c0,0-7.5,16.3-22.9,16.6c0,0,11.2,20.3,27.4,19.3S68,102.9,68,102.9S51.7,102.1,42.2,84.2z"/>
	<path class="st7" d="M92.3,87c0,0,23,2.3,42-15.9c0,0-4.7,39.4-33,48.2c0,0-14.8,2.9-24.3-18.2C76.9,101.1,88,96.2,92.3,87z"/>
	<path class="st8" d="M98.7,121.5c0,0-4.3,27-23.3,43.3"/>
	<path class="st8" d="M46.1,122.6c0,0,6.3,31.6,26.4,42.1"/>
	<path class="st8" d="M68.1,100.2c0,0,2,43.1,5.7,65.5"/>
</g>
<g>
	<path class="st1" d="M524.5,71.8C521,99.5,502.1,125.4,483,123c-19.1-2.4-31-32.2-27.5-59.9c3.4-27.7,20.6-39,39.6-36.7
		C514.2,28.8,528,44,524.5,71.8z"/>
	<path class="st0" d="M490.1,45.7c0,27.9-15.5,56-34.8,56c-19.2,0-34.8-28-34.8-56S436,4.4,455.3,4.4
		C474.5,4.4,490.1,17.8,490.1,45.7z"/>
	<g>
		<g>
			<path class="st3" d="M455.3,101.1c-1.1-1.2-4.6-1.5-6.2-1.2c-1.5,0.3-2,1.9-1.8,3.4s1.8,1.9,3.1,1.8c2.5-0.1,3.7-2.3,5.7-3.6
				c0.2-0.2,0-0.5-0.2-0.4c-2,1.3-3.3,3.6-6.1,3.5c-1.1,0-2.6-1-2.1-2.3c0.6-0.7,1.2-1.3,1.8-2c0.4,0,0.8,0,1.2,0
				c1.2,0.1,3.3,0,4.2,1C455.1,101.6,455.4,101.3,455.3,101.1L455.3,101.1z"/>
		</g>
	</g>
	<g>
		<g>
			<path class="st3" d="M455.7,101.7c1.7-1.3,6.4-3.5,7.6-0.5c1.2,3-2.7,1.9-3.8,1.6c-1.3-0.5-2.5-1.1-3.7-1.8
				c-0.2-0.1-0.5,0.2-0.2,0.4c1.2,0.7,8.7,4.7,8.6,1c0-1.4-1.2-2.8-2.6-2.9c-2.1-0.2-4.3,0.7-6.1,2
				C455.2,101.4,455.4,101.8,455.7,101.7L455.7,101.7z"/>
		</g>
	</g>
	<g>
		<g>
			<path class="st3" d="M455.7,101.1c0.2,1.8-1.8,3.9-2.6,5.4c-0.6,1.1-1.2,2.3-1.6,3.5c-1,2.6-1.4,5.3-1.5,8.1c0,0.3,0.4,0.3,0.4,0
				c0.1-3.8,1-7.5,2.8-10.9c1-1.9,3.2-3.8,2.9-6.2C456.1,100.8,455.7,100.8,455.7,101.1L455.7,101.1z"/>
		</g>
	</g>
	<g>
		<g>
			<path class="st3" d="M456.3,101.1c2.4,4.3,3.8,8.9,4.1,13.8c0,0.3,0.5,0.3,0.4,0c-0.3-5-1.6-9.7-4.1-14.1
				C456.5,100.6,456.2,100.9,456.3,101.1L456.3,101.1z"/>
		</g>
	</g>
	<g>
		<g>
			<g>
				<path class="st3" d="M485.3,122.9c-1.1-1.3-3.5-1.3-5.1-1.5c-1.2-0.1-3.2,0-3.4,1.7c-0.1,1,0.6,1.5,1.5,1.6c1,0.1,2,0.1,3-0.1
					c1.4-0.4,2.6-1.8,4.1-1.1c0.3,0.1,0.5-0.3,0.2-0.4c-1.9-0.9-3.6,1.1-5.5,1.2c-0.4,0-1.4,0.1-1.8,0c-0.6-1.8-0.2-2.6,1.3-2.4
					c0.2,0,0.4,0,0.6,0c1.3,0.1,3.8,0.3,4.8,1.3C485.2,123.5,485.5,123.2,485.3,122.9L485.3,122.9z"/>
			</g>
		</g>
		<g>
			<g>
				<path class="st3" d="M485.5,123.2c0.8-0.8,1.7-1.5,2.7-2c0.6-0.3,3.1-1.2,3.7-0.6c-0.1,0.6-0.1,1.3-0.2,1.9
					c-0.3,0.1-0.6,0.2-0.8,0.3c-0.6,0.2-1.3,0.3-2,0.3c-1.4,0.1-2.7,0-4-0.4c-0.3-0.1-0.4,0.4-0.1,0.4c1.4,0.3,9.4,1.1,8.5-2
					c-0.4-1.3-2.2-1.1-3.2-1c-1.9,0.3-3.5,1.3-4.8,2.7C485,123.1,485.3,123.4,485.5,123.2L485.5,123.2z"/>
			</g>
		</g>
		<g>
			<g>
				<path class="st3" d="M485.1,122.7c-0.6,2.4-2.1,4.1-3.2,6.4c-0.8,1.6-1.1,3.3-1,5c0,0.3,0.5,0.3,0.5,0
					c-0.2-4.5,3.2-7.2,4.2-11.3C485.6,122.6,485.2,122.4,485.1,122.7L485.1,122.7z"/>
			</g>
		</g>
		<g>
			<g>
				<path class="st3" d="M486,122.7c0.1,1.5,0.6,2.8,1.3,4.1c1.4,2.3,2.4,5.2,1.5,8c-0.1,0.3,0.3,0.4,0.4,0.1
					c0.5-1.7,0.4-3.7-0.1-5.4c-0.7-2.5-2.5-4.1-2.8-6.9C486.5,122.4,486,122.4,486,122.7L486,122.7z"/>
			</g>
		</g>
	</g>
	<path class="st7" d="M486.3,31.9c0,0-1.5,37-28.1,43c-26.6,6-35.5-16.3-35.5-16.3s7.3,30.8,22.2,38.5c13.3,6.9,22.2,0,28.1-7.4
		C479,82.3,492.3,58.6,486.3,31.9z"/>
	<circle class="st5" cx="442.4" cy="24.2" r="8.8"/>
	<path class="st5" d="M441.7,41.4c0,2.5-2.1,4.6-4.6,4.6s-4.6-2.1-4.6-4.6s2.1-4.6,4.6-4.6S441.7,38.9,441.7,41.4z"/>
	<path class="st5" d="M505.9,41.4c0,3.6-2.9,6.6-6.6,6.6c-3.6,0-6.6-2.9-6.6-6.6s2.9-6.6,6.6-6.6C503,34.9,505.9,37.9,505.9,41.4z"
		/>
	<path class="st6" d="M479.3,89.1c0,0,23,2.7,42.3-15.2c0,0-5.3,39.3-33.8,47.6c0,0-14.8,2.6-24-18.6
		C463.6,102.9,474.8,98.3,479.3,89.1z"/>
	<path class="st8" d="M457.2,100c0,0-4,24.8-31.1,42.8"/>
	<path class="st8" d="M483.8,123.4c0,0-18,17.4-50.5,15.6"/>
</g>
<g>
	<path class="st9" d="M168.4,186c0.5,2.5-0.3,3.8-3,3.3c-4.1-0.8-9.1-1.1-15-0.8c-11.5,21.3-22.4,42.7-29.3,60.2
		c-1.1,2.7-3.3,3-4.7,1.1c-4.1-6-7.4-13.5-1.6-30.1c2.7-7.4,7.1-17.7,12.6-29.3c-14,1.9-29,4.4-40.3,7.1c-4.1,0.8-6.9,0.8-9.3-2.2
		c-3.6-4.7-7.4-11.5-9.6-15.8c-1.6-3-1.1-6.3,1.1-8.8c23-27.1,76.3-69.8,111.6-92.5c3.3-2.2,8-3.6,10.7,0.8
		c2.7,4.4,4.7,7.7,7.7,12.9c3.3,6,3.3,7.4-2.2,16.1c-9.6,15-24.3,39.7-38.9,66C164,177.2,167,181.6,168.4,186z M81.6,179.7
		c16.9-4.4,37.8-8,55.5-8.8c12.1-23.5,26.8-49.2,40-68.4C145.1,124.4,106,153.7,81.6,179.7z"/>
	<path class="st9" d="M289.7,207.7c-36,27.2-79.3,41.9-105.5,15.7c-15.8-15.8-15.7-37.2-6.2-56.2c25.1-50.7,90.8-75.3,122-73
		c16.2,1.1,26.5,9.3,29.5,19.2C352.8,138.9,323.1,182.6,289.7,207.7z M322.4,116.3c-9.3-9.8-47.4-6.3-86.7,18.8
		c-39.9,25.6-59.9,65.1-47.1,79.6c12,13.6,49.9,7,86.9-20.9C316.5,163.1,332.9,127.3,322.4,116.3z"/>
	<path class="st9" d="M403.4,224.6c0.5,2.5-0.3,3.8-3,3.3c-4.1-0.8-9.1-1.1-15-0.8c-11.5,21.3-22.4,42.7-29.3,60.2
		c-1.1,2.7-3.3,3-4.7,1.1c-4.1-6-7.4-13.5-1.6-30.1c2.7-7.4,7.1-17.7,12.6-29.3c-14,1.9-29,4.4-40.3,7.1c-4.1,0.8-6.9,0.8-9.3-2.2
		c-3.6-4.7-7.4-11.5-9.6-15.8c-1.6-3-1.1-6.3,1.1-8.8c23-27.1,76.3-69.8,111.6-92.5c3.3-2.2,8-3.6,10.7,0.8
		c2.7,4.4,4.7,7.7,7.7,12.9c3.3,6,3.3,7.4-2.2,16.1c-9.6,15-24.3,39.7-38.9,66C399,215.8,402,220.2,403.4,224.6z M316.7,218.3
		c16.9-4.4,37.8-8,55.5-8.8c12.1-23.5,26.8-49.2,40-68.4C380.1,163.1,341,192.3,316.7,218.3z"/>
</g>
<g>
	<ellipse class="st10" cx="296.2" cy="453.5" rx="119" ry="11.8"/>
	<g>
		<path class="st11" d="M219,283.8c-9.2,10.8-27.2,18.1-37.2,9.6c-10-8.5-2.7-35.4,21-49.3c12.2-7.2,5.7,1.6,15.7,10.1
			C228.6,262.5,228.2,272.9,219,283.8z"/>
		<g>
			<path class="st12" d="M250.5,447.4c0,3.1-2.5,5.6-5.6,5.6h-14.3c-3.1,0-5.6-2.5-5.6-5.6c0-1.6,0.5-2.4,0.8-2.9
				c2-3.3,2-7.5,0.4-11.1c-3.5-7.7-8.8-17.6-8.8-51.2v-27.9h33.2V447.4z"/>
			<path class="st13" d="M349.9,444.5h26c6.1,0,11.8-2.4,16-6.7l0,0c6.8-6.8,7.4-17.4,1.5-24.9l0,0c-5-6.5-15.2-7.4-21.3-2h7.1
				c1.6,0.1,3,1.2,3.4,2.9l0,0c0.3,1.4-0.2,2.9-1.4,3.7l0,0c-1.9,1.4-4.2,2.2-6.7,2.2h-6.4L349.9,444.5z"/>
			<path class="st12" d="M182.9,314.4c0-21.9-3.4-55.4,28.5-77.1c32.7-22.2,90.9-17.2,111.3,35.8c17.6,45.8,64.7,91,49.5,170.5
				c-1.5,7.9-8.7,13.3-16.6,13.3c0,0-28.2,0-37.6,0c-23.9,0-41.5-2.6-55-5.3c-44.8-8.9-46.3-55-46.3-94.1L182.9,314.4z"/>
			<g>
				<g>
					<defs>
						<path id="SVGID_1_" d="M322.7,273.1c-20.3-53.1-78.7-57.9-111.3-35.8c-32,21.7-28.5,55.2-28.5,77.1c0,0,8.3,39.1,38.1,39.1
							s55.9-4.9,75.5-27.1C296.6,326.4,332.6,298.9,322.7,273.1z"/>
					</defs>
					<clipPath id="SVGID_2_">
						<use xlink:href="#SVGID_1_"  style="overflow:visible;"/>
					</clipPath>
					<g class="st14">
						<g>
							<ellipse class="st15" cx="235.2" cy="293.1" rx="18" ry="18.2"/>
							<ellipse class="st16" cx="235.2" cy="293.1" rx="15" ry="15.3"/>
							<ellipse class="st17" cx="236.7" cy="293.1" rx="13.5" ry="13.7"/>
							<ellipse class="st5" cx="242.2" cy="286.4" rx="2.6" ry="2.3"/>
							<path class="st5" d="M240.4,289.6c0,0.9-0.8,1.6-1.8,1.6s-1.8-0.7-1.8-1.6c0-0.9,0.8-1.6,1.8-1.6S240.4,288.7,240.4,289.6z"
								/>
						</g>
						<g>
							<ellipse class="st15" cx="189.6" cy="293.1" rx="8.5" ry="15.2"/>
							<path class="st16" d="M195.9,293.1c0,6.9-3,12.5-6.8,12.5s-6.8-5.5-6.8-12.5c0-6.9,3-12.5,6.8-12.5
								C192.9,280.7,195.9,286.3,195.9,293.1z"/>
							<ellipse class="st17" cx="189.9" cy="293.1" rx="6.1" ry="11.2"/>
							<ellipse class="st5" cx="192.3" cy="287.7" rx="1.2" ry="1.9"/>
							<path class="st5" d="M191.5,290.3c0,0.7-0.4,1.3-0.8,1.3c-0.5,0-0.8-0.6-0.8-1.3c0-0.7,0.4-1.3,0.8-1.3
								C191.1,289,191.5,289.6,191.5,290.3z"/>
						</g>
						<path class="st18" d="M193.2,272.3h-4c-2.4,0-4.4-2-4.4-4.4s2-4.4,4.4-4.4h4c2.4,0,4.4,2,4.4,4.4S195.6,272.3,193.2,272.3z"/>
						<path class="st18" d="M239.9,271H230c-2.4,0-4.4-2-4.4-4.4c0-2.4,2-4.4,4.4-4.4h9.9c2.4,0,4.4,2,4.4,4.4
							C244.3,269,242.3,271,239.9,271z"/>
					</g>
				</g>
			</g>
			<path class="st19" d="M211.4,237.3c-32,21.7-28.5,55.2-28.5,77.1"/>
			<path class="st19" d="M221,353.5c29.9,0,55.9-4.9,75.5-27.1"/>
			<path class="st12" d="M324.9,410.1c-13.4,0-24.2,10.9-24.2,24.2c0,4.1,1,8,2.8,11.3c-2.6,0.5-4.6,2.7-4.6,5.5
				c0,3.1,2.5,5.6,5.6,5.6h11.4h18.2"/>
			<path class="st12" d="M238.1,402.1c0.4,14.9,4.7,27.3,8.2,35.1c1.6,3.5,1.6,7.8-0.4,11.1c-0.3,0.5-0.8,1.3-0.8,2.9
				c0,3.1,2.5,5.6,5.6,5.6H265c3.1,0,5.6-2.5,5.6-5.6v-49"/>
			<circle class="st20" cx="262.6" cy="305.8" r="1.5"/>
			<path class="st19" d="M283.2,338.3c0,0,12.8-9.7,17.6-10.9"/>
		</g>
		<g>
			<path class="st21" d="M243.1,352.3c41.7-9.1,22-70.7,8.1-90.1c-16.8-23.5-50.8-19.9-57.8-6.8c0,0-7-3.3,12.8-20
				s108.7-40.4,127.4,60.7c0,0-1.3,0.8,5.4,2.8c6.8,2,7.6,18.9,13.2,27.2c5.2,7.7,33.6,61.3,21.6,115.9c-1.9,8.6-9.6,14.6-18.4,14.6
				h-27.8c-12,0-12.4-11.5-21-11.5c-11.6,0-9.4,11.5-2.3,11.5c0,0-29.5,0.2-33.8-3.7c0,0,0,3.4-4.2,3.5c-3.4,0.1-16.5-9.7-20.5-8.4
				c0,0-1.3,2.2-0.4,4.7c0,0-3-0.9-6.4-3.6c-3.3-2.7-11.4-7.2-13.4-4.8c0,0-2.1-2.4-0.9-4.4c1.2-2,2.9-3.1,1-7.4
				c-1.9-4.2-11.1-8.8-11.1-71.3c0,0-7.6-1.8-9.1-4.7C204.1,353.7,243.1,352.3,243.1,352.3z"/>
			<line class="st19" x1="270.6" y1="453.1" x2="270.6" y2="402.1"/>
			<path class="st19" d="M245.8,448.3c-2.9,0-2.7-2.6-0.5-5c2.2-2.3-1.5-12-1.5-12c-3.7-9.3-5.7-24-5.7-29"/>
			<path class="st19" d="M245.3,443.2c2.4-2.5,11.3,2.3,15.1,5"/>
			<path class="st19" d="M214.7,361.4c15.9,2.9,40.8,1,59.5-16.6c13.5-12.7,24.6-11.9,24.6-11.9"/>
			<path class="st19" d="M268.3,349.7c11.4-8.8,24.9-15.1,41.8-11.7"/>
			<path class="st19" d="M337.1,298.5c-11-4.2-13.2-12.2-13.2-12.2"/>
			<path class="st19" d="M224.8,440.2c1.3-3,6.7-2,11.1,0.9"/>
			<path class="st19" d="M244.4,444.4c-25.4-15.8-27.5-50.9-27.6-82.6"/>
			<path class="st19" d="M196.3,245.2c6.6-6.7,17.9-9.3,32.7-6.7c16.4,2.8,24.9,14.8,24.9,14.8"/>
			<path class="st19" d="M274.2,320.1c0,0-1.9,24.1-17.4,31.7"/>
			<line class="st19" x1="270.6" y1="396.7" x2="270.6" y2="394.6"/>
			<line class="st19" x1="304.6" y1="332.9" x2="308.9" y2="333.1"/>
			<line class="st19" x1="274.2" y1="316" x2="274.2" y2="313.1"/>
			<path class="st22" d="M315.6,243.6l6.8-6.5c0.9-0.9,1.2-2.2,0.8-3.3c-2.1-6.2-4.6-12.2-7.8-17.8c-1.1-2-4-2.2-5.3-0.4l-9.1,12.1
				l9-17.2c0.6-1.1,0.5-2.4-0.3-3.4c-4.3-5.6-10.4-10.5-14.2-13.2c-1.7-1.3-4.2-0.5-4.9,1.5l-7.6,21.9l4.3-25.4
				c0.3-1.5-0.6-2.9-1.9-3.5c-7.9-3.1-15.2-4.5-22-4.8c-1.7-0.1-3.2,1.3-3.3,3l-1.4,27.6l-3.1-27.8c-0.2-1.5-1.5-2.5-3-2.3
				c-12.2,1.6-21.1,6.5-24.6,8.6c-1,0.6-1.4,1.7-1.2,2.8l5.6,26.1l2.3,3.6c0,0,37.1-12,69.9,16.2c25.9,22.4,28.9,54.9,28.9,54.9
				s-0.1-27.1-7.9-54.4c-0.6-2.1-3.1-3-4.9-1.8L315.6,243.6z"/>
			<g>
				<path class="st23" d="M225.1,233.6c11.3-6.4,8.7-8.9,8.7-8.9l-36.6-41.2l15.9,52.8C213,236.2,213.8,239.9,225.1,233.6z"/>
				<path class="st24" d="M213,236.2c-1.6-5.3,13.3-20,6.9-27.2"/>
				<path class="st24" d="M221.1,235.5c8.2-5.2,10.7-13,7.5-16.6"/>
				<path class="st24" d="M209.2,224c-2.7-8.9,8.7-17.1,3-23.5"/>
				<path class="st24" d="M204.6,208.4c-1.9-6.5,5-10.8-0.3-16.8"/>
			</g>
			<line class="st24" x1="332.7" y1="410.1" x2="337.1" y2="410.1"/>
			<line class="st24" x1="342.4" y1="454" x2="345.2" y2="454"/>
			<line class="st24" x1="262.5" y1="449.5" x2="263.7" y2="450.3"/>
			<path class="st19" d="M301.5,446.4c3.7-3-5.7-4.3-0.5-8.3c0,0-4.7-24.7,23.9-27.9"/>
			<path class="st19" d="M301,438.2c2.9-1.5,9.6-2.4,16.5,4.8c6.6,6.9,8.4,11.1,13.1,11.1c2.6,0,6.5,0,6.5,0"/>
			<path class="st24" d="M349.2,320.1c5.1,11.5-11.2,20-33.8,12.9"/>
		</g>
		<g>
			<path class="st17" d="M253.6,334.6c-2.2,9.3-13.1,17.3-29.3,17.3s-29.3-7.8-29.3-17.3s13.1-17.3,29.3-17.3
				C240.5,317.2,256.5,322,253.6,334.6z"/>
			<g>
				<path class="st11" d="M199.7,305.2c-12.4-0.9-21.8,9.2-17.7,22.7c3.6,11.8,18.8,7.5,19.7-1.6
					C202.4,319.7,199.7,305.2,199.7,305.2z"/>
				<path class="st11" d="M199.2,305.2c4.5,0,11.9-1.1,21,6c11.5,9,19.6,7.5,28.8,2.4c4.3-2.3,7.6-1,9.1,4.2
					c2.4,8.5-0.4,45.8-48.5,39.6c-6.7-0.8-18.1-4.9-17.1-12.5c0.8-6.9,9.8-8.8,22.5-2c12.4,6.7,23,7.1,29.6,1.5
					c6.3-5.1,6.8-15.1,6.7-17.7c0-0.6-0.7-0.8-1.1-0.5c-3.3,2.9-19.6,14.3-36.2,10.3c-8-1.9-14.7-6.4-14.7-18.8L199.2,305.2z"/>
				<path class="st17" d="M210.2,309.1c0.3,5.3-6.7,9.4-11.9,8.5c-5.2-0.9-8.4-6-8.1-8.5c0.2-2,1.8-4.2,7.3-4.5
					C209.8,303.8,210.1,307.1,210.2,309.1z"/>
				<ellipse class="st16" cx="199" cy="307.6" rx="5.4" ry="1.7"/>
			</g>
			<path class="st25" d="M234.9,348.1c-9.5,0.2-22.9-16.4-37.3-15c-14.4,1.4-19.9,14.3-13,18.2c10.1,5.6,27.4-9.2,32.7-7.2
				C224.8,347.5,229.2,348.5,234.9,348.1z"/>
		</g>
		<path class="st11" d="M301.3,264.1c3,14.9-0.5,34.6-14.2,37.4c-13.7,2.8-25.9-16.3-28.9-31.3c-3-14.9,4.2-22.7,18-25.4
			C289.7,242,298.2,249.1,301.3,264.1z"/>
	</g>
</g>
</svg>
