<?xml version="1.0" encoding="utf-8"?>
<!-- Generator: Adobe Illustrator 22.0.1, SVG Export Plug-In . SVG Version: 6.00 Build 0)  -->
<svg version="1.1" id="Capa_1" xmlns="http://www.w3.org/2000/svg" xmlns:xlink="http://www.w3.org/1999/xlink" x="0px" y="0px"
	 viewBox="0 0 400 496" style="enable-background:new 0 0 400 496;" xml:space="preserve">
<style type="text/css">
	.st0{fill:#5E9EBB;}
	.st1{fill:#F2D159;}
	.st2{fill:#CC4A62;}
	.st3{fill:#59595B;}
	.st4{fill:#FFFFFF;}
	.st5{fill:none;stroke:#59595B;stroke-width:0.5;stroke-miterlimit:10;}
	.st6{fill:#453B4F;}
	.st7{fill:#363430;stroke:#363430;stroke-linecap:round;stroke-miterlimit:10;}
	.st8{fill:#604935;stroke:#363430;stroke-width:1.5;stroke-linecap:round;stroke-miterlimit:10;}
	.st9{fill:#E6D2B8;stroke:#363430;stroke-width:1.5;stroke-linecap:round;stroke-miterlimit:10;}
	.st10{fill:#E6D2B8;stroke:#363430;stroke-width:1.5;stroke-linecap:round;stroke-linejoin:round;stroke-miterlimit:10;}
	.st11{clip-path:url(#SVGID_2_);}
	.st12{fill:#604935;stroke:#363430;stroke-linecap:round;stroke-miterlimit:10;}
	.st13{fill:#FFFFFF;stroke:#363430;stroke-linecap:round;stroke-miterlimit:10;}
	.st14{fill:#363430;}
	.st15{fill:none;stroke:#363430;stroke-width:1.5;stroke-linecap:round;stroke-miterlimit:10;}
	.st16{fill:#363430;stroke:#363430;stroke-width:1.5;stroke-linecap:round;stroke-miterlimit:10;}
	.st17{fill:#FFFFFF;stroke:#363430;stroke-width:1.5;stroke-linecap:round;stroke-miterlimit:10;}
	.st18{fill:#DD427E;stroke:#363430;stroke-width:1.5;stroke-linecap:round;stroke-linejoin:round;stroke-miterlimit:10;}
	.st19{fill:#E6CE71;stroke:#363430;stroke-width:1.5;stroke-linecap:round;stroke-linejoin:round;stroke-miterlimit:10;}
	.st20{fill:none;stroke:#363430;stroke-width:1.5;stroke-linecap:round;stroke-linejoin:round;stroke-miterlimit:10;}
	.st21{fill:#DD427E;stroke:#363430;stroke-width:1.5;stroke-linecap:round;stroke-miterlimit:10;}
</style>
<g>
	<g>
		<g>
			<path class="st0" d="M135.5,83.3c-3.4,27.5-22.2,53.2-41.1,50.8c-18.9-2.4-30.7-31.9-27.3-59.4c3.4-27.5,20.4-38.7,39.3-36.4
				C125.3,40.7,139,55.8,135.5,83.3z"/>
			<path class="st1" d="M72.8,73.3c4.7,27.3-5.7,57.3-24.5,60.6c-18.8,3.2-38.7-21.5-43.4-48.8c-4.7-27.3,8.2-43,27-46.3
				S68.1,46,72.8,73.3z"/>
			<path class="st2" d="M101.4,57.5c0,27.7-15.4,55.5-34.5,55.5c-19,0-34.5-27.8-34.5-55.5s15.4-41,34.5-41
				C85.9,16.5,101.4,29.8,101.4,57.5z"/>
			<g>
				<g>
					<path class="st3" d="M66.8,112.4c-1.1-1.2-4.6-1.5-6.1-1.2c-1.5,0.3-2,1.9-1.8,3.4c0.2,1.5,1.8,1.9,3.1,1.8
						c2.5-0.1,3.7-2.3,5.7-3.6c0.2-0.2,0-0.5-0.2-0.4c-2,1.3-3.3,3.6-6,3.5c-1.1,0-2.6-1-2.1-2.3c0.6-0.7,1.2-1.3,1.8-2
						c0.4,0,0.8,0,1.2,0c1.2,0.1,3.3,0,4.2,1C66.7,113,67,112.6,66.8,112.4L66.8,112.4z"/>
				</g>
			</g>
			<g>
				<g>
					<path class="st3" d="M67.2,113c1.7-1.3,6.3-3.5,7.5-0.5c1.2,3-2.7,1.9-3.8,1.6c-1.3-0.5-2.5-1.1-3.7-1.8
						c-0.2-0.1-0.5,0.2-0.2,0.4c1.2,0.7,8.6,4.7,8.5,1c0-1.4-1.2-2.8-2.6-2.9c-2.1-0.2-4.3,0.7-6,2C66.8,112.7,67,113.1,67.2,113
						L67.2,113z"/>
				</g>
			</g>
			<g>
				<g>
					<path class="st3" d="M67.3,112.4c0.2,1.8-1.8,3.9-2.6,5.4c-0.6,1.1-1.2,2.3-1.6,3.5c-1,2.6-1.4,5.3-1.5,8c0,0.3,0.4,0.3,0.5,0
						c0.1-3.8,1-7.4,2.8-10.8c1-1.9,3.2-3.8,2.9-6.1C67.7,112.1,67.3,112.1,67.3,112.4L67.3,112.4z"/>
				</g>
			</g>
			<g>
				<g>
					<path class="st3" d="M67.9,112.4c2.4,4.3,3.8,8.8,4.1,13.7c0,0.3,0.5,0.3,0.4,0c-0.3-5-1.6-9.6-4.1-14
						C68.1,111.9,67.7,112.2,67.9,112.4L67.9,112.4z"/>
				</g>
			</g>
			<g>
				<g>
					<g>
						<path class="st3" d="M96.6,134.1c-1.1-1.3-3.5-1.3-5.1-1.5c-1.2-0.1-3.2,0-3.4,1.7c-0.1,1,0.6,1.5,1.5,1.6c1,0.1,2,0.1,3-0.1
							c1.4-0.4,2.6-1.8,4.1-1.1c0.3,0.1,0.5-0.3,0.2-0.4c-1.9-0.9-3.6,1.1-5.5,1.2c-0.4,0-1.4,0.1-1.8,0c-0.6-1.8-0.2-2.6,1.3-2.4
							c0.2,0,0.4,0,0.6,0c1.3,0.1,3.8,0.3,4.8,1.3C96.5,134.6,96.8,134.3,96.6,134.1L96.6,134.1z"/>
					</g>
				</g>
				<g>
					<g>
						<path class="st3" d="M96.9,134.3c0.8-0.8,1.7-1.5,2.7-2c0.6-0.3,3.1-1.2,3.7-0.6c-0.1,0.6-0.1,1.3-0.2,1.9
							c-0.3,0.1-0.6,0.2-0.8,0.3c-0.6,0.2-1.3,0.3-2,0.3c-1.4,0.1-2.7,0-4-0.4c-0.3-0.1-0.4,0.4-0.1,0.4c1.4,0.3,9.3,1.1,8.4-2
							c-0.4-1.3-2.2-1.1-3.2-1c-1.9,0.3-3.5,1.3-4.8,2.7C96.4,134.2,96.7,134.6,96.9,134.3L96.9,134.3z"/>
					</g>
				</g>
				<g>
					<g>
						<path class="st3" d="M96.5,133.8c-0.6,2.4-2.1,4.1-3.2,6.3c-0.8,1.6-1.1,3.3-1,5c0,0.3,0.5,0.3,0.4,0
							c-0.2-4.5,3.2-7.1,4.2-11.2C97,133.7,96.6,133.5,96.5,133.8L96.5,133.8z"/>
					</g>
				</g>
				<g>
					<g>
						<path class="st3" d="M97.4,133.8c0.1,1.5,0.6,2.8,1.3,4.1c1.4,2.3,2.4,5.2,1.5,7.9c-0.1,0.3,0.3,0.4,0.4,0.1
							c0.5-1.7,0.4-3.7-0.1-5.4c-0.7-2.5-2.5-4.1-2.8-6.8C97.8,133.5,97.4,133.5,97.4,133.8L97.4,133.8z"/>
					</g>
				</g>
			</g>
			<g>
				<g>
					<path class="st3" d="M44.4,133.8c-1.4-1.6-6.8-2.3-7.1,0.7c-0.3,2.9,6.9,0.4,8,0c0.3-0.1,0.2-0.5-0.1-0.4
						c-1.9,0.8-4,1.3-6.1,1.3c-1.1,0-1.2-1.2-0.5-1.9c0.5-0.5,1.3-0.6,2-0.6c1.2,0,2.7,0.3,3.6,1.2C44.3,134.4,44.6,134,44.4,133.8
						L44.4,133.8z"/>
				</g>
			</g>
			<g>
				<g>
					<path class="st3" d="M44.9,134.4c1-0.4,2-0.9,3.1-1.1c0.6-0.1,1.4-0.2,2.1,0c0.7,0.1,0.8,0.5,0.3,1.2c0.1,1-0.4,1.3-1.4,1
						c-0.8-0.1-1.5-0.6-2.3-0.9c-0.7-0.2-1.3-0.3-2-0.3c-0.3,0-0.3,0.5,0,0.4c1.2,0,2.1,0.4,3.2,0.8c0.6,0.3,1.3,0.5,1.9,0.4
						c0.9-0.1,1.8-0.7,1.8-1.7c-0.1-3-5.6-0.7-6.8-0.2C44.4,134.2,44.7,134.5,44.9,134.4L44.9,134.4z"/>
				</g>
			</g>
			<g>
				<g>
					<path class="st3" d="M44.8,134.3c0.5,1.8-2,4.5-2.4,6.3c-0.5,1.9-0.4,3.9-0.3,5.9c0,0.3,0.5,0.3,0.5,0c-0.1-2.9-0.1-6,1.4-8.6
						c0.8-1.3,1.7-2.2,1.3-3.8C45.1,133.9,44.7,134.1,44.8,134.3L44.8,134.3z"/>
				</g>
			</g>
			<g>
				<g>
					<path class="st3" d="M45.9,134.9c0,0.5-0.1,0.8,0,1.4c0.1,0.4,0.2,0.8,0.3,1.3c0.3,1,0.3,2.1,0.5,3.1c0.2,1.2,0.8,2,1.5,2.9
						c0.2,0.2,0.5-0.1,0.3-0.3c-0.9-1.1-1.3-1.9-1.5-3.3c-0.1-0.6-0.1-1.1-0.2-1.6c-0.2-1.1-0.4-2.7-1-3.6c0-0.1-0.2-0.1-0.3-0.1
						c0,0,0,0-0.1,0c-0.1,0-0.2,0.1-0.2,0.2c0,0,0,0,0,0.1C45.4,135.2,45.9,135.2,45.9,134.9L45.9,134.9z"/>
				</g>
			</g>
		</g>
		<path d="M97.9,43.2c0,0-1.5,36.7-27.9,42.6S34.7,69.6,34.7,69.6s7.2,30.5,22,38.2c13.2,6.8,22,0,27.9-7.3S103.7,69.6,97.9,43.2z"
			/>
		<path d="M50.3,86.1c0,0,35.4,15.8,47.5-33c0,0,0.1,1.6,0,8.3C97.7,61.4,87.5,102.8,50.3,86.1z"/>
		<circle class="st4" cx="54.3" cy="35.5" r="8.7"/>
		<path class="st4" d="M53.6,52.6c0,2.5-2.1,4.6-4.6,4.6c-2.5,0-4.6-2.1-4.6-4.6c0-2.5,2.1-4.6,4.6-4.6C51.5,48,53.6,50.1,53.6,52.6
			z"/>
		<circle class="st4" cx="110.8" cy="52.6" r="6.5"/>
		<path d="M41.3,96.3c0,0-7.7,16-23,16.1c0,0,10.8,20.3,26.8,19.6c16-0.7,21.5-16.8,21.5-16.8S50.4,114.2,41.3,96.3z"/>
		<path d="M41.3,99.9c0,0,5.9,13.6,22.8,16.2l-1.9,3.1C62.3,119.2,46,117.1,41.3,99.9z"/>
		<path d="M90.9,99.9c0,0,22.8,2.7,41.9-15.1c0,0-5.3,39-33.5,47.2c0,0-14.7,2.6-23.8-18.4C75.4,113.6,86.5,108.9,90.9,99.9z"/>
		<path d="M91.6,101.8c0,0-6.5,9.2-14.5,12.3c0,0,1.2,2.8,2,3.4c0,0,11.6-7.1,14.6-15.8"/>
		<path class="st5" d="M96.7,134.2c0,0-4.7,26.7-23.8,42.5"/>
		<path class="st5" d="M44.6,134.4c0,0,5.7,31.4,25.5,42.2"/>
		<path class="st5" d="M66.7,112.6c0,0,1.3,42.8,4.6,65"/>
	</g>
	<g>
		<path class="st1" d="M395.1,71.4c-3.4,27.5-22.2,53.2-41.1,50.8c-18.9-2.4-30.7-31.9-27.3-59.4c3.4-27.5,20.4-38.7,39.3-36.4
			C384.9,28.8,398.6,43.9,395.1,71.4z"/>
		<path class="st0" d="M361,45.6c0,27.7-15.4,55.5-34.5,55.5c-19,0-34.5-27.8-34.5-55.5s15.4-41,34.5-41
			C345.6,4.6,361,17.9,361,45.6z"/>
		<g>
			<g>
				<path class="st3" d="M326.5,100.5c-1.1-1.2-4.6-1.5-6.1-1.2c-1.5,0.3-2,1.9-1.8,3.4c0.2,1.5,1.8,1.9,3.1,1.8
					c2.5-0.1,3.7-2.3,5.7-3.6c0.2-0.2,0-0.5-0.2-0.4c-2,1.3-3.3,3.6-6,3.5c-1.1,0-2.6-1-2.1-2.3c0.6-0.7,1.2-1.3,1.8-2
					c0.4,0,0.8,0,1.2,0c1.2,0.1,3.3,0,4.2,1C326.3,101,326.6,100.7,326.5,100.5L326.5,100.5z"/>
			</g>
		</g>
		<g>
			<g>
				<path class="st3" d="M326.9,101.1c1.7-1.3,6.3-3.5,7.5-0.5c1.2,3-2.7,1.9-3.8,1.6c-1.3-0.5-2.5-1.1-3.7-1.8
					c-0.2-0.1-0.5,0.2-0.2,0.4c1.2,0.7,8.6,4.7,8.5,1c0-1.4-1.2-2.8-2.6-2.9c-2.1-0.2-4.3,0.7-6,2
					C326.4,100.8,326.6,101.2,326.9,101.1L326.9,101.1z"/>
			</g>
		</g>
		<g>
			<g>
				<path class="st3" d="M326.9,100.5c0.2,1.8-1.8,3.9-2.6,5.4c-0.6,1.1-1.2,2.3-1.6,3.5c-1,2.6-1.4,5.3-1.5,8c0,0.3,0.4,0.3,0.4,0
					c0.1-3.8,1-7.4,2.8-10.8c1-1.9,3.2-3.8,2.9-6.1C327.3,100.2,326.9,100.2,326.9,100.5L326.9,100.5z"/>
			</g>
		</g>
		<g>
			<g>
				<path class="st3" d="M327.5,100.5c2.4,4.3,3.8,8.8,4.1,13.7c0,0.3,0.5,0.3,0.4,0c-0.3-5-1.6-9.6-4.1-14
					C327.7,100,327.4,100.3,327.5,100.5L327.5,100.5z"/>
			</g>
		</g>
		<g>
			<g>
				<g>
					<path class="st3" d="M356.3,122.1c-1.1-1.3-3.5-1.3-5.1-1.5c-1.2-0.1-3.2,0-3.4,1.7c-0.1,1,0.6,1.5,1.5,1.6c1,0.1,2,0.1,3-0.1
						c1.4-0.4,2.6-1.8,4.1-1.1c0.3,0.1,0.5-0.3,0.2-0.4c-1.9-0.9-3.6,1.1-5.5,1.2c-0.4,0-1.4,0.1-1.8,0c-0.6-1.8-0.2-2.6,1.3-2.4
						c0.2,0,0.4,0,0.6,0c1.3,0.1,3.8,0.3,4.8,1.3C356.2,122.7,356.5,122.4,356.3,122.1L356.3,122.1z"/>
				</g>
			</g>
			<g>
				<g>
					<path class="st3" d="M356.5,122.4c0.8-0.8,1.7-1.5,2.7-2c0.6-0.3,3.1-1.2,3.7-0.6c-0.1,0.6-0.1,1.3-0.2,1.9
						c-0.3,0.1-0.6,0.2-0.8,0.3c-0.6,0.2-1.3,0.3-2,0.3c-1.4,0.1-2.7,0-4-0.4c-0.3-0.1-0.4,0.4-0.1,0.4c1.4,0.3,9.3,1.1,8.4-2
						c-0.4-1.3-2.2-1.1-3.2-1c-1.9,0.3-3.5,1.3-4.8,2.7C356,122.3,356.3,122.6,356.5,122.4L356.5,122.4z"/>
				</g>
			</g>
			<g>
				<g>
					<path class="st3" d="M356.1,121.9c-0.6,2.4-2.1,4.1-3.2,6.3c-0.8,1.6-1.1,3.3-1,5c0,0.3,0.5,0.3,0.5,0
						c-0.2-4.5,3.2-7.1,4.2-11.2C356.6,121.8,356.2,121.6,356.1,121.9L356.1,121.9z"/>
				</g>
			</g>
			<g>
				<g>
					<path class="st3" d="M357,121.9c0.1,1.5,0.6,2.8,1.3,4.1c1.4,2.3,2.4,5.2,1.5,7.9c-0.1,0.3,0.3,0.4,0.4,0.1
						c0.5-1.7,0.4-3.7-0.1-5.4c-0.7-2.5-2.5-4.1-2.8-6.8C357.5,121.6,357,121.6,357,121.9L357,121.9z"/>
				</g>
			</g>
		</g>
		<path d="M357.3,31.9c0,0-1.5,36.7-27.9,42.6c-26.4,5.9-35.2-16.2-35.2-16.2s7.2,30.5,22,38.2c13.2,6.8,22,0,27.9-7.3
			C350,81.8,363.2,58.3,357.3,31.9z"/>
		<path d="M309.7,74.8c0,0,35.4,15.8,47.5-33c0,0,0.1,1.6,0,8.3C357.2,50.1,346.9,91.5,309.7,74.8z"/>
		<circle class="st4" cx="313.7" cy="24.2" r="8.7"/>
		<path class="st4" d="M313,41.3c0,2.5-2.1,4.6-4.6,4.6c-2.5,0-4.6-2.1-4.6-4.6c0-2.5,2.1-4.6,4.6-4.6C310.9,36.7,313,38.8,313,41.3
			z"/>
		<path class="st4" d="M376.7,41.3c0,3.6-2.9,6.5-6.5,6.5c-3.6,0-6.5-2.9-6.5-6.5c0-3.6,2.9-6.5,6.5-6.5
			C373.8,34.9,376.7,37.8,376.7,41.3z"/>
		<path d="M350.3,88.6c0,0,22.8,2.7,41.9-15.1c0,0-5.3,39-33.5,47.2c0,0-14.7,2.6-23.8-18.4C334.8,102.3,345.9,97.7,350.3,88.6z"/>
		<path d="M351.1,90.5c0,0-6.5,9.2-14.5,12.3c0,0,1.2,2.8,2,3.4c0,0,11.6-7.1,14.6-15.8"/>
		<path class="st5" d="M356.4,122c0,0-7.2,23.8-36.2,37.9"/>
		<path class="st5" d="M327.2,100.5c0,0-2.3,39.3-8.3,59.7"/>
	</g>
	<path class="st6" d="M131,196.8c0.4,1.8-0.2,2.8-2.2,2.4c-3-0.6-6.6-0.8-10.9-0.6c-8.4,15.5-16.3,31.1-21.3,43.8
		c-0.8,2-2.4,2.2-3.4,0.8c-3-4.4-5.4-9.8-1.2-21.9c2-5.4,5.2-12.9,9.2-21.3c-10.2,1.4-21.1,3.2-29.3,5.2c-3,0.6-5,0.6-6.8-1.6
		c-2.6-3.4-5.4-8.4-7-11.5c-1.2-2.2-0.8-4.6,0.8-6.4c16.7-19.7,55.5-50.8,81.2-67.3c2.4-1.6,5.8-2.6,7.8,0.6c2,3.2,3.4,5.6,5.6,9.4
		c2.4,4.4,2.4,5.4-1.6,11.7c-7,10.9-17.7,28.9-28.3,48C127.8,190.4,130,193.6,131,196.8z M67.9,192.2c12.3-3.2,27.5-5.8,40.4-6.4
		c8.8-17.1,19.5-35.8,29.1-49.8C114.1,152,85.6,173.3,67.9,192.2z"/>
	<path class="st6" d="M219.3,212.6c-26.2,19.8-57.7,30.5-76.8,11.4c-11.5-11.5-11.4-27.1-4.5-40.9c18.3-36.9,66.1-54.8,88.8-53.1
		c11.8,0.8,19.3,6.8,21.5,14C265.2,162.5,243.6,194.3,219.3,212.6z M243.1,146.1c-6.8-7.1-34.5-4.6-63.1,13.7
		c-29,18.6-43.6,47.4-34.3,57.9c8.7,9.9,36.3,5.1,63.2-15.2C238.8,180.1,250.7,154.1,243.1,146.1z"/>
	<path class="st6" d="M302,224.9c0.4,1.8-0.2,2.8-2.2,2.4c-3-0.6-6.6-0.8-10.9-0.6c-8.4,15.5-16.3,31.1-21.3,43.8
		c-0.8,2-2.4,2.2-3.4,0.8c-3-4.4-5.4-9.8-1.2-21.9c2-5.4,5.2-12.9,9.2-21.3c-10.2,1.4-21.1,3.2-29.3,5.2c-3,0.6-5,0.6-6.8-1.6
		c-2.6-3.4-5.4-8.4-7-11.5c-1.2-2.2-0.8-4.6,0.8-6.4c16.7-19.7,55.5-50.8,81.2-67.3c2.4-1.6,5.8-2.6,7.8,0.6c2,3.2,3.4,5.6,5.6,9.4
		c2.4,4.4,2.4,5.4-1.6,11.7c-7,10.9-17.7,28.9-28.3,48C298.8,218.5,301,221.7,302,224.9z M238.9,220.3c12.3-3.2,27.5-5.8,40.4-6.4
		c8.8-17.1,19.5-35.8,29.1-49.8C285.1,180.1,256.6,201.4,238.9,220.3z"/>
	<g>
		<ellipse class="st7" cx="221.8" cy="480.2" rx="101.8" ry="9.7"/>
		<g>
			<path class="st8" d="M143.4,314c-9.1,10.7-27,17.9-36.9,9.5c-9.9-8.4-2.7-35.1,20.8-48.9c12.1-7.1,5.7,1.6,15.6,10
				C152.9,292.9,152.5,303.2,143.4,314z"/>
			<g>
				<path class="st9" d="M174.6,476.2c0,3.1-2.5,5.6-5.6,5.6h-14.2c-3.1,0-5.6-2.5-5.6-5.6c0-1.6,0.5-2.4,0.8-2.9
					c2-3.3,2-7.4,0.4-11c-3.5-7.6-8.7-17.4-8.7-50.8v-27.7h32.9V476.2z"/>
				<path class="st10" d="M273.2,473.3h25.8c6,0,11.7-2.4,15.9-6.6l0,0c6.7-6.7,7.3-17.3,1.5-24.7l0,0c-5-6.4-15.1-7.3-21.1-2h7
					c1.6,0.1,3,1.2,3.4,2.9l0,0c0.3,1.4-0.2,2.9-1.4,3.7l0,0c-1.9,1.4-4.2,2.2-6.6,2.2h-6.3L273.2,473.3z"/>
				<path class="st9" d="M107.6,344.3c0-21.7-3.4-54.9,28.3-76.4c32.4-22,90.1-17.1,110.3,35.5c17.4,45.4,64.1,90.2,49.1,169
					c-1.5,7.8-8.6,13.2-16.5,13.2c0,0-28,0-37.3,0c-23.7,0-41.1-2.6-54.5-5.3c-44.4-8.8-45.9-54.5-45.9-93.3L107.6,344.3z"/>
				<g>
					<defs>
						<path id="SVGID_1_" d="M246.2,303.4c-20.1-52.6-78-57.4-110.3-35.5c-31.7,21.5-28.3,54.7-28.3,76.4c0,0,8.2,38.8,37.8,38.8
							c29.6,0,55.4-4.9,74.9-26.9C220.3,356.2,256,328.9,246.2,303.4z"/>
					</defs>
					<clipPath id="SVGID_2_">
						<use xlink:href="#SVGID_1_"  style="overflow:visible;"/>
					</clipPath>
					<g class="st11">
						<g>
							<ellipse class="st12" cx="159.4" cy="323.2" rx="17.8" ry="18"/>
							<ellipse class="st13" cx="159.4" cy="323.2" rx="14.9" ry="15.2"/>
							<ellipse class="st7" cx="160.9" cy="323.2" rx="13.4" ry="13.6"/>
							<ellipse class="st4" cx="166.4" cy="316.5" rx="2.6" ry="2.3"/>
							<path class="st4" d="M164.6,319.7c0,0.9-0.8,1.6-1.8,1.6c-1,0-1.8-0.7-1.8-1.6c0-0.9,0.8-1.6,1.8-1.6
								C163.8,318.1,164.6,318.8,164.6,319.7z"/>
						</g>
						<g>
							<ellipse class="st12" cx="114.2" cy="323.2" rx="8.4" ry="15.1"/>
							<path class="st13" d="M120.5,323.2c0,6.8-3,12.4-6.7,12.4c-3.7,0-6.7-5.5-6.7-12.4c0-6.8,3-12.4,6.7-12.4
								C117.5,310.9,120.5,316.4,120.5,323.2z"/>
							<ellipse class="st7" cx="114.5" cy="323.2" rx="6" ry="11.1"/>
							<ellipse class="st4" cx="116.9" cy="317.8" rx="1.2" ry="1.9"/>
							<path class="st4" d="M116.1,320.4c0,0.7-0.4,1.3-0.8,1.3c-0.5,0-0.8-0.6-0.8-1.3c0-0.7,0.4-1.3,0.8-1.3
								C115.7,319.1,116.1,319.7,116.1,320.4z"/>
						</g>
						<path class="st14" d="M117.8,302.6h-4c-2.4,0-4.4-2-4.4-4.4s2-4.4,4.4-4.4h4c2.4,0,4.4,2,4.4,4.4S120.2,302.6,117.8,302.6z"/>
						<path class="st14" d="M164.1,301.3h-9.8c-2.4,0-4.4-2-4.4-4.4c0-2.4,2-4.4,4.4-4.4h9.8c2.4,0,4.4,2,4.4,4.4
							C168.5,299.3,166.5,301.3,164.1,301.3z"/>
					</g>
				</g>
				<path class="st15" d="M135.9,267.9c-31.7,21.5-28.3,54.7-28.3,76.4"/>
				<path class="st15" d="M145.4,383.1c29.6,0,55.4-4.9,74.9-26.9"/>
				<path class="st9" d="M248.4,439.2c-13.3,0-24,10.8-24,24c0,4.1,1,7.9,2.8,11.2c-2.6,0.5-4.6,2.7-4.6,5.5c0,3.1,2.5,5.6,5.6,5.6
					h11.3h18"/>
				<path class="st9" d="M162.3,431.3c0.4,14.8,4.7,27.1,8.1,34.8c1.6,3.5,1.6,7.7-0.4,11c-0.3,0.5-0.8,1.3-0.8,2.9
					c0,3.1,2.5,5.6,5.6,5.6H189c3.1,0,5.6-2.5,5.6-5.6v-48.6"/>
				<circle class="st16" cx="186.6" cy="335.8" r="1.5"/>
				<path class="st15" d="M207,368c0,0,12.7-9.6,17.4-10.8"/>
			</g>
			<g>
				<path class="st17" d="M167.3,381.9c41.3-9,21.8-70.1,8-89.3c-16.7-23.3-50.4-19.7-57.3-6.7c0,0-6.9-3.3,12.7-19.8
					S238.5,226,257,326.3c0,0-1.3,0.8,5.4,2.8c6.7,2,7.5,18.7,13.1,27c5.2,7.6,33.3,60.8,21.4,114.9c-1.9,8.5-9.5,14.5-18.2,14.5
					h-27.6c-11.9,0-12.3-11.4-20.8-11.4c-11.5,0-9.3,11.4-2.3,11.4c0,0-29.2,0.2-33.5-3.7c0,0,0,3.4-4.2,3.5
					c-3.4,0.1-16.4-9.6-20.3-8.3c0,0-1.3,2.2-0.4,4.7c0,0-3-0.9-6.3-3.6c-3.3-2.7-11.3-7.1-13.3-4.8c0,0-2.1-2.4-0.9-4.4
					c1.2-2,2.9-3.1,1-7.3c-1.9-4.2-11-8.7-11-70.7c0,0-7.5-1.8-9-4.7C128.6,383.3,167.3,381.9,167.3,381.9z"/>
				<line class="st15" x1="194.5" y1="481.8" x2="194.5" y2="431.3"/>
				<path class="st15" d="M170,477.1c-2.9,0-2.7-2.6-0.5-5c2.2-2.3-1.5-11.9-1.5-11.9c-3.7-9.2-5.7-23.8-5.7-28.8"/>
				<path class="st15" d="M169.5,472c2.4-2.5,11.2,2.3,15,5"/>
				<path class="st15" d="M139.1,390.9c15.8,2.9,40.4,1,59-16.5c13.4-12.6,24.4-11.8,24.4-11.8"/>
				<path class="st15" d="M192.3,379.3c11.3-8.7,24.7-15,41.4-11.6"/>
				<path class="st15" d="M260.5,328.5c-10.9-4.2-13.1-12.1-13.1-12.1"/>
				<path class="st15" d="M149.1,469c1.3-3,6.6-2,11,0.9"/>
				<path class="st15" d="M168.6,473.2c-25.2-15.7-27.3-50.5-27.4-81.9"/>
				<path class="st15" d="M120.9,275.7c6.5-6.6,17.7-9.2,32.4-6.6c16.3,2.8,24.7,14.7,24.7,14.7"/>
				<path class="st15" d="M198.1,350c0,0-1.9,23.9-17.3,31.4"/>
				<line class="st17" x1="194.5" y1="425.9" x2="194.5" y2="423.8"/>
				<line class="st17" x1="228.3" y1="362.6" x2="232.5" y2="362.8"/>
				<line class="st17" x1="198.1" y1="345.9" x2="198.1" y2="343"/>
				<path class="st18" d="M239.2,274.1l6.7-6.4c0.9-0.9,1.2-2.2,0.8-3.3c-2.1-6.1-4.6-12.1-7.7-17.6c-1.1-2-4-2.2-5.3-0.4l-9,12
					l8.9-17.1c0.6-1.1,0.5-2.4-0.3-3.4c-4.3-5.6-10.3-10.4-14.1-13.1c-1.7-1.3-4.2-0.5-4.9,1.5l-7.5,21.7l4.3-25.2
					c0.3-1.5-0.6-2.9-1.9-3.5c-7.8-3.1-15.1-4.5-21.8-4.8c-1.7-0.1-3.2,1.3-3.3,3l-1.4,27.4l-3.1-27.6c-0.2-1.5-1.5-2.5-3-2.3
					c-12.1,1.6-20.9,6.4-24.4,8.5c-1,0.6-1.4,1.7-1.2,2.8l5.6,25.9l2.3,3.6c0,0,36.8-11.9,69.3,16.1c25.7,22.2,28.7,54.4,28.7,54.4
					s-0.1-26.9-7.8-53.9c-0.6-2.1-3.1-3-4.9-1.8L239.2,274.1z"/>
				<g>
					<path class="st19" d="M149.4,264.2c11.2-6.3,8.6-8.8,8.6-8.8l-36.3-40.8l15.8,52.3C137.4,266.8,138.2,270.4,149.4,264.2z"/>
					<path class="st20" d="M137.4,266.8c-1.6-5.3,13.2-19.8,6.8-27"/>
					<path class="st20" d="M145.5,266.1c8.1-5.2,10.6-12.9,7.4-16.5"/>
					<path class="st20" d="M133.7,254.7c-2.7-8.8,8.6-17,3-23.3"/>
					<path class="st20" d="M129.1,239.2c-1.9-6.4,5-10.7-0.3-16.7"/>
				</g>
				<line class="st19" x1="256.1" y1="439.2" x2="260.5" y2="439.2"/>
				<line class="st19" x1="265.7" y1="482.7" x2="268.5" y2="482.7"/>
				<line class="st19" x1="186.5" y1="478.2" x2="187.7" y2="479"/>
				<path class="st15" d="M225.2,475.2c3.7-3-5.7-4.3-0.5-8.2c0,0-4.7-24.5,23.7-27.7"/>
				<path class="st15" d="M224.7,467c2.9-1.5,9.5-2.4,16.4,4.8c6.5,6.8,8.3,11,13,11c2.6,0,6.4,0,6.4,0"/>
				<path class="st20" d="M272.5,350c5.1,11.4-11.1,19.8-33.5,12.8"/>
			</g>
			<g>
				<path class="st7" d="M177.7,364.3c-2.2,9.2-13,17.2-29,17.2c-16,0-29-7.7-29-17.2c0-9.5,13-17.2,29-17.2
					C164.7,347.1,180.6,351.8,177.7,364.3z"/>
				<g>
					<path class="st8" d="M124.3,335.2c-12.3-0.9-21.6,9.1-17.5,22.5c3.6,11.7,18.6,7.4,19.5-1.6
						C126.9,349.6,124.3,335.2,124.3,335.2z"/>
					<path class="st8" d="M123.8,335.2c4.5,0,11.8-1.1,20.8,5.9c11.4,8.9,19.4,7.4,28.6,2.4c4.3-2.3,7.5-1,9,4.2
						c2.4,8.4-0.4,45.4-48.1,39.3c-6.6-0.8-17.9-4.9-17-12.4c0.8-6.8,9.7-8.7,22.3-2c12.3,6.6,22.8,7,29.3,1.5
						c6.2-5.1,6.7-15,6.6-17.5c0-0.6-0.7-0.8-1.1-0.5c-3.3,2.9-19.4,14.2-35.9,10.2c-7.9-1.9-14.6-6.3-14.6-18.6L123.8,335.2z"/>
					<path class="st7" d="M134.7,339.1c0.3,5.3-6.6,9.3-11.8,8.4c-5.2-0.9-8.3-5.9-8-8.4c0.2-2,1.8-4.2,7.2-4.5
						C134.3,333.8,134.6,337.1,134.7,339.1z"/>
					<ellipse class="st13" cx="123.6" cy="337.6" rx="5.4" ry="1.7"/>
				</g>
				<path class="st21" d="M159.2,377.7c-9.4,0.2-22.7-16.3-37-14.9s-19.7,14.2-12.9,18c10,5.6,27.2-9.1,32.4-7.1
					C149.1,377.1,153.5,378.1,159.2,377.7z"/>
			</g>
			<path class="st8" d="M225,294.4c3,14.8-0.5,34.3-14.1,37.1c-13.6,2.8-25.7-16.2-28.7-31c-3-14.8,4.2-22.5,17.8-25.2
				C213.5,272.5,221.9,279.6,225,294.4z"/>
		</g>
	</g>
</g>
</svg>
