<svg id="Capa_1" xmlns="http://www.w3.org/2000/svg" viewBox="0 0 120 110"><style>.st2{fill:#dd427e}</style><path id="XMLID_76_" d="M118.6 23.8c-.2-1.1-1.4-1.2-2.3-1.3-2.4-.3-4.7-.4-7.1-.5-3.1-.1-6.5-.1-9.8.3h-.2c4.5-1 9-1.9 13.6-2.6.8-.1 1-1.1.3-1.4-4.9-2.4-10.8-2-16.2-1.6-7.4.5-14.7 1.6-21.9 3.3-2 .5-4 .9-5.9 1.5-.2-.8-.4-1.7-.5-2.5-.1-1.2-.2-2.3-.2-3.5.6-1.5.7-3.4-.8-3.5-1.1-.1-1.2 1-1.3 1.8-.2.8-.5 1.6-.5 2.4-.3.8-.4 1.7-.6 2.6-.4 1.6-1.1 3.1-2 4.4-.2.3-1.7.6-2.1.7-2.8 1-6 1.6-8.5 3-.1-1.3-.2-2.7-.3-3.9-.3-3.5-.3-7.1-.5-10.6v-.7c0-.8-1.2-.8-1.2 0-.1 5 .9 10.3.1 15.3-.4.1-.8.4-1.2.7h-.1c.4-.4.8-.8 1-1.1 0-.1 0-.2-.1-.1-.5.1-1 .4-1.4.7.2-.2.4-.4.6-.5.1-.1.1-.3-.1-.3-.4.2-.8.4-1.2.7l1.1-1.1c.1-.1 0-.2-.1-.2-.6.1-1.3.5-1.8 1.1-.6.5-1.1 1-1.7 1.5-.1 0-.2 0-.3.1.3-.4.7-.7 1.1-1 .1-.1 0-.3-.1-.3-.1.1-.3.2-.4.3.5-.5 1-.9 1.6-1.3.2-.1 0-.3-.1-.3-.7.3-1.3.7-1.8 1.2 0-.1 0-.2-.1-.2-.5.1-.8.3-1.1.6.4-.6.8-1.2 1.3-1.5.1 0 0-.2-.1-.1-1.2.5-1.8 1.5-2.3 2.6-1.2 1.1-2.3 2.5-3.4 3.7 0 .1-.1.1-.1.2-1.8-1.8-3.7-3.6-5.4-5.6-1.3-1.4-3.1-4.6-4.8-4.9-1.2-.2-1.9.9-1.7 2.4-.5 6.5-.9 12.9-1.8 19.4-.6 5-1.5 9.9-2.2 14.8 0 0-.1 0-.1.1l-.1.1c-.4.6-.9 1.1-1.3 1.7-.8-.4-1.5-1.1-2.5-1.9-.1-.1-.4.1-.2.2.5.5 1.4 1.7 2.2 2.3-1.9 2.4-3.9 4.6-6 6.7-1.8 1.7-3.7 3.1-5.5 4.7-.2.1-.2.4-.1.6v.1c-1.1.6-2.1 1.6-3.2 2.3-1.5.9-3 1.3-4.6 1.9-.1.1-.1.2-.2.4-.3 0-.4.3-.5.5-.4.9-.4 1.9-.3 2.9 0 .1.1.1.1 0 .1-.9.2-1.8.9-2.3l.1.1c1.5-.3 3-1.2 4.3-2.1 1.1-.8 2.6-1.7 3.5-3.1 0 .1.1.2.1.3.1.2.3.3.4.2 1.9-1.5 3.8-3.4 5.4-5.2 2.1-2.3 4.1-4.9 5.9-7.7 1.2.2 3.2-.5 4.3-.8 2.9-.7 5.6-2.3 8.4-3.2 0 .4 0 .7.1 1.1v.1l.3.9v.2c.1.2.1.4.2.6-1.4 1-2.7 2.1-4.1 3.1-1.1.8-2.2 1.8-3.5 2.2-1.5.5-3.8-.1-5.5-.3-.1 0-.2.2 0 .2 1.5.3 3.3.9 4.8.9 1 0 1.6-.5 2.5-1C31.9 64 34 62.5 36 61c.3.5.6 1.1 1.1 1.4-.1.1.1.2.1.1-1.5 1.8-3 3.7-4.2 5.8-2.6 3.3-4.3 7.6-5.9 11.1-.2.3.3.6.5.3 3.4-5.2 6.5-13.2 13.3-14.4.1 0 .1 0 .2-.1h.8c.9.1 1.8.1 2.6-.4s1.3-1.3 1.5-2.2c.1-.1.2-.3.3-.4 1.4-1.7.9-4.4-.2-6.4v-.2c.1-.9.8-2.4.7-3.5l1.5-.9.1.1v19.2c0 1.6-.1 3.2-.1 4.8.1.1.3.2.5.2 0 4.1-1.4 8.3-.5 12.3.1 0 .2.1.3.1-.2.8-.4 1.6-.7 2.4-.5 1.5-.8 3.3-1.8 4.6-.3.4-.2.8.1 1-.3.5-.5 1.1-.8 1.5-.5.8-1.4 1.5-1.7 2.4v.2l-.4.4c-.3.3-.7.5-.9.9-.5.9-.1 1.5.5 2.3.1.1.3.1.3-.1 0-.3-.2-.6-.3-.9-.1-.4-.2-.7.2-.9l.6-.3c.4-.2.9-.6 1.3-1 .8-.5 1.4-1.5 1.8-2.4.3-.7.7-1.4.8-2.2 1.1-1.2 1.2-3.1 1.5-4.6.2-1.2.3-2.4.4-3.5.2 0 .3-.1.5-.2.8-2.8.5-6 .4-8.9 0-1.2 0-2.4-.2-3.5.2-.1.3-.2.5-.3-.1-1.5-.2-3-.3-4.4-.2-3.8-.5-7.6-.7-11.4-.1-2.4-.1-4.8-.1-7.2 1.1.5 2.4.7 3.8.8h1l.6 3.6c.1 1.2 0 2.6.4 3.8 0 2 .1 4.1.2 6.1.1 1.3.3 2.7.4 4 0 .7-.1 1.1.5 1.5.4.3.7-.3.3-.6-.6-.5-.5-2.8-.6-3.6-.1-1.1-.2-2.2-.3-3.2-.1-1.2-.2-2.4-.3-3.7.1.1.4 0 .3-.2-.5-1.6-.4-3.4-.7-5.1-.1-.9-.3-1.8-.5-2.7h.6c0 1.7 2.1 3.2 3.6 3.5h.2c.5.8 1.9.9 2.2-.3.1-.6.3-1.1.5-1.7.2.1.5.1.8-.1 1-.4 1.9-.9 2.7-1.4-.1 1.4-.1 2.8-.2 4.2-.2 6.7-.1 13.9 1.1 20.6-.4.2-.6.7-.3 1.3 2.9 5.4 5.4 10.6 8.9 15.7 2.7 3.9 5.3 8.8 9.8 10.8v.1c.7.6 1.4 1 1.7 1.9.3.8.1 1.6.4 2.4 0 .1.2.1.2 0-.2-1.1.3-2.2.2-3.3-.1-.6-.3-1.2-.7-1.7.1-.5 0-1-.6-1.2C80.9 101 78 96.9 75 92.6c-2.8-4-6-8.5-7-13.4-.1-7.2-.5-14.5-.8-21.7-.1-1.5-.1-2.9-.1-4.4.7.4 1.5.8 2.2 1 .7.2 1.2.1 1.6-.2 1.8 2.2 4.4 3.9 7.4 4.2h.1c.4 5.5 1.1 10.9 1.9 16.3-.6 0-1.2.5-.9 1.1 1.2 3.1 4.3 4.6 7.3 5.7 3.2 1.2 6.6 2 10.1 2.6 1.8.6 3.7 1.1 5.5 1.6.2.1.4 0 .6 0 .4.5 1.3.5 1.9.5.8.1 1.3.2 1.6 1 .3.7.5 1.5.7 2.3 0 0 .1 0 0 0-.1-.9-.1-1.8-.3-2.8-.1-.5-.2-1-.6-1.3-.4-.3-1-.5-1.5-.5-.4-.1-.8-.2-1.3-.2-.1-.4-.3-.7-.9-.7-2.7-.1-5.3-.6-7.8-1.2-1.7-.5-3.5-1-5.2-1.7-3.5-1.3-5.8-3.2-8.3-5.8-.5-5.7-.9-11.4-1.1-17.1.9.5 1.8.8 2.7 1.1 1.4.4 3.8 1.2 5.3.6.4-.2.8-.5 1.1-.9h.1c.8.2 1.6.4 2.5.5 1.2.1 2.8.4 4-.1.4-.2.7-.4.9-.7 1.2.3 2.6.3 3.6-.2.5-.3 1-.8 1.4-1.3h.1c1.1-.1 2.1-.4 3-1.2.1-.1.3-.2.4-.4 1.3-.8 2.6-1.9 3.9-3.1.8-.8.1-1.9-.8-2-2.2-.3-4.4-.9-6.6-1.7-.1-.4-.3-.7-.5-1-.8-.9-2.5-1.3-3.6-1.6-.5-.1-1.1-.3-1.6-.4-.2-.5-.4-1-.7-1.4-.9-1.1-2.4-2.2-4-2.8-.7-2.4-3.2-4-5.9-4.8l-2.7.3c-.9.1-1.7.2-2.6.2v-.9c6.9-.9 13.9-1.8 20.7-3.4 3.6-.8 7.3-2.1 10.7-3.8 1.1-.3 7.4-3 7.1-5.1zm-76 35.9c.3.2.6.4.8.7-.3-.2-.6-.3-.9-.5 0-.1.1-.2.1-.2zm.7.9c-.1.1-.3.2-.4.3-.3-.2-.7-.4-1-.5l.4-.4c.4.2.7.4 1 .6zm-1.4.9c-.3-.1-.6-.3-.9-.4.2-.1.3-.3.5-.4.3.2.6.4.9.5-.1.1-.3.2-.5.3zm.3.9c-.1.1-.2.1-.3.2-.2-.1-.3-.2-.5-.2.1-.1.2-.1.3-.2.2 0 .4.1.5.2zm-3.7-2.3c.2.1.4.3.6.4-.1.2-.3.3-.4.5-.2-.1-.5-.3-.7-.4.1-.2.3-.4.5-.5zm-.9.3l-.1-.1c.2-.2.4-.3.6-.5-.1.2-.3.4-.5.6zm2.6.8l-.3.3c-.3-.1-.6-.3-.9-.4l.4-.4c.2.1.5.3.8.5zm-.6-.8l.1-.1.4-.4.9.6c-.2.1-.3.3-.5.4-.2-.2-.6-.3-.9-.5zm-.8.8l.6.3c.1.1.2.1.3.2-.2.1-.3.3-.5.4-.3-.2-.5-.3-.8-.5.2-.1.3-.2.4-.4zm1.3.7c.2.1.4.3.7.4-.2.1-.4.2-.6.4l-.6-.3c.2-.2.4-.3.5-.5zm.4-.1c-.1 0-.1-.1-.2-.1l.3-.3c.2.2.5.3.8.4-.1.1-.2.1-.3.2-.2 0-.4-.1-.6-.2zm1.8-2.3l-.1.1c-.2-.1-.3-.2-.5-.3.2.1.4.2.6.2zm-1.4-.2h.4c.2.2.5.3.7.4-.1.1-.3.2-.4.3-.3-.2-.7-.3-1-.5 0 0 .1-.1.3-.2zm-.6 0l-.1.1c-.1 0-.2-.1-.3-.1h.4zm-.5.4l-.5.5-.6-.3.2-.2c.1-.1.3-.2.4-.3.2.1.4.2.5.3zm-4.3-1.5c0-.2-.1-.4-.1-.6.1.1.2.3.3.4 0 .1-.1.2-.2.2zm.1.4c0-.1 0-.2-.1-.2.1-.1.2-.1.3-.2.1.1.1.2.2.3-.1.1-.1.2-.2.3 0-.1-.1-.1-.2-.2zm.5 0c0 .1.1.2.1.2v.1c-.1 0-.2-.1-.3-.1.1 0 .2-.1.2-.2zm.1 1.5c-.1-.2-.1-.3-.2-.4.1.1.3.2.4.3-.1 0-.1.1-.2.1zm.3-.4c-.2-.1-.4-.2-.5-.3l.1-.1c0-.1 0-.1-.1-.1s-.1.1-.2.1c-.1-.1-.1-.3-.1-.4.2.1.5.3.7.4 0 .1.1.3.1.4zm-1.2-3.2c-1.9.6-3.7 1.7-5.6 2.4-1.7.7-3.4 1.2-5.2 1.6-.6.1-1.2.1-1.6 0 .2-.4.5-.7.7-1.1 0 .2 0 .3-.1.5.3.1.7 0 1-.3.2-.2.3-.4.5-.6 1.3-4.9 1.6-10.6 2.2-15.5.7-6.1 1.4-12.5 1-18.7.2 0 .4 0 .5-.2.9-1.1 7.9 7.7 8.9 8.8.2.2.4.4.5.6l-.1.1c-.5.7-1.3 1.6-1.2 2.6-.3.4-.6.7-.9 1.1-.4.6-.7 1.6-.5 2.3-.8 1-1.5 2.4-1.4 3.6-.9 1.7-1 4.2.5 5.2h.1c.4 1.2 1 2.5 2.2 3 .3.1.6 0 .7-.3.4.5 1 1 1.7 1 .1.1.3.1.5.2-.3 0-.5.1-.8.1-.1 0-.2.1-.3.2h-.3c-.9.8-2.7 2-3 3.4zm2 4.2c0-.1 0-.2-.1-.3 0 0 .1 0 .1-.1l.1.1c0 .2 0 .2-.1.3zm.5 0c.2.1.5.3.7.4-.1.1-.2.2-.3.4-.2-.2-.5-.3-.7-.4.1-.2.2-.3.3-.4zm1 1.9c-.2-.2-.5-.4-.7-.6l.1-.1c.3.2.5.3.8.5-.1 0-.2.1-.2.2zm.8.4c-.2-.1-.3-.1-.5-.2.1-.1.2-.1.2-.2.2.1.3.2.5.3 0 0-.1.1-.2.1zm.4.2c.1 0 .1-.1.2-.1.2.1.3.2.5.3-.2-.1-.5-.1-.7-.2zm1.1 0c-.2-.1-.4-.2-.5-.3.2-.1.4-.2.6-.4.2.1.3.2.5.3-.2.1-.4.2-.6.4zm.4.2c.2-.1.4-.2.6-.4.1 0 .2.1.3.1-.4.2-.6.2-.9.3zm1.1-.4c-.1-.1-.2-.1-.3-.2.1-.1.2-.2.3-.2.1 0 .2.1.3.1l-.3.3zm.2-1.1c-.2-.1-.3-.1-.5-.2.1-.1.3-.2.4-.3.2.1.3.2.5.3-.1 0-.3.1-.4.2zm.8-.7c-.1-.1-.3-.2-.4-.2l.3-.3v-.1s.1 0 .1.1v.5zm.8-33.1c0-.1.1-.2.1-.2v-.1c.2-.3.5-.6.9-.7l-1 1zm7.3-.7c-.3.2-.5.3-.8.5.1-.1.2-.2.2-.3.1-.1 0-.3-.2-.2-.1 0-.1.1-.2.1v-.1c.1-.1.2-.2.3-.4.1-.1 0-.3-.1-.2.2-1.2.3-2.4.4-3.6 0 .5.1 1 .1 1.5.2.9.3 1.8.3 2.7 0-.1 0 0 0 0zm8.4 24.5c-.2-.3-.5-.7-.8-1 .2-.2.4-.5.7-.8.5-.7 1-1.5 1.3-2.3-.4 1.3-.8 2.7-1.2 4.1zm3.4-13.2h.3c0 .1-.1.2-.1.3h-.1c-.2-.1-.3-.3-.1-.3zm-1 13.3c.2-.7.4-1.4.6-2 .3.4.7.7 1 1.1-.4.3-1 .6-1.6.9zm2-29.3c.7-.7 1.3-1.5 1.8-2.5.3-.7.7-1.5 1-2.3l.3 1.2c.2.8.4 1.7.7 2.6-1.3.3-2.6.7-3.8 1zm5.4 15.5c-1 .1-2 .2-2.9.3v-.4c1.1-.2 2.1-.3 3.2-.4-.1.2-.2.4-.3.5zm3.8-.3c.1-.2.3-.5.4-.7.7-.1 1.5-.2 2.2-.3 0 .2.1.5.1.7-.9.2-1.8.2-2.7.3z" opacity=".9" fill="#171923"/><g opacity=".4"><path class="st2" d="M62.5 1.1c-26 0-47.2 21.2-47.2 47.2 0 26 21.2 47.2 47.2 47.2 26 0 47.2-21.2 47.2-47.2.1-26-21.1-47.2-47.2-47.2zm38.1 47.3c0 7.7-2.3 14.8-6.2 20.8L36.8 20.3c6.8-6.2 15.8-10.1 25.7-10.1 21 .1 38.1 17.2 38.1 38.2zm-76.1 0c0-7.8 2.4-15.1 6.5-21.2l57.6 48.9c-6.8 6.4-16 10.4-26.1 10.4-20.9-.1-38-17.2-38-38.1z"/><path class="st2" d="M57.6 1h4.9v.1h-4.9z"/></g></svg>