<?xml version="1.0" encoding="utf-8"?>
<!-- Generator: Adobe Illustrator 22.0.1, SVG Export Plug-In . SVG Version: 6.00 Build 0)  -->
<svg version="1.1" id="Capa_1" xmlns="http://www.w3.org/2000/svg" xmlns:xlink="http://www.w3.org/1999/xlink" x="0px" y="0px"
	 viewBox="0 0 800 800" style="enable-background:new 0 0 800 800;" xml:space="preserve">
<style type="text/css">
	.st0{fill:none;}
	.st1{fill:#FFFFFF;}
</style>
<g>
	<path class="st0" d="M303.9,345c8.9,0,16.2,7.2,16.2,16.2c0,2.9-0.8,5.6-2.2,8h146.9c0.1-0.4,0.3-0.8,0.4-1.2
		c-6,2.4-8.9-3.1-9.7-10.9c-0.8-8-0.6-15.3-4.3-22.7c-4.3-8.7-13.5-13.7-21.7-18.1c-22.8-12.4-47.7-20.1-73.7-21.7
		c-14.6-0.8-30,0.1-44,4.8c0.2,3.6,0.1,7.2-0.8,10.8c-1.3,5.4-4.4,11-7.2,15.7c-0.7,1.2-2.9,1.1-3.1-0.4c-0.1-0.7-0.2-1.3-0.4-2
		c-6.5,8-7.2,19.5-10.1,29.2C293,348.1,298.1,345,303.9,345z"/>
	<path class="st0" d="M250.6,590.4c-0.3,0.6-0.7,1.2-1,1.8h2.6C251.6,591.6,251.1,591,250.6,590.4z"/>
	<path class="st0" d="M207.6,582.2c-1.4,0.2-2.9,0.3-4.4,0.2c-2.5-0.2-4.9-0.8-7-1.9c-1,2.9-2.8,5.5-5.1,7.4
		c0.9,1.3,1.6,2.7,2.1,4.2h17.6C209.1,589.2,207.9,585.9,207.6,582.2z"/>
	<path class="st1" d="M165.1,600.2c-2.9,1.1-6.1,1.6-9.4,1.4c-1.1-0.1-2.2-0.3-3.3-0.5v9.6h22.8
		C170.2,609.2,166.4,605.2,165.1,600.2z"/>
	<path class="st1" d="M267.1,593.7c-5.1,3.3-10.9,2.3-14.9-1.5h-2.6c-4.3,7.1-12.2,11.6-21,11c-7.6-0.6-14-4.9-17.7-11h-17.6
		c0.6,1.7,0.8,3.6,0.7,5.5c-0.5,6.3-4.9,11.3-10.6,13h52.3L173.6,788H193l84.5-168.1h221L582.9,788h19.4l-62.1-177.4h68.6v-18.5
		h-340C268.3,592.7,267.7,593.2,267.1,593.7z"/>
	<path class="st1" d="M689.9,369.1H517.8c-0.1-6.5,0.4-13,0.8-19.4c0.7-10,0.7-21.8,5.6-31c1.8,3.2,3.6,6.1,6.6,8.4
		c1.1,0.9,2.5-0.3,2.6-1.5c0.5-6.3-0.7-13.5,1.8-19.4c1.9,3,3.5,6.1,6.2,8.6c1.2,1.1,2.8,0.2,2.9-1.2c1.3-14.2,1.4-33.5,13.2-43.9
		c1.2,4.3,3.3,8,7.3,10.4c1.1,0.7,2.6-0.2,2.6-1.5c0.3-16.1,12.8-28.6,12.6-44.8c0-1.1-0.8-1.6-1.6-1.6c-22.9-15-15.9-46.7-5.9-67.5
		c3.3-6.9,14.2-36.8,24.6-27c2.2,2.1,5,5.3,7.6,4.1c2.5,3.7,4,8.6,8.3,10.4c2.8,1.2,5.1-2.9,6.8-5.9c1.6,3.8,3.9,6.6,7.9,9
		c0.8,0.5,1.8,0.2,2.3-0.6c0.6-0.9,1.1-1.8,1.7-2.8c0,10.7,1.6,22.4,9.8,29.3c0.9,0.8,2,0.6,2.7-0.3c1.3-1.8,2.3-3.8,3.5-5.7
		c0.7,2.5,1.3,5.1,2.2,7.6c0.3,1,1.6,1.7,2.5,1c3-2.1,4.5-4.8,6.4-7.6c0.8,5.3,1.1,10.6,4,15.5c0.7,1.2,2.3,1.1,3,0
		c6.6-9.9,8.3-22,13.4-32.6c0.5,1.1,0.8,2.2,1,3.4c0.4,1.3,2.5,1.8,3.1,0.4c2.2-4.9,3.6-9.9,4.5-15.2c0.7-4.6,0-9.1,5.2-10.5
		c1.1-0.3,1.5-1.5,1-2.5c-4.5-9.1-5.5-17.8-6.5-27.8c-0.1-1-0.2-2-0.4-3c4.7-4,5.9-9.3-0.9-15c-3.9-3.3-8.2-5.2-13.1-6.4
		c-4.6-1.1-15.9-2.5-17.2-8.1c1.1,0.4,2.3-0.4,2.3-1.6c-0.1-2.8-0.3-4.1-0.6-6.4c1.7,0.7,3.5,1.5,5,2c1,0.4,2.2-0.6,2.2-1.7
		c-0.4-8.2-4.3-14.2-11.7-17.8c-8.1-3.8-16.1-0.4-24.3,1c-5.9,1-9.7-0.2-13.5-4.8c-0.9-1.1-1.9-2.4-3.1-3.2
		c-3.8-2.4-7.9-3.3-12.3-3.4c-8.2-0.1-20.8-0.1-22.3-11c-0.7-5.1,0.2-10.2,0.4-15.3c0.1-1.1-0.8-1.6-1.6-1.6c-0.6-0.7-1.6-1-2.4-0.1
		c-7.4,7.9-13.6,16.8-17.7,26.9c-4.2,10.3-9.2,20.7-12.6,31.3c-2.3,3.8-4.4,7.6-6.3,11c-4.8,8.3-9.5,17-17,23.1
		c-8.4,6.8-17,13.2-25.5,19.9c-9.2,7.3-18.2,14.7-27.4,22c-9.7,7.7-17.5,12.5-29.9,14.2c-22.3,3.1-44.5,6.4-67.1,6.3
		c-12,0-23.9-0.6-35.8-2.2c-10.3-1.4-20.5-3.7-30.9-4.2c-16.7-0.9-34.1,3-47.4,13.7c-2.3,1.9-4.4,4-6.4,6.1
		c-4.2-4.4-7.2-9.8-8.4-16.1c-1.6-8.6,2.3-17,0.4-25.3c-3.9-16.8-20.9,6.6-23.9,11.7c-9,15.2-10.6,33.6-4.6,50.3
		c3.1,8.6,9.2,14.3,16.4,18.6c-2,2.3-4.1,4.4-6.3,6.4c-4.8,4.3-10.5,8.9-12.3,15.4c-2.4,8.8-1.5,17.7-1.6,26.7
		c-0.1,13.5-1.6,25.6-7.1,38c-4.2,9.4-8.1,19-12.4,28.4c-1.8,4-4,8.4-6.4,12.5c1.4,0.6,2.7,1.2,3.9,2c3.2-2.6,7.4-4,11.8-3.6
		c1.6,0.1,3.1,0.5,4.6,1c2.1-9.1,10.5-15.5,20.1-14.8c8.6,0.6,15.5,6.8,17.3,14.8c2.7-0.9,5.6-1.2,8.6-1c8.7,0.6,16,6.2,19.2,13.7
		c-1.3-3.1,7.4-3.6,8.7-3.5c4.1,0.3,7.6,1.8,10,4.2c0.4-2,1.1-3.8,2.1-5.4c3-9.7,3.6-21.3,10.1-29.2c0.1,0.7,0.3,1.3,0.4,2
		c0.3,1.5,2.4,1.6,3.1,0.4c2.8-4.8,5.9-10.3,7.2-15.7c0.9-3.7,0.9-7.2,0.8-10.8c14-4.6,29.4-5.6,44-4.8c26,1.5,50.9,9.2,73.7,21.7
		c8.1,4.4,17.4,9.4,21.7,18.1c3.7,7.5,3.5,14.7,4.3,22.7c0.7,7.8,3.6,13.3,9.7,10.9c-0.1,0.4-0.2,0.8-0.4,1.2H317.9
		c-2.8,4.9-8,8.2-14,8.2c-5.2,0-9.8-2.5-12.8-6.4c-0.8,3.5-2.8,6.6-5.8,8.6c-5.8,3.8-12.5,2-16.5-3.3c-3.9,8.1-12.5,13.4-22,12.7
		c-11.3-0.8-20.1-9.9-20.9-20.9c-1.4,0.2-2.9,0.3-4.4,0.2c-2.5-0.2-4.9-0.8-7-1.9c-1,2.9-2.8,5.5-5.1,7.4c2,2.7,3,6.1,2.8,9.7
		c-0.6,8.1-7.6,14.1-15.7,13.6c-6.5-0.5-11.6-5.1-13.1-11c-2.9,1.1-6.1,1.6-9.4,1.4c-9.4-0.7-17-7.3-19.5-15.9
		c-4.9,4.6-11.7,7.2-18.9,6.7c-7.1-0.5-13.3-4-17.5-9H90.2c-23.9,0-43.5,19.6-43.5,43.5H76l15.3,103.1c2,12.4,6.1,23.3,12,32.4
		c4.8-3.9,11.1-6.1,17.8-5.6c4.3-7.6,12.6-12.4,21.9-11.8c12.8,0.9,22.4,12,21.4,24.8c-0.1,1.2-0.3,2.4-0.5,3.5
		c2,0.6,3.9,1.6,5.6,2.7c3.2-2.6,7.4-4,11.8-3.6c1.6,0.1,3.1,0.5,4.6,1c2.1-9.1,10.5-15.5,20.1-14.8c8.6,0.6,15.5,6.8,17.3,14.8
		c2.7-0.9,5.6-1.2,8.6-1c8.7,0.6,16,6.2,19.2,13.7c-1.3-3.1,7.4-3.6,8.7-3.5c6.1,0.4,10.9,3.6,12.8,8.6h349.1
		c36.9,0,60.4-24,67.2-61.1l15.3-103.1h29.3C733.4,388.7,713.8,369.1,689.9,369.1z M202.6,441.2c-0.7,3.7-3.7,6.8-7.5,7.5
		c-6.7,1.3-12.5-4.5-11.2-11.2c0.7-3.7,3.7-6.8,7.5-7.5C198.1,428.8,203.9,434.5,202.6,441.2z M229.4,415.9
		c-1,5.4-5.4,9.8-10.8,10.8c-9.7,1.8-18.1-6.5-16.2-16.2c1-5.4,5.4-9.8,10.8-10.8C222.9,397.8,231.3,406.2,229.4,415.9z"/>
</g>
</svg>
