<?xml version="1.0" encoding="utf-8"?>
<!-- Generator: Adobe Illustrator 22.0.1, SVG Export Plug-In . SVG Version: 6.00 Build 0)  -->
<svg version="1.1" id="Capa_1" xmlns="http://www.w3.org/2000/svg" xmlns:xlink="http://www.w3.org/1999/xlink" x="0px" y="0px"
	 viewBox="0 0 800 800" style="enable-background:new 0 0 800 800;" xml:space="preserve">
<style type="text/css">
	.st0{fill:#FFFFFF;}
</style>
<g>
	<path class="st0" d="M535,367.5c6.2-6.5,6-16.8-0.5-23c-6.5-6.2-16.8-6-23,0.5l-0.6,0.6c-19.2-13.4-42.5-21.4-67.7-21.4H189.7v-7.9
		L81.9,282.4v-19.1c0-3.6-2.9-6.5-6.5-6.5H61.2c-3.6,0-6.5,2.9-6.5,6.5v26.2H16.5c-4.9,0-8.9,4-8.9,8.9c0,4.9,4,8.9,8.9,8.9h38.2
		v22.3H16.5c-4.9,0-8.9,4-8.9,8.9c0,4.9,4,8.9,8.9,8.9h38.2v22.3H16.5c-4.9,0-8.9,4-8.9,8.9c0,4.9,4,8.9,8.9,8.9h38.2v22.3H16.5
		c-4.9,0-8.9,4-8.9,8.9c0,4.9,4,8.9,8.9,8.9h38.2v22.3H16.5c-4.9,0-8.9,4-8.9,8.9c0,4.9,4,8.9,8.9,8.9h38.2v26.2
		c0,3.6,2.9,6.5,6.5,6.5h14.2c3.6,0,6.5-2.9,6.5-6.5v-19l107.9-33.9v-6.6c26.5,3.5,76.6,10.2,135.9,17.9c3.6,44.6,32.1,82.2,71.5,99
		c0,12.2,0,24.7,0,32.2c0,18.7-7.6,20.5-7.6,33.1c0,12.6,7.6,10.8,7.6,30.7c0,19.9-8.1,16.3-7.5,33.7c0.6,17.5,7.5,16.9,7.5,33.7
		c0,16.9,0,40.4,0,40.4H427v20.8c0,9,7.3,16.3,16.3,16.3c9,0,16.3-7.3,16.3-16.3V755h29.8V551.1c42.3-18,72-59.9,72-108.7
		c0-28.3-10-54.2-26.6-74.6L535,367.5z M515.3,430.6l-23.5,4.1l-0.3-2l23.5-4.1L515.3,430.6z M511.5,416.4l0.7,1.9l-22.4,8.1
		l-0.7-1.9L511.5,416.4z M507,406.7l-20.6,11.9l-1-1.8l20.6-11.9L507,406.7z M499.8,396.2l-18.3,15.3l-1.3-1.6l18.3-15.3
		L499.8,396.2z M491,387l-15.3,18.2l-1.6-1.3l15.3-18.3L491,387z M480.6,379.6l-11.9,20.6l-1.8-1l11.9-20.6L480.6,379.6z
		 M442.2,369.3h2v23.8h-2V369.3z M431.6,370.2l4.1,23.5l-2,0.4l-4.1-23.5L431.6,370.2z M407.6,378.6l11.9,20.6l-1.8,1l-11.9-20.6
		L407.6,378.6z M397.1,385.7l15.3,18.3l-1.6,1.3L395.5,387L397.1,385.7z M388,394.6l18.3,15.3l-1.3,1.6l-18.3-15.3L388,394.6z
		 M380.5,404.9l20.6,11.9l-1,1.8l-20.6-11.9L380.5,404.9z M375,416.4l22.4,8.2l-0.7,1.9l-22.4-8.1L375,416.4z M371.5,428.6l23.5,4.1
		l-0.3,2l-23.5-4.1L371.5,428.6z M370.2,441.3l23.8,0l0,2l-23.8,0V441.3z M371.2,454l23.5-4.1l0.4,2l-23.5,4.1L371.2,454z
		 M374.3,466.4l22.4-8.2l0.7,1.9l-22.4,8.1L374.3,466.4z M379.5,478l20.6-11.9l1,1.8l-20.6,11.9L379.5,478z M386.7,488.5l18.3-15.3
		l1.3,1.6L388,490L386.7,488.5z M397.1,498.9l-1.6-1.3l15.3-18.3l1.6,1.3L397.1,498.9z M405.9,505.1l11.9-20.6l1.8,1l-11.9,20.6
		L405.9,505.1z M419.2,511.3l-1.9-0.7l8.2-22.4l1.9,0.7L419.2,511.3z M425.5,396.5l-8.2-22.4l1.9-0.7l8.2,22.4L425.5,396.5z
		 M431.6,514.4l-2-0.4l4.1-23.5l2,0.3L431.6,514.4z M444.3,515.4h-2l0-23.8h2L444.3,515.4z M454.9,514.4l-4.1-23.5l2-0.4l4.1,23.5
		L454.9,514.4z M452.8,394.1l-2-0.3l4.1-23.5l2,0.4L452.8,394.1z M467.3,373.4l1.9,0.7l-8.2,22.4l-1.9-0.7L467.3,373.4z
		 M467.3,511.3l-8.1-22.4l1.9-0.7l8.1,22.4L467.3,511.3z M478.9,506.1L467,485.4l1.8-1l11.9,20.6L478.9,506.1z M489.4,498.9
		l-15.3-18.3l1.6-1.3l15.3,18.3L489.4,498.9z M498.5,490l-18.3-15.3l1.3-1.6l18.3,15.3L498.5,490z M506,479.7l-20.6-11.9l1-1.8
		L507,478L506,479.7z M511.5,468.3l-22.4-8.2l0.7-1.9l22.4,8.2L511.5,468.3z M515,456l-23.5-4.1l0.3-2l23.5,4.1L515,456z
		 M516.3,443.3l-23.8,0l0-2l23.8,0V443.3z"/>
	<rect x="624.1" y="476.8" class="st0" width="163.8" height="312.9"/>
	<polygon class="st0" points="773.1,425.6 773.1,409.8 640.8,409.8 640.8,425.6 624.1,425.6 624.1,461.3 787.8,461.3 787.8,425.6 	
		"/>
	<path class="st0" d="M772.1,331.5c0-12.4-8.6-22.5-19.1-22.5h-9.5c0.1-0.5,0.2-1,0.2-1.5V247c0-3.3-2.8-6-6.3-6h-64
		c-3.5,0-6.3,2.7-6.3,6v2h-13.6c-3.5,0-6.3,3-6.3-1.2v15.8c0,11.7,2.8,14.7,6.3,14.7h13.6v29.1c0,0.5,0.1,1,0.2,1.5h-6.6
		c-10.5,0-19.1,10.1-19.1,22.5V394h130.5V331.5z"/>
</g>
</svg>
