<?xml version="1.0" encoding="utf-8"?>
<!-- Generator: Adobe Illustrator 22.0.1, SVG Export Plug-In . SVG Version: 6.00 Build 0)  -->
<svg version="1.1" id="Capa_1" xmlns="http://www.w3.org/2000/svg" xmlns:xlink="http://www.w3.org/1999/xlink" x="0px" y="0px"
	 viewBox="0 0 800 800" style="enable-background:new 0 0 800 800;" xml:space="preserve">
<style type="text/css">
	.st0{fill:#FFFFFF;}
</style>
<g>
	<path class="st0" d="M406.1,271.3c-5.8-4.9-14.4-4.9-20,0L154.4,471.2c-3.4,2.8-5.4,7-5.4,11.5v288.9c0,8.5,6.9,15.4,15.4,15.4
		h463.2c8.4,0,15.3-6.9,15.3-15.4V482.7c0-4.5-2-8.7-5.2-11.5L406.1,271.3z M612.2,756.2H179.9V489.8L396,303.4l216.2,186.4V756.2z"
		/>
	<path class="st0" d="M341.6,475.7c-31.1,0-56.4,25.3-56.4,56.4c0,5.7,0.9,11.1,2.4,16.3c6.3,37.2,72,87.7,110.6,128.1
		c0-0.2,0-0.2,0.1-0.3c41.4-50.9,102.5-91.6,106.2-128.1c1.5-5.1,2.2-10.5,2.2-16c0-31.1-25.1-56.4-56.2-56.4
		c-25.4,0-46.8,16.8-53.9,39.9c-1.2-2.7-2.5-5.1-4-7.3C383.6,489.2,364.2,475.7,341.6,475.7z"/>
	<path class="st0" d="M723.3,428.7L416.1,164.5c-11.5-9.9-28.6-9.9-40.1,0L68.7,428.7c-12.9,11.1-14.4,30.5-3.3,43.4
		c11.1,12.9,30.5,14.4,43.4,3.3L396,228.3l287.2,247.1c5.8,4.9,12.9,7.3,20.1,7.3c8.5,0,17.2-3.6,23.3-10.6
		C737.6,459.2,736.2,439.8,723.3,428.7z"/>
</g>
</svg>
