<?xml version="1.0" encoding="utf-8"?>
<!-- Generator: Adobe Illustrator 22.0.1, SVG Export Plug-In . SVG Version: 6.00 Build 0)  -->
<svg version="1.1" id="Capa_1" xmlns="http://www.w3.org/2000/svg" xmlns:xlink="http://www.w3.org/1999/xlink" x="0px" y="0px"
	 viewBox="0 0 800 800" style="enable-background:new 0 0 800 800;" xml:space="preserve">
<style type="text/css">
	.st0{fill-rule:evenodd;clip-rule:evenodd;fill:#FFFFFF;}
</style>
<g>
	<path class="st0" d="M653.4,602.3c-8.5-9.8-24.8-22.5-34.4-29.7c-2.5-2-5.1-3.9-7.8-5.6c-0.1-0.1-0.2-0.1-0.2-0.1l0,0
		c-18.7-12.5-41.1-19.8-65.2-19.8c-32.5,0-61.9,13.2-83.2,34.6c-10.3,9.6-19.2,20.2-28.4,30.5c-11.6,13.1-18.5,6.7-30.1,6.7
		c-11.6,0-18.5,6.4-30.1-6.7c-9.2-10.3-18.1-20.9-28.4-30.5c-21.3-21.3-50.6-34.6-83.1-34.6c-24.1,0-47.6,7.3-65.1,19.8v0
		c0,0-0.2,0.1-0.3,0.1c-2.6,1.8-5.2,3.7-7.7,5.6c-9.6,7.2-25.8,19.9-34.3,29.7c-12.6,14.5-39.8,15.5-39.8,15.5v30c0,0,16-1,21.4,5.3
		c3.1,3.7,6.3,21.6,11.9,40.3c1.7,6.7,4,13.1,6.8,19.3c2.6,6.1,5.6,11.8,9,16.5l0,0c21,31.8,57.1,52.8,98.1,52.8
		c47.6,0,88.5-28.3,107-69c0,0,0.1-0.1,0.1-0.1c0.1-0.1,0.2-0.3,0.3-0.5c8.4-14.3,16.9-53.5,20.8-59.7c3.9-6.3,13.6-6.8,13.6-6.8
		s9.7,0.5,13.6,6.8c3.8,6.2,12.3,45.4,20.8,59.7c0.1,0.2,0.2,0.3,0.3,0.5c0,0,0.1,0.1,0.1,0.1c18.5,40.7,59.4,69,107,69
		c41,0,77.1-21,98.1-52.8l0,0c3.5-4.7,6.4-10.3,9-16.4c2.8-6.2,5.1-12.6,6.8-19.3c5.5-18.7,9.1-36.6,12.2-40.3
		c5.3-6.3,21.7-5.3,21.7-5.3v-30C693.5,617.8,665.9,616.8,653.4,602.3z M262.3,766c-56,0-101.5-45.4-101.5-101.5
		c0-56,45.4-101.5,101.5-101.5c56,0,101.5,45.4,101.5,101.5C363.8,720.6,318.4,766,262.3,766z M545.7,766
		c-56,0-101.5-45.4-101.5-101.5c0-56,45.4-101.5,101.5-101.5c56,0,101.5,45.4,101.5,101.5C647.1,720.6,601.7,766,545.7,766z"/>
	<path class="st0" d="M736.2,523.3c0-12.4-8.5-23.1-20.3-26.1V395.6l75.1-28.7L399.1,217.2L7.7,366.9L202,441.4v46.3
		c35-18.6,98.3-27.7,151.9-31.1c14.1-0.6,29.4-1.7,45.2-1.7c16.4,0,31.6,1.1,45.2,1.7c53.7,3.4,117.5,12.4,152.5,31.1v-46.6
		l105.6-40.4v96.4c-11.8,3-20.3,13.8-20.3,26.1c0,5.1,1.4,9.9,3.8,14l-11.2,44.2H743l-11-43.4C734.7,533.8,736.2,528.7,736.2,523.3z
		 M419.1,421.9c-0.8,0.8-2.4,2-5,3.6c-2.6,1.7-7,3.6-13.4,5.9c-6.3,2.3-12.7,3.4-19,3.4c-16.5,0-27.7-6-33.7-17.9
		c-5.3-11.2-4.3-23.8,2.9-37.8l11.8-23.6c4.2-8.3,4.5-13.8,0.7-16.5c-0.8-0.8-2.4-1.1-5-1.1c-1.7,0-3.5,0.2-5.4,0.7
		c-2,0.5-3.6,0.8-5,1.1l-1.6,0.5c-2.9,1.1-5.2,0.2-7-2.5c-1.8-2.7-1.5-5.1,0.9-7.2c1.1-1.1,2.7-2.3,5-3.8c2.3-1.5,6.6-3.5,13.1-5.9
		c6.5-2.4,12.8-3.6,19-3.6c16.8,0,28.1,6,34,17.9c5.3,11,4.4,23.6-2.7,37.8l-12,23.6c-4.1,8.5-4.2,14-0.5,16.8
		c0.5,0.5,2,0.7,4.8,0.7c1.7,0,3.5-0.2,5.4-0.5c2-0.3,3.6-0.7,5-1.1l1.8-0.7c2.7-0.9,5,0,6.8,2.7
		C421.8,416.9,421.5,419.5,419.1,421.9z M403.2,305c-19.6,0-29.4-9.8-29.4-29.4c0-19.6,9.8-29.4,29.4-29.4
		c19.6,0,29.4,9.8,29.4,29.4C432.7,295.2,422.9,305,403.2,305z"/>
</g>
</svg>
