<?xml version="1.0" encoding="utf-8"?>
<!-- Generator: Adobe Illustrator 15.1.0, SVG Export Plug-In . SVG Version: 6.00 Build 0)  -->
<!DOCTYPE svg PUBLIC "-//W3C//DTD SVG 1.0//EN" "http://www.w3.org/TR/2001/REC-SVG-20010904/DTD/svg10.dtd">
<svg version="1.0" id="Capa_1" xmlns="http://www.w3.org/2000/svg" xmlns:xlink="http://www.w3.org/1999/xlink" x="0px" y="0px"
	 width="300px" height="90.667px" viewBox="0 0 300 90.667" enable-background="new 0 0 300 90.667" xml:space="preserve">
<g>
	<path fill="#E62679" d="M279.061,82.405h6.21l-2.996-7.946L279.061,82.405z M276.453,88.817h-2.063l7.018-17.106h2.234
		l6.472,17.106h-2.406l-1.77-4.704h-7.542L276.453,88.817z M99.399,89.047l-20.466-69.82l-25.731,69.82H43.055L75.356,2.01
		l8.546-0.046l25.662,87.083H99.399z M11.894,1.7L32.36,71.518L58.091,1.7h10.147L35.937,88.736l-8.547,0.046L1.729,1.7H11.894z
		 M101.433,1.7l20.466,69.818L147.628,1.7h10.15l-32.304,87.036l-8.545,0.046L91.268,1.7H101.433z M188.938,89.047l-20.468-69.82
		l-25.731,69.82h-10.146l32.3-87.038l8.547-0.046l25.662,87.083H188.938z M208.22,50.518h2.063l-6.97,17.106h-2.234l-6.52-17.106
		h2.423l5.432,14.343L208.22,50.518z M208.952,67.625h-2.065l7.016-17.106h2.236l6.472,17.106h-2.404l-1.77-4.704h-7.546
		L208.952,67.625z M211.56,61.212h6.208l-2.996-7.946L211.56,61.212z M226.775,67.625h-2.05V50.518h2.204l7.823,12.154l0.715,1.365
		l-0.048-1.35v-12.17h2.048v17.106h-2.173l-7.839-12.216l-0.711-1.367l0.03,1.367V67.625z M242.197,67.625V50.518h9.671v1.879
		h-7.437v5.4h6.488v1.707h-6.488v6.241h8.025v1.879H242.197z M255.457,63.774h2.236v0.108c0,0.953,0.331,1.615,0.994,1.988
		c0.671,0.373,1.562,0.558,2.669,0.558c0.974,0,1.785-0.285,2.437-0.854c0.662-0.568,0.993-1.313,0.995-2.234
		c0-0.754-0.285-1.371-0.854-1.846c-0.56-0.466-1.419-0.938-2.577-1.414l-0.884-0.355c-1.212-0.498-2.118-0.988-2.718-1.477
		c-0.6-0.496-1.05-1.039-1.35-1.629c-0.291-0.601-0.436-1.268-0.436-2.002c0-1.293,0.456-2.385,1.366-3.275
		c0.921-0.891,2.355-1.335,4.3-1.337c1.79,0,3.048,0.333,3.771,0.996c0.725,0.662,1.086,1.432,1.088,2.312v0.124h-2.221v-0.124
		c0-0.28-0.113-0.554-0.341-0.822c-0.229-0.27-0.565-0.466-1.01-0.589c-0.444-0.125-0.937-0.188-1.475-0.188
		c-1.097,0-1.908,0.277-2.437,0.823c-0.518,0.55-0.775,1.175-0.775,1.879c0,0.465,0.123,0.905,0.371,1.319
		c0.248,0.413,0.591,0.76,1.025,1.04c0.435,0.27,1.169,0.631,2.204,1.085l1.056,0.45c1.675,0.727,2.794,1.492,3.352,2.298
		c0.56,0.798,0.839,1.661,0.839,2.594c0,0.858-0.228,1.69-0.683,2.497c-0.456,0.8-1.087,1.403-1.895,1.816
		c-0.808,0.414-1.883,0.622-3.227,0.622c-1.273,0-2.341-0.154-3.198-0.466c-0.86-0.3-1.512-0.796-1.956-1.49
		c-0.446-0.694-0.669-1.46-0.669-2.298V63.774z M269.557,63.774h2.235v0.108c0,0.953,0.33,1.615,0.992,1.988
		c0.673,0.373,1.563,0.558,2.671,0.558c0.971,0,1.785-0.285,2.437-0.854c0.661-0.568,0.992-1.313,0.992-2.234
		c0-0.754-0.284-1.371-0.854-1.846c-0.558-0.466-1.415-0.938-2.575-1.414l-0.885-0.355c-1.211-0.498-2.117-0.988-2.717-1.477
		c-0.601-0.496-1.051-1.039-1.351-1.629c-0.288-0.601-0.435-1.268-0.435-2.002c0-1.293,0.456-2.385,1.365-3.275
		c0.922-0.891,2.354-1.335,4.301-1.337c1.79,0,3.046,0.333,3.772,0.996c0.724,0.662,1.085,1.432,1.085,2.312v0.124h-2.22v-0.124
		c0-0.28-0.113-0.554-0.342-0.822c-0.228-0.27-0.562-0.466-1.008-0.589c-0.446-0.125-0.937-0.188-1.473-0.188
		c-1.101,0-1.912,0.277-2.438,0.823c-0.518,0.55-0.777,1.175-0.777,1.879c0,0.465,0.125,0.905,0.373,1.319
		c0.25,0.413,0.591,0.76,1.025,1.04c0.435,0.27,1.169,0.631,2.203,1.085l1.056,0.45c1.678,0.727,2.795,1.492,3.354,2.298
		c0.558,0.798,0.836,1.661,0.836,2.594c0,0.858-0.229,1.69-0.683,2.497c-0.455,0.8-1.086,1.403-1.892,1.816
		c-0.808,0.414-1.885,0.622-3.231,0.622c-1.272,0-2.338-0.154-3.196-0.466c-0.859-0.3-1.511-0.796-1.955-1.49
		s-0.668-1.46-0.668-2.298V63.774z M284.336,67.625h-2.063l7.016-17.106h2.234l6.474,17.106h-2.408l-1.77-4.704h-7.542
		L284.336,67.625z M286.943,61.212h6.21l-2.996-7.946L286.943,61.212z M215.837,71.71h2.065l-6.97,17.106h-2.234l-6.52-17.106h2.42
		l5.435,14.341L215.837,71.71z M221.987,88.817h-2.235V71.71h2.235V88.817z M235.462,86.767v2.05h-11.113v-2.05l8.506-13.178h-7.902
		V71.71h10.339v1.879l-8.442,13.178H235.462z M247.118,84.913h2.048v0.108c0,0.665-0.232,1.348-0.698,2.044
		c-0.465,0.687-1.098,1.19-1.894,1.506c-0.799,0.327-1.739,0.492-2.825,0.492c-2.173,0-3.954-0.746-5.339-2.244
		c-1.377-1.496-2.065-3.74-2.065-6.733c0-2.973,0.688-5.211,2.065-6.719c1.375-1.508,3.162-2.26,5.354-2.26
		c1.076,0,2.011,0.163,2.81,0.492c0.796,0.317,1.429,0.829,1.894,1.537c0.466,0.695,0.698,1.369,0.698,2.015v0.108h-2.048v-0.108
		c0-0.411-0.135-0.804-0.404-1.185c-0.259-0.388-0.63-0.681-1.119-0.877c-0.484-0.194-1.069-0.292-1.754-0.292
		c-1.748,0-3.052,0.688-3.911,2.062c-0.857,1.361-1.289,3.104-1.289,5.227c0,2.143,0.432,3.893,1.289,5.258
		c0.869,1.353,2.169,2.029,3.896,2.029c1.19,0,2.034-0.24,2.53-0.723c0.508-0.491,0.762-1.035,0.762-1.629V84.913z M251.789,88.817
		h-2.063l7.016-17.106h2.234l6.474,17.106h-2.406l-1.769-4.704h-7.545L251.789,88.817z M254.397,82.405h6.209l-2.996-7.946
		L254.397,82.405z M271.046,88.817h-2.22v-8.058l-5.542-9.049h2.592l4.285,6.906l4.221-6.906h2.158l-5.494,9.049V88.817z"/>
	<path fill="none" stroke="#E62679" stroke-width="0.1345" stroke-miterlimit="3.8637" d="M279.061,82.405h6.21l-2.996-7.946
		L279.061,82.405z M276.453,88.817h-2.063l7.018-17.106h2.234l6.472,17.106h-2.406l-1.77-4.704h-7.542L276.453,88.817z
		 M99.399,89.047l-20.466-69.82l-25.731,69.82H43.055L75.356,2.01l8.546-0.046l25.662,87.083H99.399z M11.894,1.7L32.36,71.518
		L58.091,1.7h10.147L35.937,88.736l-8.547,0.046L1.729,1.7H11.894z M101.433,1.7l20.466,69.818L147.628,1.7h10.15l-32.304,87.036
		l-8.545,0.046L91.268,1.7H101.433z M188.938,89.047l-20.468-69.82l-25.731,69.82h-10.146l32.3-87.038l8.547-0.046l25.662,87.083
		H188.938z M208.22,50.518h2.063l-6.97,17.106h-2.234l-6.52-17.106h2.423l5.432,14.343L208.22,50.518z M208.952,67.625h-2.065
		l7.016-17.106h2.236l6.472,17.106h-2.404l-1.77-4.704h-7.546L208.952,67.625z M211.56,61.212h6.208l-2.996-7.946L211.56,61.212z
		 M226.775,67.625h-2.05V50.518h2.204l7.823,12.154l0.715,1.365l-0.048-1.35v-12.17h2.048v17.106h-2.173l-7.839-12.216l-0.711-1.367
		l0.03,1.367V67.625z M242.197,67.625V50.518h9.671v1.879h-7.437v5.4h6.488v1.707h-6.488v6.241h8.025v1.879H242.197z
		 M255.457,63.774h2.236v0.108c0,0.953,0.331,1.615,0.994,1.988c0.671,0.373,1.562,0.558,2.669,0.558
		c0.974,0,1.785-0.285,2.437-0.854c0.662-0.568,0.993-1.313,0.995-2.234c0-0.754-0.285-1.371-0.854-1.846
		c-0.56-0.466-1.419-0.938-2.577-1.414l-0.884-0.355c-1.212-0.498-2.118-0.988-2.718-1.477c-0.6-0.496-1.05-1.039-1.35-1.629
		c-0.291-0.601-0.436-1.268-0.436-2.002c0-1.293,0.456-2.385,1.366-3.275c0.921-0.891,2.355-1.335,4.3-1.337
		c1.79,0,3.048,0.333,3.771,0.996c0.725,0.662,1.086,1.432,1.088,2.312v0.124h-2.221v-0.124c0-0.28-0.113-0.554-0.341-0.822
		c-0.229-0.27-0.565-0.466-1.01-0.589c-0.444-0.125-0.937-0.188-1.475-0.188c-1.097,0-1.908,0.277-2.437,0.823
		c-0.518,0.55-0.775,1.175-0.775,1.879c0,0.465,0.123,0.905,0.371,1.319c0.248,0.413,0.591,0.76,1.025,1.04
		c0.435,0.27,1.169,0.631,2.204,1.085l1.056,0.45c1.675,0.727,2.794,1.492,3.352,2.298c0.56,0.798,0.839,1.661,0.839,2.594
		c0,0.858-0.228,1.69-0.683,2.497c-0.456,0.8-1.087,1.403-1.895,1.816c-0.808,0.414-1.883,0.622-3.227,0.622
		c-1.273,0-2.341-0.154-3.198-0.466c-0.86-0.3-1.512-0.796-1.956-1.49c-0.446-0.694-0.669-1.46-0.669-2.298V63.774z M269.557,63.774
		h2.235v0.108c0,0.953,0.33,1.615,0.992,1.988c0.673,0.373,1.563,0.558,2.671,0.558c0.971,0,1.785-0.285,2.437-0.854
		c0.661-0.568,0.992-1.313,0.992-2.234c0-0.754-0.284-1.371-0.854-1.846c-0.558-0.466-1.415-0.938-2.575-1.414l-0.885-0.355
		c-1.211-0.498-2.117-0.988-2.717-1.477c-0.601-0.496-1.051-1.039-1.351-1.629c-0.288-0.601-0.435-1.268-0.435-2.002
		c0-1.293,0.456-2.385,1.365-3.275c0.922-0.891,2.354-1.335,4.301-1.337c1.79,0,3.046,0.333,3.772,0.996
		c0.724,0.662,1.085,1.432,1.085,2.312v0.124h-2.22v-0.124c0-0.28-0.113-0.554-0.342-0.822c-0.228-0.27-0.562-0.466-1.008-0.589
		c-0.446-0.125-0.937-0.188-1.473-0.188c-1.101,0-1.912,0.277-2.438,0.823c-0.518,0.55-0.777,1.175-0.777,1.879
		c0,0.465,0.125,0.905,0.373,1.319c0.25,0.413,0.591,0.76,1.025,1.04c0.435,0.27,1.169,0.631,2.203,1.085l1.056,0.45
		c1.678,0.727,2.795,1.492,3.354,2.298c0.558,0.798,0.836,1.661,0.836,2.594c0,0.858-0.229,1.69-0.683,2.497
		c-0.455,0.8-1.086,1.403-1.892,1.816c-0.808,0.414-1.885,0.622-3.231,0.622c-1.272,0-2.338-0.154-3.196-0.466
		c-0.859-0.3-1.511-0.796-1.955-1.49s-0.668-1.46-0.668-2.298V63.774z M284.336,67.625h-2.063l7.016-17.106h2.234l6.474,17.106
		h-2.408l-1.77-4.704h-7.542L284.336,67.625z M286.943,61.212h6.21l-2.996-7.946L286.943,61.212z M215.837,71.71h2.065l-6.97,17.106
		h-2.234l-6.52-17.106h2.42l5.435,14.341L215.837,71.71z M221.987,88.817h-2.235V71.71h2.235V88.817z M235.462,86.767v2.05h-11.113
		v-2.05l8.506-13.178h-7.902V71.71h10.339v1.879l-8.442,13.178H235.462z M247.118,84.913h2.048v0.108
		c0,0.665-0.232,1.348-0.698,2.044c-0.465,0.687-1.098,1.19-1.894,1.506c-0.799,0.327-1.739,0.492-2.825,0.492
		c-2.173,0-3.954-0.746-5.339-2.244c-1.377-1.496-2.065-3.74-2.065-6.733c0-2.973,0.688-5.211,2.065-6.719
		c1.375-1.508,3.162-2.26,5.354-2.26c1.076,0,2.011,0.163,2.81,0.492c0.796,0.317,1.429,0.829,1.894,1.537
		c0.466,0.695,0.698,1.369,0.698,2.015v0.108h-2.048v-0.108c0-0.411-0.135-0.804-0.404-1.185c-0.259-0.388-0.63-0.681-1.119-0.877
		c-0.484-0.194-1.069-0.292-1.754-0.292c-1.748,0-3.052,0.688-3.911,2.062c-0.857,1.361-1.289,3.104-1.289,5.227
		c0,2.143,0.432,3.893,1.289,5.258c0.869,1.353,2.169,2.029,3.896,2.029c1.19,0,2.034-0.24,2.53-0.723
		c0.508-0.491,0.762-1.035,0.762-1.629V84.913z M251.789,88.817h-2.063l7.016-17.106h2.234l6.474,17.106h-2.406l-1.769-4.704h-7.545
		L251.789,88.817z M254.397,82.405h6.209l-2.996-7.946L254.397,82.405z M271.046,88.817h-2.22v-8.058l-5.542-9.049h2.592
		l4.285,6.906l4.221-6.906h2.158l-5.494,9.049V88.817z"/>
</g>
</svg>
